<svg width="48" height="48" viewBox="0 0 48 48" fill="none" xmlns="http://www.w3.org/2000/svg">
<path d="M42.4291 22.4596H47.4207C47.4207 9.6562 37.7545 0 24.9336 0V4.99157C35.0715 4.99157 42.4291 12.3367 42.4291 22.4596Z" fill="white"/>
<path d="M24.9586 14.9745C30.2072 14.9745 32.4459 17.2132 32.4459 22.4618H37.4375C37.4375 14.4129 33.0075 9.98288 24.9586 9.98288V14.9745ZM33.4991 28.559C33.0196 28.1231 32.3894 27.8907 31.7416 27.9107C31.0939 27.9307 30.4792 28.2017 30.0275 28.6663L24.0551 34.8085C22.6175 34.5339 19.7274 33.6329 16.7524 30.6655C13.7774 27.688 12.8765 24.7904 12.6094 23.3628L18.7466 17.3879C19.2118 16.9365 19.4831 16.3217 19.5032 15.6738C19.5232 15.0258 19.2903 14.3955 18.8539 13.9162L9.63194 3.77586C9.19529 3.29506 8.5884 3.00342 7.94018 2.96288C7.29196 2.92234 6.65347 3.13608 6.1603 3.55872L0.744448 8.20338C0.312955 8.63644 0.0554102 9.2128 0.02067 9.82315C-0.0167668 10.4471 -0.730561 25.2271 10.7301 36.6928C20.7282 46.6884 33.2521 47.4197 36.7012 47.4197C37.2054 47.4197 37.5149 47.4047 37.5972 47.3997C38.2075 47.3655 38.7835 47.1069 39.2145 46.6734L43.8567 41.2551C44.2796 40.7622 44.4938 40.1239 44.4537 39.4757C44.4136 38.8275 44.1225 38.2204 43.642 37.7834L33.4991 28.559Z" fill="white"/>
</svg>
