<svg width="739" height="332" viewBox="0 0 739 332" fill="none" xmlns="http://www.w3.org/2000/svg">
<g filter="url(#filter0_d_230_2)">
<rect x="26" y="22" width="687" height="280" rx="8" fill="#2571A9"/>
</g>
<path d="M85.8027 164V155.127L94.9639 153.398V90.7686L85.8027 89.04V80.1094H118.645V89.04L109.483 90.7686V116.927H146.186V90.7686L137.024 89.04V80.1094H169.809V89.04L160.647 90.7686V153.398L169.809 155.127V164H137.024V155.127L146.186 153.398V128.22H109.483V153.398L118.645 155.127V164H85.8027ZM177.529 164V155.127L186.69 153.398V90.7686L177.529 89.04V80.1094H241.427V101.716H230.134L229.154 91.2871H201.21V115.025H230.652V126.261H201.21V152.938H230.71L231.689 142.278H242.867V164H177.529ZM252.201 164V155.127L259.519 153.744L284.236 121.997L261.132 90.4229L254.103 89.04V80.1094H284.524V89.04L276.573 89.7891L292.764 112.375L308.493 89.7891L300.542 89.04V80.1094H330.791V89.04L323.243 90.4229L301.233 121.133L325.836 153.744L333.557 155.127V164H302.501V155.127L310.164 154.378L292.764 130.582L275.19 154.378L282.508 155.127V164H252.201ZM374.753 165.21C367.34 165.21 360.886 163.385 355.394 159.736C349.901 156.087 345.637 151.075 342.603 144.698C339.606 138.284 338.108 130.947 338.108 122.688V121.421C338.108 113.201 339.606 105.903 342.603 99.5264C345.637 93.1117 349.882 88.0798 355.336 84.4307C360.829 80.7432 367.282 78.8994 374.695 78.8994C382.301 78.8994 388.85 80.7432 394.343 84.4307C399.874 88.0798 404.118 93.1117 407.076 99.5264C410.034 105.903 411.513 113.201 411.513 121.421V122.688C411.513 130.947 410.034 138.284 407.076 144.698C404.118 151.075 399.893 156.087 394.4 159.736C388.908 163.385 382.358 165.21 374.753 165.21ZM374.753 153.687C379.823 153.687 383.991 152.4 387.256 149.826C390.559 147.214 392.998 143.584 394.573 138.937C396.187 134.289 396.993 128.873 396.993 122.688V121.306C396.993 115.237 396.187 109.897 394.573 105.288C392.96 100.64 390.502 97.0104 387.198 94.3984C383.895 91.7865 379.727 90.4805 374.695 90.4805C369.855 90.4805 365.803 91.7865 362.538 94.3984C359.273 96.972 356.815 100.583 355.163 105.23C353.511 109.84 352.686 115.198 352.686 121.306V122.688C352.686 128.834 353.511 134.25 355.163 138.937C356.815 143.584 359.273 147.214 362.538 149.826C365.841 152.4 369.913 153.687 374.753 153.687ZM419.061 164V155.127L428.222 153.398V90.7686L419.061 89.04V80.1094H452.594V89.04L442.741 90.7686V152.88H468.957L469.937 140.146H481.057V164H419.061ZM488.144 164V155.127L494.251 154.263L522.022 80.1094H536.139L563.564 154.263L569.672 155.127V164H542.995V155.127L548.987 154.032L544.551 140.838H513.322L508.771 154.032L514.82 155.127V164H488.144ZM517.125 129.66H540.806L529.916 98.6621L529.167 96.415H528.821L528.015 98.7773L517.125 129.66ZM576.586 164V155.127L585.747 153.398V90.7686L576.586 89.04V80.1094H615.362C624.812 80.1094 632.148 82.2604 637.372 86.5625C642.596 90.8262 645.208 96.7799 645.208 104.424C645.208 109.686 643.864 114.238 641.175 118.079C638.524 121.882 634.875 124.705 630.228 126.549L642.327 153.629L648.896 155.012V164H631.149L616.63 128.911L600.267 129.084V153.398L609.428 155.127V164H576.586ZM600.267 117.791H614.729C620.183 117.791 624.216 116.696 626.828 114.507C629.44 112.279 630.746 109.052 630.746 104.827C630.746 100.717 629.459 97.4521 626.886 95.0322C624.351 92.5739 620.509 91.3447 615.362 91.3447H600.267V117.791Z" fill="white"/>
<path d="M161.847 204.621L161.529 206.953L156.865 207.536L162.43 221.952L163.649 225.609L165.557 222.217L174.408 207.536L170.274 206.953L170.539 204.621H182.093L181.828 206.953L178.754 207.536L165.186 228.683L163.596 241.191L169.532 241.827L169.32 244H151.724L151.936 241.827L157.925 241.191L159.515 228.683L150.346 207.536L147.166 206.953L147.378 204.621H161.847ZM195.011 213.896C198.509 213.896 201.194 214.956 203.067 217.076C204.939 219.196 205.876 222.217 205.876 226.139C205.876 229.354 205.222 232.375 203.915 235.202C202.643 238.029 200.823 240.308 198.456 242.039C196.124 243.735 193.474 244.583 190.506 244.583C187.008 244.583 184.322 243.523 182.45 241.403C180.577 239.283 179.641 236.262 179.641 232.34C179.641 229.089 180.277 226.051 181.549 223.224C182.856 220.397 184.676 218.136 187.008 216.44C189.375 214.744 192.043 213.896 195.011 213.896ZM194.269 216.811C192.431 216.811 190.859 217.588 189.552 219.143C188.244 220.662 187.255 222.606 186.584 224.973C185.948 227.305 185.63 229.69 185.63 232.128C185.63 238.559 187.555 241.774 191.407 241.774C193.209 241.774 194.746 240.997 196.018 239.442C197.29 237.887 198.244 235.926 198.88 233.559C199.516 231.192 199.834 228.789 199.834 226.351C199.834 219.991 197.979 216.811 194.269 216.811ZM217.918 230.909C217.565 233.806 217.388 235.75 217.388 236.739C217.388 238.4 217.671 239.548 218.236 240.184C218.801 240.82 219.667 241.138 220.833 241.138C222.105 241.138 223.412 240.696 224.755 239.813C226.098 238.894 227.246 237.799 228.2 236.527L231.168 214.161H236.68L233.288 239.23L233.235 239.813C233.235 240.237 233.306 240.573 233.447 240.82C233.624 241.032 233.836 241.138 234.083 241.138C234.79 241.138 235.691 240.608 236.786 239.548L237.475 240.979C237.051 241.65 236.256 242.41 235.09 243.258C233.924 244.071 232.634 244.477 231.221 244.477C230.126 244.477 229.295 244.194 228.73 243.629C228.165 243.064 227.917 242.269 227.988 241.244C227.988 241.315 228.041 240.714 228.147 239.442L228.094 239.389C225.267 242.816 222.087 244.53 218.554 244.53C216.54 244.53 214.915 244 213.678 242.94C212.441 241.845 211.805 240.06 211.77 237.587C211.77 235.926 212.106 232.852 212.777 228.365L214.155 218.507L211.346 216.97L211.717 214.956L218.925 213.949L220.038 214.532L218.236 228.577L217.918 230.909ZM250.813 221.422C251.237 220.256 251.908 219.108 252.827 217.977C253.781 216.811 254.912 215.857 256.219 215.115C257.526 214.338 258.904 213.949 260.353 213.949C261.201 213.949 261.766 214.073 262.049 214.32L260.83 220.415C260.3 220.026 259.434 219.832 258.233 219.832C256.784 219.832 255.336 220.291 253.887 221.21C252.474 222.093 251.396 223.348 250.654 224.973L248.163 244H242.704L246.043 218.507L243.34 217.182L243.764 215.168L250.283 213.949L251.396 214.585L251.025 219.355L250.813 221.422ZM297.9 204.568L304.578 241.138L308.818 241.827L308.712 244H293.925L294.031 241.827L298.589 241.191L297.158 232.499H282.848L278.873 241.191L283.696 241.827L283.484 244H270.499L270.711 241.827L274.315 241.191L292.123 204.568H297.9ZM284.226 229.478H296.734L294.031 212.518L293.713 208.755L284.226 229.478ZM327.963 204.621L327.751 206.953L323.617 207.536L319.324 241.191L323.564 241.827L323.405 244H309.413L309.678 241.827L313.547 241.191L317.84 207.536L314.236 206.953L314.501 204.621H327.963ZM362.831 208.225C361.559 207.306 359.775 206.847 357.478 206.847C355.464 206.847 353.751 207.359 352.337 208.384C350.959 209.373 350.27 210.787 350.27 212.624C350.27 214.603 350.889 216.263 352.125 217.606C353.362 218.913 355.235 220.344 357.743 221.899C359.475 222.994 360.906 224.019 362.036 224.973C363.202 225.927 364.174 227.075 364.951 228.418C365.729 229.725 366.117 231.227 366.117 232.923C366.117 235.184 365.534 237.198 364.368 238.965C363.238 240.732 361.612 242.11 359.492 243.099C357.372 244.088 354.917 244.583 352.125 244.583C349.758 244.583 347.479 244.318 345.288 243.788C343.133 243.258 341.702 242.728 340.995 242.198L342.214 234.619H345.659L345.977 240.184C346.649 240.679 347.532 241.085 348.627 241.403C349.758 241.686 350.924 241.827 352.125 241.827C354.528 241.827 356.524 241.244 358.114 240.078C359.74 238.877 360.552 237.216 360.552 235.096C360.552 233.259 359.987 231.722 358.856 230.485C357.726 229.248 356.012 227.923 353.715 226.51C351.949 225.379 350.447 224.302 349.21 223.277C347.974 222.217 346.931 220.98 346.083 219.567C345.271 218.154 344.864 216.564 344.864 214.797C344.864 212.642 345.43 210.751 346.56 209.126C347.726 207.501 349.299 206.264 351.277 205.416C353.291 204.533 355.5 204.091 357.902 204.091C360.27 204.091 362.266 204.303 363.891 204.727C365.552 205.151 366.806 205.646 367.654 206.211L366.435 213.313H363.308L362.831 208.225ZM386.204 213.896C389.702 213.896 392.387 214.956 394.26 217.076C396.133 219.196 397.069 222.217 397.069 226.139C397.069 229.354 396.415 232.375 395.108 235.202C393.836 238.029 392.016 240.308 389.649 242.039C387.317 243.735 384.667 244.583 381.699 244.583C378.201 244.583 375.516 243.523 373.643 241.403C371.77 239.283 370.834 236.262 370.834 232.34C370.834 229.089 371.47 226.051 372.742 223.224C374.049 220.397 375.869 218.136 378.201 216.44C380.568 214.744 383.236 213.896 386.204 213.896ZM385.462 216.811C383.625 216.811 382.052 217.588 380.745 219.143C379.438 220.662 378.448 222.606 377.777 224.973C377.141 227.305 376.823 229.69 376.823 232.128C376.823 238.559 378.749 241.774 382.6 241.774C384.402 241.774 385.939 240.997 387.211 239.442C388.483 237.887 389.437 235.926 390.073 233.559C390.709 231.192 391.027 228.789 391.027 226.351C391.027 219.991 389.172 216.811 385.462 216.811ZM408.104 239.283C408.069 239.424 408.051 239.619 408.051 239.866C408.051 240.714 408.334 241.138 408.899 241.138C409.571 241.138 410.472 240.626 411.602 239.601L412.291 240.979C411.797 241.756 411.037 242.551 410.012 243.364C408.988 244.141 407.698 244.53 406.143 244.53C405.013 244.53 404.112 244.265 403.44 243.735C402.769 243.205 402.433 242.375 402.433 241.244C402.433 241.032 402.451 240.714 402.486 240.29C402.557 239.866 402.61 239.566 402.645 239.389L407.415 205.098L404.129 204.144L404.606 202.236L412.132 201.282L413.245 201.971L408.104 239.283ZM439.469 239.018C439.434 239.159 439.416 239.354 439.416 239.601C439.416 240.131 439.504 240.52 439.681 240.767C439.893 241.014 440.158 241.138 440.476 241.138C441.041 241.138 441.819 240.696 442.808 239.813L443.55 241.191C443.161 241.827 442.419 242.551 441.324 243.364C440.264 244.141 439.063 244.53 437.72 244.53C436.625 244.53 435.759 244.265 435.123 243.735C434.487 243.17 434.187 242.304 434.222 241.138L434.434 239.601C433.303 240.979 431.978 242.145 430.459 243.099C428.975 244.053 427.367 244.53 425.636 244.53C422.774 244.53 420.636 243.523 419.223 241.509C417.81 239.46 417.103 236.774 417.103 233.453C417.103 230.414 417.774 227.393 419.117 224.39C420.46 221.351 422.421 218.843 425 216.864C427.579 214.885 430.6 213.896 434.063 213.896C434.876 213.896 435.794 214.002 436.819 214.214C437.844 214.391 438.78 214.603 439.628 214.85L442.861 213.949L439.469 239.018ZM436.872 217.659C435.953 217.094 434.823 216.811 433.48 216.811C431.219 216.811 429.293 217.641 427.703 219.302C426.113 220.963 424.912 223.047 424.099 225.556C423.322 228.029 422.933 230.52 422.933 233.029C422.933 235.573 423.304 237.552 424.046 238.965C424.823 240.343 425.954 241.032 427.438 241.032C428.675 241.032 429.911 240.573 431.148 239.654C432.42 238.7 433.498 237.622 434.381 236.421L436.872 217.659ZM457.016 221.422C457.44 220.256 458.111 219.108 459.03 217.977C459.984 216.811 461.115 215.857 462.422 215.115C463.729 214.338 465.107 213.949 466.556 213.949C467.404 213.949 467.969 214.073 468.252 214.32L467.033 220.415C466.503 220.026 465.637 219.832 464.436 219.832C462.987 219.832 461.539 220.291 460.09 221.21C458.677 222.093 457.599 223.348 456.857 224.973L454.366 244H448.907L452.246 218.507L449.543 217.182L449.967 215.168L456.486 213.949L457.599 214.585L457.228 219.355L457.016 221.422ZM515.975 204.621L514.173 217.447L511.099 217.5L511.205 207.695L502.672 207.165L498.22 241.191L505.004 241.774L504.792 244H485.871L486.03 241.774L492.443 241.191L496.842 207.165L488.415 207.695L485.447 217.447H482.267L484.387 204.621H515.975ZM530.039 213.896C533.537 213.896 536.222 214.956 538.095 217.076C539.967 219.196 540.904 222.217 540.904 226.139C540.904 229.354 540.25 232.375 538.943 235.202C537.671 238.029 535.851 240.308 533.484 242.039C531.152 243.735 528.502 244.583 525.534 244.583C522.036 244.583 519.35 243.523 517.478 241.403C515.605 239.283 514.669 236.262 514.669 232.34C514.669 229.089 515.305 226.051 516.577 223.224C517.884 220.397 519.704 218.136 522.036 216.44C524.403 214.744 527.071 213.896 530.039 213.896ZM529.297 216.811C527.459 216.811 525.887 217.588 524.58 219.143C523.272 220.662 522.283 222.606 521.612 224.973C520.976 227.305 520.658 229.69 520.658 232.128C520.658 238.559 522.583 241.774 526.435 241.774C528.237 241.774 529.774 240.997 531.046 239.442C532.318 237.887 533.272 235.926 533.908 233.559C534.544 231.192 534.862 228.789 534.862 226.351C534.862 219.991 533.007 216.811 529.297 216.811ZM560.472 213.896C563.97 213.896 566.656 214.956 568.528 217.076C570.401 219.196 571.337 222.217 571.337 226.139C571.337 229.354 570.684 232.375 569.376 235.202C568.104 238.029 566.285 240.308 563.917 242.039C561.585 243.735 558.935 244.583 555.967 244.583C552.469 244.583 549.784 243.523 547.911 241.403C546.039 239.283 545.102 236.262 545.102 232.34C545.102 229.089 545.738 226.051 547.01 223.224C548.318 220.397 550.137 218.136 552.469 216.44C554.837 214.744 557.504 213.896 560.472 213.896ZM559.73 216.811C557.893 216.811 556.321 217.588 555.013 219.143C553.706 220.662 552.717 222.606 552.045 224.973C551.409 227.305 551.091 229.69 551.091 232.128C551.091 238.559 553.017 241.774 556.868 241.774C558.67 241.774 560.207 240.997 561.479 239.442C562.751 237.887 563.705 235.926 564.341 233.559C564.977 231.192 565.295 228.789 565.295 226.351C565.295 219.991 563.44 216.811 559.73 216.811ZM582.373 239.283C582.338 239.424 582.32 239.619 582.32 239.866C582.32 240.714 582.603 241.138 583.168 241.138C583.839 241.138 584.74 240.626 585.871 239.601L586.56 240.979C586.065 241.756 585.306 242.551 584.281 243.364C583.256 244.141 581.967 244.53 580.412 244.53C579.281 244.53 578.38 244.265 577.709 243.735C577.038 243.205 576.702 242.375 576.702 241.244C576.702 241.032 576.72 240.714 576.755 240.29C576.826 239.866 576.879 239.566 576.914 239.389L581.684 205.098L578.398 204.144L578.875 202.236L586.401 201.282L587.514 201.971L582.373 239.283Z" fill="#10BAB9"/>
<defs>
<filter id="filter0_d_230_2" x="0" y="0" width="739" height="332" filterUnits="userSpaceOnUse" color-interpolation-filters="sRGB">
<feFlood flood-opacity="0" result="BackgroundImageFix"/>
<feColorMatrix in="SourceAlpha" type="matrix" values="0 0 0 0 0 0 0 0 0 0 0 0 0 0 0 0 0 0 127 0" result="hardAlpha"/>
<feOffset dy="4"/>
<feGaussianBlur stdDeviation="13"/>
<feComposite in2="hardAlpha" operator="out"/>
<feColorMatrix type="matrix" values="0 0 0 0 0.223125 0 0 0 0 0.549868 0 0 0 0 0.7875 0 0 0 1 0"/>
<feBlend mode="normal" in2="BackgroundImageFix" result="effect1_dropShadow_230_2"/>
<feBlend mode="normal" in="SourceGraphic" in2="effect1_dropShadow_230_2" result="shape"/>
</filter>
</defs>
</svg>
