<svg width="65" height="63" viewBox="0 0 65 63" fill="none" xmlns="http://www.w3.org/2000/svg">
<path d="M32.4913 20.697C26.5236 20.697 21.6535 25.3502 21.6535 31.0521C21.6535 36.754 26.5236 41.4072 32.4913 41.4072C38.4589 41.4072 43.329 36.754 43.329 31.0521C43.329 25.3502 38.4589 20.697 32.4913 20.697ZM64.9964 31.0521C64.9964 26.764 65.037 22.5148 64.785 18.2345C64.5329 13.2628 63.3459 8.85038 59.5409 5.21483C55.7278 1.5715 51.1179 0.445102 45.9145 0.204286C41.4265 -0.0365309 36.9792 0.00231063 32.4994 0.00231063C28.0114 0.00231063 23.5641 -0.0365309 19.0843 0.204286C13.8809 0.445102 9.26288 1.57927 5.45788 5.21483C1.64475 8.85815 0.465848 13.2628 0.213807 18.2345C-0.0382335 22.5226 0.00241832 26.7718 0.00241832 31.0521C0.00241832 35.3324 -0.0382335 39.5895 0.213807 43.8698C0.465848 48.8415 1.65288 53.2539 5.45788 56.8894C9.27101 60.5327 13.8809 61.6591 19.0843 61.9C23.5723 62.1408 28.0196 62.1019 32.4994 62.1019C36.9873 62.1019 41.4346 62.1408 45.9145 61.9C51.1179 61.6591 55.7359 60.525 59.5409 56.8894C63.354 53.2461 64.5329 48.8415 64.785 43.8698C65.0452 39.5895 64.9964 35.3402 64.9964 31.0521ZM32.4913 46.9849C23.2633 46.9849 15.8159 39.8691 15.8159 31.0521C15.8159 22.2351 23.2633 15.1194 32.4913 15.1194C41.7192 15.1194 49.1666 22.2351 49.1666 31.0521C49.1666 39.8691 41.7192 46.9849 32.4913 46.9849ZM49.8495 18.1879C47.695 18.1879 45.9551 16.5254 45.9551 14.4668C45.9551 12.4083 47.695 10.7458 49.8495 10.7458C52.0041 10.7458 53.744 12.4083 53.744 14.4668C53.7446 14.9557 53.6443 15.4398 53.4488 15.8915C53.2534 16.3433 52.9665 16.7537 52.6048 17.0994C52.243 17.445 51.8134 17.7191 51.3406 17.9059C50.8679 18.0926 50.3611 18.1885 49.8495 18.1879Z" fill="white"/>
</svg>
