<svg width="65" height="63" viewBox="0 0 65 63" fill="none" xmlns="http://www.w3.org/2000/svg">
<path fill-rule="evenodd" clip-rule="evenodd" d="M8.03812e-07 5.18853C8.03812e-07 3.81245 0.572136 2.49273 1.59054 1.51969C2.60895 0.546654 3.99021 6.91704e-06 5.43046 6.91704e-06H59.5636C60.2774 -0.00110687 60.9843 0.132297 61.6441 0.392581C62.3038 0.652865 62.9033 1.03492 63.4082 1.51686C63.9132 1.99881 64.3137 2.57119 64.5869 3.20123C64.86 3.83126 65.0004 4.50659 65 5.18853V56.9101C65.0008 57.5922 64.8608 58.2677 64.588 58.898C64.3153 59.5284 63.9152 60.1011 63.4105 60.5836C62.9058 61.066 62.3066 61.4486 61.647 61.7096C60.9874 61.9705 60.2805 62.1046 59.5666 62.1042H5.43046C4.71707 62.1042 4.01067 61.9699 3.35163 61.709C2.69258 61.4481 2.0938 61.0657 1.5895 60.5836C1.0852 60.1015 0.685253 59.5292 0.412521 58.8993C0.139789 58.2695 -0.000387328 57.5945 8.03812e-07 56.9129V5.18853ZM25.7282 23.6787H34.5298V27.9018C35.8002 25.474 39.0502 23.2891 43.9341 23.2891C53.297 23.2891 55.5159 28.1248 55.5159 36.9972V53.4322H46.0407V39.0184C46.0407 33.9654 44.7702 31.1142 41.5439 31.1142C37.0677 31.1142 35.2064 34.1884 35.2064 39.0184V53.4322H25.7282V23.6787ZM9.47818 53.0455H18.9564V23.2891H9.47818V53.0427V53.0455ZM20.3125 13.5839C20.3304 14.3593 20.186 15.1303 19.8878 15.8516C19.5895 16.5729 19.1435 17.2301 18.5759 17.7845C18.0083 18.3389 17.3305 18.7794 16.5823 19.0801C15.834 19.3809 15.0305 19.5358 14.2188 19.5358C13.407 19.5358 12.6035 19.3809 11.8552 19.0801C11.107 18.7794 10.4292 18.3389 9.86159 17.7845C9.29396 17.2301 8.84796 16.5729 8.54975 15.8516C8.25154 15.1303 8.10713 14.3593 8.125 13.5839C8.16008 12.0619 8.8175 10.6136 9.95648 9.54906C11.0955 8.48452 12.6254 7.88842 14.2188 7.88842C15.8121 7.88842 17.342 8.48452 18.481 9.54906C19.62 10.6136 20.2774 12.0619 20.3125 13.5839Z" fill="white"/>
</svg>
