<svg width="50" height="53" viewBox="0 0 50 53" fill="none" xmlns="http://www.w3.org/2000/svg">
<path d="M0.00106634 18.5271C0.00185437 14.4474 1.34894 10.482 3.83336 7.24602C6.31778 4.01004 9.80065 1.68438 13.7417 0.629807C17.6827 -0.424766 21.8616 -0.149299 25.6301 1.41348C29.3986 2.97625 32.5461 5.73897 34.5842 9.27307C36.6224 12.8072 37.4373 16.9151 36.9025 20.9596C36.3678 25.0041 34.5133 28.7591 31.6267 31.642C28.7401 34.525 24.9828 36.3748 20.9377 36.9045C16.8925 37.4342 12.7856 36.6141 9.25405 34.5716L2.03326 36.9806C1.76649 37.0696 1.48046 37.0842 1.20604 37.0226C0.931615 36.961 0.679226 36.8256 0.476108 36.6311C0.27299 36.4365 0.126857 36.1902 0.0534807 35.9187C-0.0198957 35.6472 -0.017729 35.3608 0.059747 35.0904L2.25872 27.3971C0.773228 24.677 -0.00320546 21.6264 0.00106634 18.5271ZM13.8991 13.8944C13.4895 13.8944 13.0967 14.0571 12.8071 14.3467C12.5175 14.6363 12.3548 15.0291 12.3548 15.4387C12.3548 15.8482 12.5175 16.241 12.8071 16.5306C13.0967 16.8202 13.4895 16.9829 13.8991 16.9829H23.1644C23.574 16.9829 23.9667 16.8202 24.2563 16.5306C24.5459 16.241 24.7086 15.8482 24.7086 15.4387C24.7086 15.0291 24.5459 14.6363 24.2563 14.3467C23.9667 14.0571 23.574 13.8944 23.1644 13.8944H13.8991ZM20.076 20.0713H13.8991C13.4895 20.0713 13.0967 20.234 12.8071 20.5236C12.5175 20.8132 12.3548 21.206 12.3548 21.6155C12.3548 22.0251 12.5175 22.4179 12.8071 22.7075C13.0967 22.9971 13.4895 23.1598 13.8991 23.1598H20.076C20.4855 23.1598 20.8783 22.9971 21.1679 22.7075C21.4575 22.4179 21.6202 22.0251 21.6202 21.6155C21.6202 21.206 21.4575 20.8132 21.1679 20.5236C20.8783 20.234 20.4855 20.0713 20.076 20.0713ZM31.7379 43.071L24.3195 39.3648C25.6784 38.985 26.9848 38.4785 28.2202 37.8577L32.4297 39.964L46.3277 33.015V30.8809C46.3277 30.0618 46.0024 29.2762 45.4232 28.697C44.844 28.1178 44.0584 27.7924 43.2393 27.7924H38.0692C38.5418 26.8041 38.9371 25.7695 39.2552 24.704H43.2393C44.8775 24.704 46.4486 25.3548 47.607 26.5132C48.7654 27.6716 49.4162 29.2427 49.4162 30.8809V46.3231C49.4162 47.9613 48.7654 49.5324 47.607 50.6908C46.4486 51.8492 44.8775 52.5 43.2393 52.5H21.6202C19.982 52.5 18.4109 51.8492 17.2525 50.6908C16.0941 49.5324 15.4433 47.9613 15.4433 46.3231V39.93C16.4532 40.0721 17.4817 40.1462 18.5317 40.1462V46.3231C18.5317 47.1422 18.8571 47.9278 19.4363 48.507C20.0155 49.0862 20.8011 49.4116 21.6202 49.4116H43.2393C44.0584 49.4116 44.844 49.0862 45.4232 48.507C46.0024 47.9278 46.3277 47.1422 46.3277 46.3231V36.4679L33.1216 43.071C32.9068 43.1786 32.6699 43.2346 32.4297 43.2346C32.1896 43.2346 31.9527 43.1786 31.7379 43.071Z" fill="white"/>
</svg>
