<svg width="290" height="290" viewBox="0 0 290 290" fill="none" xmlns="http://www.w3.org/2000/svg">
<path d="M99.6875 217.5H190.312V235.625H99.6875V217.5Z" fill="#F24E1E"/>
<path d="M117.812 253.75H172.188V271.875H117.812V253.75Z" fill="#F24E1E"/>
<path d="M98.0108 164.394C89.5234 157.92 82.7576 149.46 78.309 139.757C73.8604 130.053 71.8655 119.405 72.4999 108.75C72.5239 89.5292 80.1699 71.1024 93.7611 57.5112C107.352 43.9201 125.779 36.274 145 36.25V18.125C120.973 18.1514 97.9372 27.7078 80.9475 44.6976C63.9577 61.6874 54.4013 84.7229 54.3749 108.75C53.7605 121.916 56.283 135.039 61.7346 147.039C67.1862 159.039 75.4109 169.572 85.7311 177.77C94.9024 186.243 99.6874 191.047 99.6874 199.375H117.812C117.812 182.7 107.753 173.402 98.0108 164.394Z" fill="#F24E1E"/>
<path d="M215.687 126.875C212.346 141.761 203.949 155.03 191.926 164.421C182.22 173.411 172.188 182.7 172.188 199.375H190.312C190.312 191.037 195.079 186.234 204.223 177.752C220.115 165.046 230.777 146.936 234.175 126.875H215.687Z" fill="#F24E1E"/>
<path d="M271.875 30.9031L259.097 18.125L226.562 50.6594L194.028 18.125L181.25 30.9031L213.784 63.4375L181.25 95.9719L194.028 108.75L226.562 76.2156L259.097 108.75L271.875 95.9719L239.341 63.4375L271.875 30.9031Z" fill="#F24E1E"/>
</svg>
