<svg width="38" height="47" viewBox="0 0 38 47" fill="none" xmlns="http://www.w3.org/2000/svg">
<path fill-rule="evenodd" clip-rule="evenodd" d="M5.635 5.93501C9.17962 2.39039 13.9871 0.399048 19 0.399048C24.0128 0.399048 28.8204 2.39039 32.365 5.93501C35.9096 9.47963 37.901 14.2872 37.901 19.3C37.901 24.3129 35.9096 29.1204 32.365 32.665L19 46.03L5.635 32.665C3.87977 30.91 2.48743 28.8264 1.53749 26.5332C0.587559 24.24 0.0986328 21.7822 0.0986328 19.3C0.0986328 16.8179 0.587559 14.36 1.53749 12.0669C2.48743 9.77367 3.87977 7.69007 5.635 5.93501ZM19 24.7C20.4322 24.7 21.8057 24.1311 22.8184 23.1184C23.8311 22.1057 24.4 20.7322 24.4 19.3C24.4 17.8678 23.8311 16.4943 22.8184 15.4816C21.8057 14.4689 20.4322 13.9 19 13.9C17.5678 13.9 16.1943 14.4689 15.1816 15.4816C14.1689 16.4943 13.6 17.8678 13.6 19.3C13.6 20.7322 14.1689 22.1057 15.1816 23.1184C16.1943 24.1311 17.5678 24.7 19 24.7Z" fill="white"/>
</svg>
