<svg width="332" height="159" viewBox="0 0 332 159" fill="none" xmlns="http://www.w3.org/2000/svg">
<g filter="url(#filter0_d_132:22)">
<rect x="26" y="22" width="280" height="107" rx="8" fill="#FBFBFB"/>
</g>
<path d="M51.3438 79V75.3906L55.0703 74.6875V49.2109L51.3438 48.5078V44.875H64.7031V48.5078L60.9766 49.2109V59.8516H75.9062V49.2109L72.1797 48.5078V44.875H85.5156V48.5078L81.7891 49.2109V74.6875L85.5156 75.3906V79H72.1797V75.3906L75.9062 74.6875V64.4453H60.9766V74.6875L64.7031 75.3906V79H51.3438ZM88.6562 79V75.3906L92.3828 74.6875V49.2109L88.6562 48.5078V44.875H114.648V53.6641H110.055L109.656 49.4219H98.2891V59.0781H110.266V63.6484H98.2891V74.5H110.289L110.688 70.1641H115.234V79H88.6562ZM119.031 79V75.3906L122.008 74.8281L132.062 61.9141L122.664 49.0703L119.805 48.5078V44.875H132.18V48.5078L128.945 48.8125L135.531 58L141.93 48.8125L138.695 48.5078V44.875H151V48.5078L147.93 49.0703L138.977 61.5625L148.984 74.8281L152.125 75.3906V79H139.492V75.3906L142.609 75.0859L135.531 65.4062L128.383 75.0859L131.359 75.3906V79H119.031ZM168.883 79.4922C165.867 79.4922 163.242 78.75 161.008 77.2656C158.773 75.7812 157.039 73.7422 155.805 71.1484C154.586 68.5391 153.977 65.5547 153.977 62.1953V61.6797C153.977 58.3359 154.586 55.3672 155.805 52.7734C157.039 50.1641 158.766 48.1172 160.984 46.6328C163.219 45.1328 165.844 44.3828 168.859 44.3828C171.953 44.3828 174.617 45.1328 176.852 46.6328C179.102 48.1172 180.828 50.1641 182.031 52.7734C183.234 55.3672 183.836 58.3359 183.836 61.6797V62.1953C183.836 65.5547 183.234 68.5391 182.031 71.1484C180.828 73.7422 179.109 75.7812 176.875 77.2656C174.641 78.75 171.977 79.4922 168.883 79.4922ZM168.883 74.8047C170.945 74.8047 172.641 74.2812 173.969 73.2344C175.312 72.1719 176.305 70.6953 176.945 68.8047C177.602 66.9141 177.93 64.7109 177.93 62.1953V61.6328C177.93 59.1641 177.602 56.9922 176.945 55.1172C176.289 53.2266 175.289 51.75 173.945 50.6875C172.602 49.625 170.906 49.0938 168.859 49.0938C166.891 49.0938 165.242 49.625 163.914 50.6875C162.586 51.7344 161.586 53.2031 160.914 55.0938C160.242 56.9688 159.906 59.1484 159.906 61.6328V62.1953C159.906 64.6953 160.242 66.8984 160.914 68.8047C161.586 70.6953 162.586 72.1719 163.914 73.2344C165.258 74.2812 166.914 74.8047 168.883 74.8047ZM186.906 79V75.3906L190.633 74.6875V49.2109L186.906 48.5078V44.875H200.547V48.5078L196.539 49.2109V74.4766H207.203L207.602 69.2969H212.125V79H186.906ZM215.008 79V75.3906L217.492 75.0391L228.789 44.875H234.531L245.688 75.0391L248.172 75.3906V79H237.32V75.3906L239.758 74.9453L237.953 69.5781H225.25L223.398 74.9453L225.859 75.3906V79H215.008ZM226.797 65.0312H236.43L232 52.4219L231.695 51.5078H231.555L231.227 52.4688L226.797 65.0312ZM250.984 79V75.3906L254.711 74.6875V49.2109L250.984 48.5078V44.875H266.758C270.602 44.875 273.586 45.75 275.711 47.5C277.836 49.2344 278.898 51.6562 278.898 54.7656C278.898 56.9062 278.352 58.7578 277.258 60.3203C276.18 61.8672 274.695 63.0156 272.805 63.7656L277.727 74.7812L280.398 75.3438V79H273.18L267.273 64.7266L260.617 64.7969V74.6875L264.344 75.3906V79H250.984ZM260.617 60.2031H266.5C268.719 60.2031 270.359 59.7578 271.422 58.8672C272.484 57.9609 273.016 56.6484 273.016 54.9297C273.016 53.2578 272.492 51.9297 271.445 50.9453C270.414 49.9453 268.852 49.4453 266.758 49.4453H260.617V60.2031Z" fill="#2673AB"/>
<path d="M103.862 99.112L103.766 99.816L102.358 99.992L104.038 104.344L104.406 105.448L104.982 104.424L107.654 99.992L106.406 99.816L106.486 99.112H109.974L109.894 99.816L108.966 99.992L104.87 106.376L104.39 110.152L106.182 110.344L106.118 111H100.806L100.87 110.344L102.678 110.152L103.158 106.376L100.39 99.992L99.4301 99.816L99.4941 99.112H103.862ZM113.874 101.912C114.93 101.912 115.74 102.232 116.306 102.872C116.871 103.512 117.154 104.424 117.154 105.608C117.154 106.579 116.956 107.491 116.562 108.344C116.178 109.197 115.628 109.885 114.914 110.408C114.21 110.92 113.41 111.176 112.514 111.176C111.458 111.176 110.647 110.856 110.082 110.216C109.516 109.576 109.234 108.664 109.234 107.48C109.234 106.499 109.426 105.581 109.81 104.728C110.204 103.875 110.754 103.192 111.458 102.68C112.172 102.168 112.978 101.912 113.874 101.912ZM113.65 102.792C113.095 102.792 112.62 103.027 112.226 103.496C111.831 103.955 111.532 104.541 111.33 105.256C111.138 105.96 111.042 106.68 111.042 107.416C111.042 109.357 111.623 110.328 112.786 110.328C113.33 110.328 113.794 110.093 114.178 109.624C114.562 109.155 114.85 108.563 115.042 107.848C115.234 107.133 115.33 106.408 115.33 105.672C115.33 103.752 114.77 102.792 113.65 102.792ZM120.789 107.048C120.683 107.923 120.629 108.509 120.629 108.808C120.629 109.309 120.715 109.656 120.885 109.848C121.056 110.04 121.317 110.136 121.669 110.136C122.053 110.136 122.448 110.003 122.853 109.736C123.259 109.459 123.605 109.128 123.893 108.744L124.789 101.992H126.453L125.429 109.56L125.413 109.736C125.413 109.864 125.435 109.965 125.477 110.04C125.531 110.104 125.595 110.136 125.669 110.136C125.883 110.136 126.155 109.976 126.485 109.656L126.693 110.088C126.565 110.291 126.325 110.52 125.973 110.776C125.621 111.021 125.232 111.144 124.805 111.144C124.475 111.144 124.224 111.059 124.053 110.888C123.883 110.717 123.808 110.477 123.829 110.168C123.829 110.189 123.845 110.008 123.877 109.624L123.861 109.608C123.008 110.643 122.048 111.16 120.981 111.16C120.373 111.16 119.883 111 119.509 110.68C119.136 110.349 118.944 109.811 118.933 109.064C118.933 108.563 119.035 107.635 119.237 106.28L119.653 103.304L118.805 102.84L118.917 102.232L121.093 101.928L121.429 102.104L120.885 106.344L120.789 107.048ZM130.72 104.184C130.848 103.832 131.05 103.485 131.328 103.144C131.616 102.792 131.957 102.504 132.352 102.28C132.746 102.045 133.162 101.928 133.6 101.928C133.856 101.928 134.026 101.965 134.112 102.04L133.744 103.88C133.584 103.763 133.322 103.704 132.96 103.704C132.522 103.704 132.085 103.843 131.648 104.12C131.221 104.387 130.896 104.765 130.672 105.256L129.92 111H128.272L129.28 103.304L128.464 102.904L128.592 102.296L130.56 101.928L130.896 102.12L130.784 103.56L130.72 104.184ZM144.935 99.096L146.951 110.136L148.231 110.344L148.199 111H143.735L143.767 110.344L145.143 110.152L144.711 107.528H140.391L139.191 110.152L140.647 110.344L140.583 111H136.663L136.727 110.344L137.815 110.152L143.191 99.096H144.935ZM140.807 106.616H144.583L143.767 101.496L143.671 100.36L140.807 106.616ZM154.01 99.112L153.946 99.816L152.698 99.992L151.402 110.152L152.682 110.344L152.634 111H148.41L148.49 110.344L149.658 110.152L150.954 99.992L149.866 99.816L149.946 99.112H154.01ZM164.537 100.2C164.153 99.9227 163.614 99.784 162.921 99.784C162.313 99.784 161.795 99.9387 161.369 100.248C160.953 100.547 160.745 100.973 160.745 101.528C160.745 102.125 160.931 102.627 161.305 103.032C161.678 103.427 162.243 103.859 163.001 104.328C163.523 104.659 163.955 104.968 164.297 105.256C164.649 105.544 164.942 105.891 165.177 106.296C165.411 106.691 165.529 107.144 165.529 107.656C165.529 108.339 165.353 108.947 165.001 109.48C164.659 110.013 164.169 110.429 163.529 110.728C162.889 111.027 162.147 111.176 161.305 111.176C160.59 111.176 159.902 111.096 159.241 110.936C158.59 110.776 158.158 110.616 157.945 110.456L158.313 108.168H159.353L159.449 109.848C159.651 109.997 159.918 110.12 160.249 110.216C160.59 110.301 160.942 110.344 161.305 110.344C162.03 110.344 162.633 110.168 163.113 109.816C163.603 109.453 163.849 108.952 163.849 108.312C163.849 107.757 163.678 107.293 163.337 106.92C162.995 106.547 162.478 106.147 161.785 105.72C161.251 105.379 160.798 105.053 160.425 104.744C160.051 104.424 159.737 104.051 159.481 103.624C159.235 103.197 159.113 102.717 159.113 102.184C159.113 101.533 159.283 100.963 159.625 100.472C159.977 99.9813 160.451 99.608 161.049 99.352C161.657 99.0853 162.323 98.952 163.049 98.952C163.763 98.952 164.366 99.016 164.857 99.144C165.358 99.272 165.737 99.4213 165.993 99.592L165.625 101.736H164.681L164.537 100.2ZM171.593 101.912C172.649 101.912 173.459 102.232 174.025 102.872C174.59 103.512 174.873 104.424 174.873 105.608C174.873 106.579 174.675 107.491 174.281 108.344C173.897 109.197 173.347 109.885 172.633 110.408C171.929 110.92 171.129 111.176 170.233 111.176C169.177 111.176 168.366 110.856 167.801 110.216C167.235 109.576 166.953 108.664 166.953 107.48C166.953 106.499 167.145 105.581 167.529 104.728C167.923 103.875 168.473 103.192 169.177 102.68C169.891 102.168 170.697 101.912 171.593 101.912ZM171.369 102.792C170.814 102.792 170.339 103.027 169.945 103.496C169.55 103.955 169.251 104.541 169.049 105.256C168.857 105.96 168.761 106.68 168.761 107.416C168.761 109.357 169.342 110.328 170.505 110.328C171.049 110.328 171.513 110.093 171.897 109.624C172.281 109.155 172.569 108.563 172.761 107.848C172.953 107.133 173.049 106.408 173.049 105.672C173.049 103.752 172.489 102.792 171.369 102.792ZM178.204 109.576C178.193 109.619 178.188 109.677 178.188 109.752C178.188 110.008 178.273 110.136 178.444 110.136C178.647 110.136 178.919 109.981 179.26 109.672L179.468 110.088C179.319 110.323 179.089 110.563 178.78 110.808C178.471 111.043 178.081 111.16 177.612 111.16C177.271 111.16 176.999 111.08 176.796 110.92C176.593 110.76 176.492 110.509 176.492 110.168C176.492 110.104 176.497 110.008 176.508 109.88C176.529 109.752 176.545 109.661 176.556 109.608L177.996 99.256L177.004 98.968L177.148 98.392L179.42 98.104L179.756 98.312L178.204 109.576ZM187.673 109.496C187.662 109.539 187.657 109.597 187.657 109.672C187.657 109.832 187.683 109.949 187.737 110.024C187.801 110.099 187.881 110.136 187.977 110.136C188.147 110.136 188.382 110.003 188.681 109.736L188.905 110.152C188.787 110.344 188.563 110.563 188.233 110.808C187.913 111.043 187.55 111.16 187.145 111.16C186.814 111.16 186.553 111.08 186.361 110.92C186.169 110.749 186.078 110.488 186.089 110.136L186.153 109.672C185.811 110.088 185.411 110.44 184.953 110.728C184.505 111.016 184.019 111.16 183.497 111.16C182.633 111.16 181.987 110.856 181.561 110.248C181.134 109.629 180.921 108.819 180.921 107.816C180.921 106.899 181.123 105.987 181.529 105.08C181.934 104.163 182.526 103.405 183.305 102.808C184.083 102.211 184.995 101.912 186.041 101.912C186.286 101.912 186.563 101.944 186.873 102.008C187.182 102.061 187.465 102.125 187.721 102.2L188.697 101.928L187.673 109.496ZM186.889 103.048C186.611 102.877 186.27 102.792 185.865 102.792C185.182 102.792 184.601 103.043 184.121 103.544C183.641 104.045 183.278 104.675 183.033 105.432C182.798 106.179 182.681 106.931 182.681 107.688C182.681 108.456 182.793 109.053 183.017 109.48C183.251 109.896 183.593 110.104 184.041 110.104C184.414 110.104 184.787 109.965 185.161 109.688C185.545 109.4 185.87 109.075 186.137 108.712L186.889 103.048ZM192.97 104.184C193.098 103.832 193.3 103.485 193.578 103.144C193.866 102.792 194.207 102.504 194.602 102.28C194.996 102.045 195.412 101.928 195.85 101.928C196.106 101.928 196.276 101.965 196.362 102.04L195.994 103.88C195.834 103.763 195.572 103.704 195.21 103.704C194.772 103.704 194.335 103.843 193.898 104.12C193.471 104.387 193.146 104.765 192.922 105.256L192.17 111H190.522L191.53 103.304L190.714 102.904L190.842 102.296L192.81 101.928L193.146 102.12L193.034 103.56L192.97 104.184ZM210.769 99.112L210.225 102.984L209.297 103L209.329 100.04L206.753 99.88L205.409 110.152L207.457 110.328L207.393 111H201.681L201.729 110.328L203.665 110.152L204.993 99.88L202.449 100.04L201.553 102.984H200.593L201.233 99.112H210.769ZM215.014 101.912C216.07 101.912 216.881 102.232 217.446 102.872C218.012 103.512 218.294 104.424 218.294 105.608C218.294 106.579 218.097 107.491 217.702 108.344C217.318 109.197 216.769 109.885 216.054 110.408C215.35 110.92 214.55 111.176 213.654 111.176C212.598 111.176 211.788 110.856 211.222 110.216C210.657 109.576 210.374 108.664 210.374 107.48C210.374 106.499 210.566 105.581 210.95 104.728C211.345 103.875 211.894 103.192 212.598 102.68C213.313 102.168 214.118 101.912 215.014 101.912ZM214.79 102.792C214.236 102.792 213.761 103.027 213.366 103.496C212.972 103.955 212.673 104.541 212.47 105.256C212.278 105.96 212.182 106.68 212.182 107.416C212.182 109.357 212.764 110.328 213.926 110.328C214.47 110.328 214.934 110.093 215.318 109.624C215.702 109.155 215.99 108.563 216.182 107.848C216.374 107.133 216.47 106.408 216.47 105.672C216.47 103.752 215.91 102.792 214.79 102.792ZM224.202 101.912C225.258 101.912 226.069 102.232 226.634 102.872C227.199 103.512 227.482 104.424 227.482 105.608C227.482 106.579 227.285 107.491 226.89 108.344C226.506 109.197 225.957 109.885 225.242 110.408C224.538 110.92 223.738 111.176 222.842 111.176C221.786 111.176 220.975 110.856 220.41 110.216C219.845 109.576 219.562 108.664 219.562 107.48C219.562 106.499 219.754 105.581 220.138 104.728C220.533 103.875 221.082 103.192 221.786 102.68C222.501 102.168 223.306 101.912 224.202 101.912ZM223.978 102.792C223.423 102.792 222.949 103.027 222.554 103.496C222.159 103.955 221.861 104.541 221.658 105.256C221.466 105.96 221.37 106.68 221.37 107.416C221.37 109.357 221.951 110.328 223.114 110.328C223.658 110.328 224.122 110.093 224.506 109.624C224.89 109.155 225.178 108.563 225.37 107.848C225.562 107.133 225.658 106.408 225.658 105.672C225.658 103.752 225.098 102.792 223.978 102.792ZM230.813 109.576C230.803 109.619 230.797 109.677 230.797 109.752C230.797 110.008 230.883 110.136 231.053 110.136C231.256 110.136 231.528 109.981 231.869 109.672L232.077 110.088C231.928 110.323 231.699 110.563 231.389 110.808C231.08 111.043 230.691 111.16 230.221 111.16C229.88 111.16 229.608 111.08 229.405 110.92C229.203 110.76 229.101 110.509 229.101 110.168C229.101 110.104 229.107 110.008 229.117 109.88C229.139 109.752 229.155 109.661 229.165 109.608L230.605 99.256L229.613 98.968L229.757 98.392L232.029 98.104L232.365 98.312L230.813 109.576Z" fill="#10BAB9"/>
<defs>
<filter id="filter0_d_132:22" x="0" y="0" width="332" height="159" filterUnits="userSpaceOnUse" color-interpolation-filters="sRGB">
<feFlood flood-opacity="0" result="BackgroundImageFix"/>
<feColorMatrix in="SourceAlpha" type="matrix" values="0 0 0 0 0 0 0 0 0 0 0 0 0 0 0 0 0 0 127 0" result="hardAlpha"/>
<feOffset dy="4"/>
<feGaussianBlur stdDeviation="13"/>
<feComposite in2="hardAlpha" operator="out"/>
<feColorMatrix type="matrix" values="0 0 0 0 0.5625 0 0 0 0 0.5625 0 0 0 0 0.5625 0 0 0 0.25 0"/>
<feBlend mode="normal" in2="BackgroundImageFix" result="effect1_dropShadow_132:22"/>
<feBlend mode="normal" in="SourceGraphic" in2="effect1_dropShadow_132:22" result="shape"/>
</filter>
</defs>
</svg>
