<svg width="56" height="50" viewBox="0 0 56 50" fill="none" xmlns="http://www.w3.org/2000/svg">
<path d="M0 9.98464V40.0154C0 42.7803 1.15207 45.2381 2.99539 47.1582C4.83871 49.0015 7.21966 50 9.98464 50H25.0384V43.7788H9.98464C7.91091 43.7788 6.298 42.0891 6.298 40.0154V9.98464C6.298 7.91091 7.91091 6.298 9.98464 6.298H25.0384V0H9.98464C7.21966 0 4.83871 1.07527 2.99539 2.91859C1.15207 4.83871 0 7.21966 0 9.98464ZM16.5131 19.0476V31.0292C16.5131 32.4117 17.7419 33.5637 19.1244 33.5637H33.0261V43.0107C33.0261 43.8556 33.4869 44.5468 34.255 44.9309C34.5622 45.0077 34.8694 45.0077 35.023 45.0077C35.5607 45.0077 36.0215 44.8541 36.4055 44.47L54.4547 26.4209C55.2995 25.7296 55.2227 24.3472 54.4547 23.5791L36.4055 5.60676C35.3303 4.45468 33.0261 5.14593 33.0261 6.98925V16.5131H19.1244C17.7419 16.5131 16.5131 17.6651 16.5131 19.0476Z" fill="#2673AB"/>
</svg>
