<svg width="35" height="29" viewBox="0 0 35 29" fill="none" xmlns="http://www.w3.org/2000/svg">
<path d="M3.85 28.4594H31.15C33.6451 25.3519 35.0034 21.4852 35 17.5C35 7.85312 27.1687 0 17.5 0C7.83125 0 0 7.85312 0 17.5C0 21.6562 1.44375 25.4406 3.85 28.4594ZM15.3125 4.375C15.3125 3.17187 16.2969 2.1875 17.5 2.1875C18.7031 2.1875 19.6875 3.17187 19.6875 4.375C19.6875 5.6 18.7031 6.5625 17.5 6.5625C16.2969 6.5625 15.3125 5.6 15.3125 4.375ZM4.375 8.75C4.375 7.54687 5.35937 6.5625 6.5625 6.5625C7.76562 6.5625 8.75 7.54687 8.75 8.75C8.75 9.975 7.76562 10.9375 6.5625 10.9375C5.35937 10.9375 4.375 9.975 4.375 8.75ZM14.2625 16.1875C16.1 14.3719 28.5031 8.53125 28.5031 8.53125C28.5031 8.53125 22.6844 20.9562 20.8687 22.7719C19.0312 24.6094 16.1 24.6094 14.2625 22.7719C13.3902 21.8983 12.9003 20.7142 12.9003 19.4797C12.9003 18.2452 13.3902 17.0611 14.2625 16.1875ZM2.1875 19.6875C2.1875 18.4844 3.17187 17.5 4.375 17.5C5.57812 17.5 6.5625 18.4844 6.5625 19.6875C6.5625 20.9125 5.57812 21.875 4.375 21.875C3.17187 21.875 2.1875 20.9125 2.1875 19.6875ZM15.3125 19.6875C15.3125 18.4844 16.2969 17.5 17.5 17.5C18.7031 17.5 19.6875 18.4844 19.6875 19.6875C19.6875 20.9125 18.7031 21.875 17.5 21.875C16.2969 21.875 15.3125 20.9125 15.3125 19.6875ZM28.4375 19.6875C28.4375 18.4844 29.4219 17.5 30.625 17.5C31.8281 17.5 32.8125 18.4844 32.8125 19.6875C32.8125 20.9125 31.8281 21.875 30.625 21.875C29.4219 21.875 28.4375 20.9125 28.4375 19.6875Z" fill="#333333"/>
</svg>
