<svg width="35" height="36" viewBox="0 0 35 36" fill="none" xmlns="http://www.w3.org/2000/svg">
<path d="M19.4838 17.4992L18.8236 7.09849C18.8236 6.74825 18.6844 6.41236 18.4368 6.16471C18.1891 5.91706 17.8532 5.77793 17.503 5.77793C17.1528 5.77793 16.8169 5.91706 16.5692 6.16471C16.3216 6.41236 16.1824 6.74825 16.1824 7.09849L15.5684 16.7954L11.6014 19.3837C11.2981 19.559 11.0769 19.8476 10.9863 20.186C10.8958 20.5244 10.9435 20.8849 11.1187 21.1882C11.294 21.4915 11.5826 21.7128 11.9211 21.8033C12.2595 21.8938 12.62 21.8462 12.9233 21.6709L17.2891 19.455C17.3604 19.4656 17.4317 19.4788 17.507 19.4788C18.603 19.4788 19.4878 18.594 19.4878 17.4979L19.4838 17.4992ZM22.0457 25.3632C21.8194 25.4932 21.6367 25.6875 21.5209 25.9214C21.405 26.1552 21.3611 26.4183 21.3947 26.6771C21.4283 26.9359 21.538 27.179 21.7098 27.3755C21.8817 27.572 22.1079 27.7131 22.3599 27.781C22.612 27.8488 22.8785 27.8404 23.1258 27.7567C23.373 27.6731 23.5899 27.518 23.7489 27.311C23.908 27.104 24.0021 26.8545 24.0193 26.5941C24.0365 26.3336 23.9761 26.0739 23.8457 25.8478C23.6708 25.5447 23.3827 25.3233 23.0447 25.2325C22.7067 25.1416 22.3464 25.1886 22.0431 25.3632H22.0457ZM23.3637 7.34808C23.0598 7.17348 22.6991 7.12674 22.3608 7.21812C22.0225 7.30951 21.7344 7.53154 21.5598 7.83536C21.3852 8.13919 21.3384 8.49993 21.4298 8.83823C21.5212 9.17652 21.7432 9.46466 22.0471 9.63925C22.3511 9.81384 22.712 9.86052 23.0504 9.76901C23.3888 9.6775 23.677 9.45531 23.8516 9.15131C24.0262 8.8473 24.0729 8.48639 23.9814 8.14797C23.8899 7.80955 23.6677 7.52135 23.3637 7.34676V7.34808ZM25.8529 23.8445C26.0033 23.9311 26.1692 23.9872 26.3412 24.0096C26.5133 24.032 26.688 24.0203 26.8555 23.9752C27.023 23.93 27.18 23.8524 27.3175 23.7466C27.455 23.6408 27.5703 23.5089 27.6568 23.3586C27.7433 23.2082 27.7994 23.0423 27.8218 22.8703C27.8442 22.6982 27.8326 22.5235 27.7874 22.356C27.7423 22.1885 27.6646 22.0315 27.5588 21.894C27.453 21.7565 27.3212 21.6412 27.1708 21.5547C26.8672 21.3799 26.5065 21.3329 26.1683 21.4241C25.83 21.5152 25.5417 21.737 25.367 22.0407C25.1922 22.3443 25.1452 22.705 25.2363 23.0432C25.3275 23.3815 25.5493 23.6698 25.8529 23.8445ZM27.1735 13.4425C27.3238 13.3557 27.4555 13.2401 27.5611 13.1024C27.6667 12.9647 27.7441 12.8076 27.789 12.64C27.8339 12.4723 27.8453 12.2975 27.8226 12.1255C27.8 11.9534 27.7436 11.7875 27.6568 11.6373C27.57 11.487 27.4545 11.3553 27.3168 11.2497C27.1791 11.1441 27.0219 11.0666 26.8543 11.0217C26.6867 10.9768 26.5118 10.9654 26.3398 10.9881C26.1678 11.0108 26.0019 11.0671 25.8516 11.1539C25.5481 11.3291 25.3266 11.6176 25.2359 11.956C25.1451 12.2944 25.1925 12.655 25.3676 12.9585C25.5427 13.262 25.8312 13.4834 26.1697 13.5742C26.5081 13.665 26.8687 13.6176 27.1722 13.4425H27.1735ZM29.227 17.4992C29.227 16.7729 28.6353 16.1787 27.9064 16.1787C27.6452 16.1787 27.3899 16.2561 27.1727 16.4012C26.9556 16.5463 26.7863 16.7526 26.6864 16.9939C26.5864 17.2352 26.5603 17.5007 26.6112 17.7569C26.6622 18.013 26.7879 18.2483 26.9726 18.433C27.1573 18.6177 27.3926 18.7435 27.6488 18.7944C27.9049 18.8454 28.1705 18.8192 28.4118 18.7193C28.6531 18.6193 28.8593 18.4501 29.0044 18.2329C29.1495 18.0157 29.227 17.7604 29.227 17.4992ZM9.64037 12.9591C9.73592 12.8088 9.80008 12.6408 9.82898 12.465C9.85789 12.2893 9.85095 12.1095 9.80858 11.9365C9.7662 11.7635 9.68928 11.6009 9.58242 11.4584C9.47557 11.3159 9.34099 11.1965 9.1868 11.1074C9.0326 11.0183 8.86197 10.9612 8.68517 10.9398C8.50836 10.9183 8.32904 10.9328 8.15799 10.9824C7.98694 11.0321 7.8277 11.1158 7.68984 11.2285C7.55198 11.3413 7.43836 11.4808 7.3558 11.6386C7.20161 11.9399 7.16902 12.2889 7.26475 12.6136C7.36048 12.9383 7.57723 13.2138 7.87024 13.3833C8.16325 13.5527 8.51015 13.6032 8.83931 13.5243C9.16847 13.4454 9.45475 13.2431 9.63905 12.9591H9.64037ZM5.78169 17.4992C5.78204 17.8498 5.92165 18.1859 6.1698 18.4336C6.41794 18.6812 6.75431 18.8202 7.10489 18.8198C7.45548 18.8195 7.79157 18.6798 8.03922 18.4317C8.28687 18.1835 8.42581 17.8472 8.42546 17.4966C8.42511 17.146 8.2855 16.8099 8.03735 16.5623C7.7892 16.3146 7.45284 16.1757 7.10225 16.176C6.75167 16.1764 6.41558 16.316 6.16793 16.5641C5.92027 16.8123 5.78134 17.1487 5.78169 17.4992ZM9.15573 23.8445C9.5062 23.8442 9.84219 23.7047 10.0898 23.4567C10.3375 23.2087 10.4765 22.8725 10.4763 22.522C10.4761 22.1715 10.3368 21.8355 10.0889 21.5877C9.841 21.34 9.50488 21.2008 9.15441 21.2008C8.80394 21.2008 8.46781 21.34 8.21993 21.5877C7.97205 21.8355 7.8327 22.1715 7.83252 22.522C7.83235 22.8725 7.97136 23.2087 8.21899 23.4567C8.46663 23.7047 8.80262 23.8442 9.15309 23.8445H9.15573ZM12.9616 9.63529C13.1119 9.54871 13.2437 9.43333 13.3493 9.29576C13.455 9.15819 13.5325 9.00114 13.5774 8.83359C13.6223 8.66603 13.6337 8.49127 13.6109 8.3193C13.5882 8.14734 13.5318 7.98154 13.4449 7.8314C13.3146 7.6053 13.1202 7.42293 12.8862 7.30736C12.6522 7.19179 12.3892 7.1482 12.1305 7.18213C11.8717 7.21605 11.6288 7.32595 11.4325 7.49792C11.2363 7.6699 11.0954 7.89623 11.0278 8.14828C10.9601 8.40033 10.9688 8.66677 11.0526 8.91391C11.1364 9.16105 11.2916 9.37777 11.4987 9.53667C11.7057 9.69557 11.9552 9.7895 12.2156 9.80659C12.476 9.82367 12.7356 9.76314 12.9616 9.63265V9.63529ZM16.1838 27.9013C16.1756 28.0795 16.2036 28.2575 16.2662 28.4246C16.3287 28.5917 16.4245 28.7443 16.5476 28.8734C16.6708 29.0024 16.8188 29.1052 16.9828 29.1755C17.1467 29.2457 17.3232 29.282 17.5016 29.2822C17.68 29.2824 17.8566 29.2464 18.0207 29.1765C18.1848 29.1066 18.333 29.0041 18.4565 28.8753C18.5799 28.7465 18.6759 28.594 18.7388 28.4271C18.8016 28.2601 18.83 28.0822 18.8222 27.904C18.8074 27.5643 18.6621 27.2434 18.4166 27.0082C18.1711 26.7729 17.8443 26.6414 17.5043 26.6411C17.1643 26.6408 16.8372 26.7716 16.5912 27.0063C16.3453 27.2411 16.1993 27.5617 16.1838 27.9013ZM11.1577 25.8478C10.7945 26.4817 11.0124 27.2873 11.641 27.6504C11.8672 27.7812 12.1271 27.8419 12.3878 27.8249C12.6485 27.8079 12.8983 27.7139 13.1056 27.5549C13.3129 27.3959 13.4684 27.179 13.5524 26.9316C13.6364 26.6842 13.6451 26.4175 13.5774 26.1651C13.5098 25.9128 13.3688 25.6862 13.1723 25.514C12.9758 25.3418 12.7326 25.2317 12.4736 25.1978C12.2146 25.1638 11.9513 25.2074 11.717 25.3232C11.4828 25.4389 11.2881 25.6215 11.1577 25.8478ZM34.8988 15.6333L30.5805 14.0671C30.9635 15.5276 31.122 17.0714 30.9899 18.6627C30.3389 26.108 23.7928 31.6147 16.3422 30.9861C12.7673 30.6748 9.46185 28.958 7.15124 26.2124C4.84063 23.4668 3.71359 19.9167 4.01742 16.3411C4.66846 8.89314 11.2118 3.38375 18.6598 4.01366C21.7353 4.28338 24.624 5.60458 26.8394 7.75481L24.6776 9.57323L33.9612 12.938L32.2339 3.21339L29.8965 5.18499C27.0784 2.34578 23.2976 0.43493 19.0018 0.0651728C9.37494 -0.761499 0.896929 6.37218 0.0649749 16.0017C-0.760377 25.6286 6.3733 34.1066 15.9989 34.9386C25.6297 35.7626 34.1078 28.6303 34.9384 19.0034C35.0361 17.8598 35.0137 16.7346 34.8988 15.6359V15.6333Z" fill="#333333"/>
</svg>
