<svg width="35" height="38" viewBox="0 0 35 38" fill="none" xmlns="http://www.w3.org/2000/svg">
<path d="M20.005 0.960518C19.3167 0.342103 18.4241 0 17.4988 0C16.5734 0 15.6808 0.342103 14.9925 0.960518L1.2425 13.3155C0.851557 13.6671 0.538911 14.0969 0.324855 14.5772C0.1108 15.0574 0.000120395 15.5773 0 16.103V33.7405C0 34.7351 0.395088 35.6889 1.09835 36.3922C1.80161 37.0954 2.75544 37.4905 3.75 37.4905H8.75C9.74456 37.4905 10.6984 37.0954 11.4017 36.3922C12.1049 35.6889 12.5 34.7351 12.5 33.7405V23.7405C12.5 23.409 12.6317 23.0911 12.8661 22.8566C13.1005 22.6222 13.4185 22.4905 13.75 22.4905H21.25C21.5815 22.4905 21.8995 22.6222 22.1339 22.8566C22.3683 23.0911 22.5 23.409 22.5 23.7405V33.7405C22.5 34.7351 22.8951 35.6889 23.5983 36.3922C24.3016 37.0954 25.2554 37.4905 26.25 37.4905H31.25C32.2446 37.4905 33.1984 37.0954 33.9016 36.3922C34.6049 35.6889 35 34.7351 35 33.7405V16.103C34.9999 15.5773 34.8892 15.0574 34.6751 14.5772C34.4611 14.0969 34.1484 13.6671 33.7575 13.3155L20.0075 0.960518H20.005Z" fill="#333333"/>
</svg>
