<svg width="35" height="35" viewBox="0 0 35 35" fill="none" xmlns="http://www.w3.org/2000/svg">
<g clip-path="url(#clip0_255_85)">
<path fill-rule="evenodd" clip-rule="evenodd" d="M0 3.5C0 3.19058 0.122916 2.89384 0.341709 2.67504C0.560501 2.45625 0.857247 2.33333 1.16667 2.33333H5.83333C6.14275 2.33333 6.4395 2.45625 6.65829 2.67504C6.87708 2.89384 7 3.19058 7 3.5C7 3.80942 6.87708 4.10617 6.65829 4.32496C6.4395 4.54375 6.14275 4.66667 5.83333 4.66667H1.16667C0.857247 4.66667 0.560501 4.54375 0.341709 4.32496C0.122916 4.10617 0 3.80942 0 3.5ZM9.33333 3.5C9.33333 3.19058 9.45625 2.89384 9.67504 2.67504C9.89383 2.45625 10.1906 2.33333 10.5 2.33333H33.8333C34.1428 2.33333 34.4395 2.45625 34.6583 2.67504C34.8771 2.89384 35 3.19058 35 3.5C35 3.80942 34.8771 4.10617 34.6583 4.32496C34.4395 4.54375 34.1428 4.66667 33.8333 4.66667H10.5C10.1906 4.66667 9.89383 4.54375 9.67504 4.32496C9.45625 4.10617 9.33333 3.80942 9.33333 3.5ZM9.33333 10.5C9.33333 10.1906 9.45625 9.89383 9.67504 9.67504C9.89383 9.45625 10.1906 9.33333 10.5 9.33333H26.8333C27.1428 9.33333 27.4395 9.45625 27.6583 9.67504C27.8771 9.89383 28 10.1906 28 10.5C28 10.8094 27.8771 11.1062 27.6583 11.325C27.4395 11.5437 27.1428 11.6667 26.8333 11.6667H10.5C10.1906 11.6667 9.89383 11.5437 9.67504 11.325C9.45625 11.1062 9.33333 10.8094 9.33333 10.5ZM0 17.5C0 17.1906 0.122916 16.8938 0.341709 16.675C0.560501 16.4562 0.857247 16.3333 1.16667 16.3333H5.83333C6.14275 16.3333 6.4395 16.4562 6.65829 16.675C6.87708 16.8938 7 17.1906 7 17.5C7 17.8094 6.87708 18.1062 6.65829 18.325C6.4395 18.5437 6.14275 18.6667 5.83333 18.6667H1.16667C0.857247 18.6667 0.560501 18.5437 0.341709 18.325C0.122916 18.1062 0 17.8094 0 17.5ZM9.33333 17.5C9.33333 17.1906 9.45625 16.8938 9.67504 16.675C9.89383 16.4562 10.1906 16.3333 10.5 16.3333H33.8333C34.1428 16.3333 34.4395 16.4562 34.6583 16.675C34.8771 16.8938 35 17.1906 35 17.5C35 17.8094 34.8771 18.1062 34.6583 18.325C34.4395 18.5437 34.1428 18.6667 33.8333 18.6667H10.5C10.1906 18.6667 9.89383 18.5437 9.67504 18.325C9.45625 18.1062 9.33333 17.8094 9.33333 17.5ZM9.33333 24.5C9.33333 24.1906 9.45625 23.8938 9.67504 23.675C9.89383 23.4562 10.1906 23.3333 10.5 23.3333H26.8333C27.1428 23.3333 27.4395 23.4562 27.6583 23.675C27.8771 23.8938 28 24.1906 28 24.5C28 24.8094 27.8771 25.1062 27.6583 25.325C27.4395 25.5437 27.1428 25.6667 26.8333 25.6667H10.5C10.1906 25.6667 9.89383 25.5437 9.67504 25.325C9.45625 25.1062 9.33333 24.8094 9.33333 24.5ZM0 31.5C0 31.1906 0.122916 30.8938 0.341709 30.675C0.560501 30.4562 0.857247 30.3333 1.16667 30.3333H5.83333C6.14275 30.3333 6.4395 30.4562 6.65829 30.675C6.87708 30.8938 7 31.1906 7 31.5C7 31.8094 6.87708 32.1062 6.65829 32.325C6.4395 32.5437 6.14275 32.6667 5.83333 32.6667H1.16667C0.857247 32.6667 0.560501 32.5437 0.341709 32.325C0.122916 32.1062 0 31.8094 0 31.5ZM9.33333 31.5C9.33333 31.1906 9.45625 30.8938 9.67504 30.675C9.89383 30.4562 10.1906 30.3333 10.5 30.3333H33.8333C34.1428 30.3333 34.4395 30.4562 34.6583 30.675C34.8771 30.8938 35 31.1906 35 31.5C35 31.8094 34.8771 32.1062 34.6583 32.325C34.4395 32.5437 34.1428 32.6667 33.8333 32.6667H10.5C10.1906 32.6667 9.89383 32.5437 9.67504 32.325C9.45625 32.1062 9.33333 31.8094 9.33333 31.5Z" fill="#333333"/>
</g>
<defs>
<clipPath id="clip0_255_85">
<rect width="35" height="35" fill="#333333"/>
</clipPath>
</defs>
</svg>
