<svg width="35" height="37" viewBox="0 0 35 37" fill="none" xmlns="http://www.w3.org/2000/svg">
<path d="M17.5 0L9.54545 4.625L17.5 9.25V6.16667C25.383 6.16667 31.8182 12.4027 31.8182 20.0417C31.8182 27.6806 25.383 33.9167 17.5 33.9167C9.61705 33.9167 3.18182 27.6806 3.18182 20.0417C3.18182 16.26 4.58659 12.9962 7.15909 10.5018L4.92227 8.33579C1.76591 11.3929 0 15.4984 0 20.0417C0 29.361 7.88295 37 17.5 37C27.117 37 35 29.361 35 20.0417C35 10.7223 27.117 3.08333 17.5 3.08333V0ZM14.1686 10.118L11.2859 11.4669L15.3125 19.1752C15.1906 19.4494 15.1231 19.7433 15.1136 20.0417V20.1388L9.9925 25.0983L12.2818 27.3183L17.403 22.3557H17.5C18.1329 22.3557 18.7399 22.1121 19.1874 21.6784C19.6349 21.2447 19.8864 20.6565 19.8864 20.0432C19.8864 18.9795 19.1561 18.0961 18.1459 17.8263L14.1686 10.118V10.118Z" fill="#333333"/>
</svg>
