<svg width="62" height="70" viewBox="0 0 62 70" fill="none" xmlns="http://www.w3.org/2000/svg">
<path d="M30.5833 6C33.0041 5.9998 35.3332 6.92575 37.0931 8.58798C38.8529 10.2502 39.9101 12.5228 40.0479 14.9396L40.0625 15.4792L40.0654 38.6725L40.2988 38.8738C43.0168 41.297 44.7277 44.6512 45.0938 48.2742L45.1492 49.0092L45.1667 49.75C45.1671 52.1528 44.5738 54.5185 43.4396 56.6367C42.3053 58.7549 40.6653 60.5601 38.6652 61.8917C36.6651 63.2233 34.367 64.04 31.9752 64.2693C29.5834 64.4987 27.1719 64.1335 24.9553 63.2062C22.7386 62.2789 20.7854 60.8182 19.2694 58.9541C17.7533 57.09 16.7213 54.8801 16.2652 52.521C15.8091 50.1619 15.9429 47.7267 16.6548 45.4318C17.3667 43.1369 18.6346 41.0534 20.3458 39.3667L20.8708 38.8708L21.1013 38.6725L21.1042 15.4792C21.1037 13.1496 21.961 10.9015 23.5125 9.16384C25.0641 7.42617 27.2011 6.32067 29.5158 6.05833L30.0467 6.01458L30.5833 6ZM30.5833 10.375C29.3019 10.3751 28.0674 10.8572 27.125 11.7256C26.1827 12.5939 25.6014 13.7849 25.4967 15.0621L25.4792 15.4792V40.8367L24.5779 41.4929C22.856 42.7454 21.5688 44.505 20.8966 46.5254C20.2244 48.5457 20.2007 50.7257 20.8289 52.7602C21.4571 54.7947 22.7058 56.5818 24.4001 57.8714C26.0944 59.1609 28.1496 59.8885 30.2779 59.9521C32.4062 60.0157 34.5011 59.4122 36.2694 58.2261C38.0377 57.04 39.3909 55.3306 40.1395 53.3373C40.888 51.344 40.9946 49.1664 40.4442 47.1096C39.8938 45.0527 38.714 43.2193 37.07 41.8663L36.5888 41.4958L35.6933 40.8396L35.6875 15.4792C35.6875 14.1255 35.1497 12.8272 34.1925 11.87C33.2353 10.9128 31.937 10.375 30.5833 10.375V10.375ZM30.5833 23.5C31.1635 23.5 31.7199 23.7305 32.1301 24.1407C32.5404 24.5509 32.7708 25.1073 32.7708 25.6875V42.7938C34.4335 43.3164 35.8541 44.4171 36.7754 45.8966C37.6967 47.376 38.0579 49.1365 37.7935 50.8592C37.5291 52.5819 36.6567 54.153 35.3341 55.2881C34.0115 56.4232 32.3262 57.0472 30.5833 57.0472C28.8405 57.0472 27.1552 56.4232 25.8326 55.2881C24.51 54.153 23.6376 52.5819 23.3732 50.8592C23.1088 49.1365 23.4699 47.376 24.3913 45.8966C25.3126 44.4171 26.7332 43.3164 28.3958 42.7938V25.6875C28.3958 25.1073 28.6263 24.5509 29.0365 24.1407C29.4468 23.7305 30.0032 23.5 30.5833 23.5V23.5Z" fill="#333333"/>
</svg>
