<svg width="59" height="59" viewBox="0 0 59 59" fill="none" xmlns="http://www.w3.org/2000/svg">
<path d="M57.766 23.4544H55.4167V23.3333H29.1667V35H45.6502C43.2454 41.7915 36.7835 46.6667 29.1667 46.6667C19.5023 46.6667 11.6667 38.831 11.6667 29.1667C11.6667 19.5023 19.5023 11.6667 29.1667 11.6667C33.6277 11.6667 37.6863 13.3496 40.7765 16.0985L49.0263 7.84875C43.8171 2.99396 36.8492 0 29.1667 0C13.0594 0 0 13.0594 0 29.1667C0 45.274 13.0594 58.3333 29.1667 58.3333C45.274 58.3333 58.3333 45.274 58.3333 29.1667C58.3333 27.211 58.1321 25.3021 57.766 23.4544Z" fill="#FFC107"/>
<path d="M3.36304 15.591L12.9457 22.6188C15.5387 16.1992 21.8182 11.6667 29.1668 11.6667C33.6278 11.6667 37.6864 13.3496 40.7766 16.0985L49.0264 7.84875C43.8172 2.99396 36.8493 0 29.1668 0C17.9639 0 8.24845 6.32479 3.36304 15.591Z" fill="#FF3D00"/>
<path d="M29.1668 58.3333C36.7005 58.3333 43.546 55.4502 48.7216 50.7616L39.6945 43.1229C36.6678 45.4247 32.9693 46.6697 29.1668 46.6667C21.5805 46.6667 15.1391 41.8294 12.7124 35.0787L3.20117 42.4069C8.02826 51.8525 17.8312 58.3333 29.1668 58.3333Z" fill="#4CAF50"/>
<path d="M57.7661 23.4544H55.4167V23.3333H29.1667V35H45.6503C44.5 38.2323 42.4279 41.0567 39.6901 43.1244L39.6945 43.1214L48.7215 50.7602C48.0828 51.3406 58.3334 43.75 58.3334 29.1666C58.3334 27.211 58.1322 25.3021 57.7661 23.4544Z" fill="#1976D2"/>
</svg>
