<svg width="35" height="27" viewBox="0 0 35 27" fill="none" xmlns="http://www.w3.org/2000/svg">
<path d="M32.8125 4.375H30.625V1.09375C30.625 0.489453 30.1355 0 29.5312 0H22.9688C22.3645 0 21.875 0.489453 21.875 1.09375V4.375H13.125V1.09375C13.125 0.489453 12.6355 0 12.0312 0H5.46875C4.86445 0 4.375 0.489453 4.375 1.09375V4.375H2.1875C0.97959 4.375 0 5.35459 0 6.5625V24.0625C0 25.2704 0.97959 26.25 2.1875 26.25H32.8125C34.0204 26.25 35 25.2704 35 24.0625V6.5625C35 5.35459 34.0204 4.375 32.8125 4.375ZM13.125 13.6719C13.125 13.974 12.8803 14.2188 12.5781 14.2188H4.92188C4.61973 14.2188 4.375 13.974 4.375 13.6719V12.5781C4.375 12.276 4.61973 12.0312 4.92188 12.0312H12.5781C12.8803 12.0312 13.125 12.276 13.125 12.5781V13.6719ZM30.625 13.6719C30.625 13.974 30.3803 14.2188 30.0781 14.2188H27.3438V16.9531C27.3438 17.2553 27.099 17.5 26.7969 17.5H25.7031C25.401 17.5 25.1562 17.2553 25.1562 16.9531V14.2188H22.4219C22.1197 14.2188 21.875 13.974 21.875 13.6719V12.5781C21.875 12.276 22.1197 12.0312 22.4219 12.0312H25.1562V9.29688C25.1562 8.99473 25.401 8.75 25.7031 8.75H26.7969C27.099 8.75 27.3438 8.99473 27.3438 9.29688V12.0312H30.0781C30.3803 12.0312 30.625 12.276 30.625 12.5781V13.6719Z" fill="#10BAB9"/>
</svg>
