<svg width="87" height="87" viewBox="0 0 87 87" fill="none" xmlns="http://www.w3.org/2000/svg">
<path d="M12.4596 0.0416603C9.16653 0.0416603 6.0083 1.34984 3.67973 3.67842C1.35115 6.00699 0.0429688 9.16522 0.0429688 12.4583V74.5417C0.0429688 77.8348 1.35115 80.993 3.67973 83.3216C6.0083 85.6501 9.16653 86.9583 12.4596 86.9583H74.543C77.8361 86.9583 80.9943 85.6501 83.3229 83.3216C85.6515 80.993 86.9596 77.8348 86.9596 74.5417V12.4583C86.9596 9.16522 85.6515 6.00699 83.3229 3.67842C80.9943 1.34984 77.8361 0.0416603 74.543 0.0416603H12.4596ZM37.293 64.6952L20.487 47.8893L29.2656 39.1107L37.293 47.1381L60.8412 23.5899L69.6198 32.3685L37.293 64.6952Z" fill="#10BAB9"/>
</svg>
