<svg width="87" height="30" viewBox="0 0 87 30" fill="none" xmlns="http://www.w3.org/2000/svg">
<path d="M14.709 7.699L12.987 7.447V6.397H23.676L23.97 9.652H22.773L22.164 7.615L16.956 7.489V13.411L20.463 13.348L20.757 11.605H21.912V16.435H20.757L20.463 14.629L16.956 14.566V20.824L22.878 20.614L23.991 17.968L25.23 18.346L24.621 22H12.966V20.971L14.709 20.761V7.699ZM31.1597 22.231C30.3197 22.231 29.5497 22.021 28.8497 21.601C28.1497 21.181 27.5897 20.537 27.1697 19.669C26.7637 18.801 26.5607 17.73 26.5607 16.456C26.5607 15.266 26.8057 14.181 27.2957 13.201C27.7857 12.221 28.4857 11.451 29.3957 10.891C30.3197 10.317 31.4047 10.03 32.6507 10.03C33.3647 10.03 34.0157 10.107 34.6037 10.261V6.334L32.4617 6.082V5.179L36.2417 4.801H36.3047L36.7667 5.137V20.929H37.9847V21.895C37.5367 21.993 37.1447 22.07 36.8087 22.126C36.4867 22.182 36.1437 22.21 35.7797 22.21C35.4157 22.21 35.1567 22.147 35.0027 22.021C34.8487 21.895 34.7717 21.629 34.7717 21.223V20.551C34.3797 21.027 33.8617 21.426 33.2177 21.748C32.5877 22.07 31.9017 22.231 31.1597 22.231ZM31.9997 20.74C32.5457 20.74 33.0567 20.621 33.5327 20.383C34.0087 20.131 34.3657 19.844 34.6037 19.522V11.836C34.4917 11.668 34.2257 11.521 33.8057 11.395C33.3997 11.255 32.9657 11.185 32.5037 11.185C31.4117 11.185 30.5367 11.605 29.8787 12.445C29.2347 13.271 28.9127 14.552 28.9127 16.288C28.9127 17.8 29.1997 18.92 29.7737 19.648C30.3477 20.376 31.0897 20.74 31.9997 20.74ZM42.1447 8.245C41.6967 8.245 41.3607 8.119 41.1367 7.867C40.9127 7.615 40.8007 7.293 40.8007 6.901C40.8007 6.453 40.9337 6.082 41.1997 5.788C41.4797 5.494 41.8577 5.347 42.3337 5.347C42.8097 5.347 43.1597 5.473 43.3837 5.725C43.6077 5.977 43.7197 6.299 43.7197 6.691C43.7197 7.167 43.5797 7.545 43.2997 7.825C43.0337 8.105 42.6557 8.245 42.1657 8.245H42.1447ZM41.3047 11.962L39.7087 11.584V10.471L42.9637 10.072H43.0057L43.4887 10.45V20.803L45.1687 20.971V22H39.6037V20.971L41.3047 20.782V11.962ZM50.2508 22.21C49.4528 22.21 48.8578 22.028 48.4658 21.664C48.0738 21.3 47.8778 20.677 47.8778 19.795V11.731H46.3658V10.786C46.4358 10.772 46.6318 10.723 46.9538 10.639C47.2758 10.555 47.4928 10.478 47.6048 10.408C47.8288 10.282 48.0038 10.03 48.1298 9.652C48.2418 9.386 48.3748 8.959 48.5288 8.371C48.6828 7.783 48.7738 7.433 48.8018 7.321H50.0408L50.0828 10.345H53.5898V11.731H50.0828V18.178C50.0828 18.976 50.1038 19.536 50.1458 19.858C50.2018 20.18 50.3068 20.39 50.4608 20.488C50.6288 20.586 50.9088 20.635 51.3008 20.635C51.6788 20.635 52.0918 20.586 52.5398 20.488C53.0018 20.39 53.3588 20.285 53.6108 20.173L53.9258 21.118C53.5898 21.37 53.0438 21.615 52.2878 21.853C51.5458 22.091 50.8668 22.21 50.2508 22.21Z" fill="#10BAB9"/>
<path d="M58.8677 22.0067C58.7463 22.0065 58.6263 21.981 58.5153 21.9319C58.4043 21.8828 58.3047 21.8111 58.2229 21.7214C58.1396 21.6325 58.076 21.527 58.0363 21.4118C57.9967 21.2966 57.9818 21.1743 57.9927 21.0529L58.2071 18.6957L68.1104 8.79595L71.2052 11.8899L61.3046 21.7888L58.9474 22.0032C58.9209 22.0056 58.8943 22.0068 58.8677 22.0067ZM71.823 11.2713L68.729 8.17732L70.5849 6.32145C70.6661 6.24009 70.7626 6.17555 70.8689 6.13152C70.9751 6.08748 71.0889 6.06482 71.2039 6.06482C71.3189 6.06482 71.4328 6.08748 71.539 6.13152C71.6452 6.17555 71.7417 6.24009 71.823 6.32145L73.6789 8.17732C73.7602 8.25858 73.8248 8.35509 73.8688 8.46131C73.9128 8.56753 73.9355 8.68139 73.9355 8.79638C73.9355 8.91137 73.9128 9.02523 73.8688 9.13146C73.8248 9.23768 73.7602 9.33418 73.6789 9.41545L71.8239 11.2704L71.823 11.2713Z" fill="#10BAB9"/>
<rect x="1" y="1" width="85" height="28" rx="3" stroke="#10BAB9" stroke-width="2"/>
</svg>
