<svg width="660" height="160" viewBox="0 0 660 160" fill="none" xmlns="http://www.w3.org/2000/svg">
<path d="M196.178 14.367L192.031 14.512L190.9 20.834H188.464L188.957 12.453H207.662L208.01 20.834H205.719L204.588 14.512L200.499 14.367V31.97L204.559 32.26V34H192.466V32.26L196.178 31.97V14.367ZM211.314 12.801L209.11 12.424V10.858L214.504 10.22H214.591L215.345 10.771L215.374 17.238L215.171 19.761C215.77 19.2197 216.582 18.717 217.607 18.253C218.651 17.789 219.743 17.557 220.884 17.557C222.102 17.557 223.049 17.789 223.726 18.253C224.402 18.6977 224.876 19.384 225.147 20.312C225.417 21.24 225.553 22.4773 225.553 24.024V31.999L227.409 32.26V34H219.782V32.26L221.464 31.999V24.024C221.464 23.0187 221.396 22.2357 221.261 21.675C221.125 21.1143 220.874 20.6987 220.507 20.428C220.159 20.1573 219.637 20.022 218.941 20.022C218.341 20.022 217.723 20.167 217.085 20.457C216.466 20.7277 215.915 21.0563 215.432 21.443V31.999L217.201 32.26V34H209.69V32.26L211.314 32.028V12.801ZM236.686 34.319C234.134 34.319 232.23 33.5747 230.973 32.086C229.736 30.578 229.117 28.5287 229.117 25.938C229.117 24.198 229.436 22.69 230.074 21.414C230.732 20.138 231.65 19.1617 232.829 18.485C234.009 17.8083 235.372 17.47 236.918 17.47C238.852 17.47 240.34 17.9823 241.384 19.007C242.428 20.0123 242.97 21.4527 243.008 23.328C243.008 24.604 242.931 25.5513 242.776 26.17H233.351C233.429 27.9293 233.844 29.302 234.598 30.288C235.352 31.2547 236.425 31.738 237.817 31.738C238.571 31.738 239.345 31.6123 240.137 31.361C240.949 31.1097 241.587 30.81 242.051 30.462L242.776 32.057C242.254 32.6177 241.404 33.1397 240.224 33.623C239.064 34.087 237.885 34.319 236.686 34.319ZM238.948 24.43C238.987 23.8887 239.006 23.473 239.006 23.183C239.006 20.6117 238.146 19.326 236.425 19.326C235.478 19.326 234.743 19.703 234.221 20.457C233.699 21.211 233.409 22.5353 233.351 24.43H238.948ZM245.323 32.289L247.237 32.057V20.631L245.381 20.109V18.108L249.876 17.499H249.963L250.688 18.079V18.717L250.601 21.066H250.688C250.823 20.6793 251.142 20.2057 251.645 19.645C252.147 19.065 252.776 18.5623 253.53 18.137C254.303 17.6923 255.134 17.47 256.024 17.47C256.449 17.47 256.816 17.528 257.126 17.644V21.994C256.546 21.588 255.84 21.385 255.009 21.385C253.597 21.385 252.37 21.762 251.326 22.516V32.028L254.69 32.289V34H245.323V32.289ZM266.281 34.319C263.729 34.319 261.825 33.5747 260.568 32.086C259.331 30.578 258.712 28.5287 258.712 25.938C258.712 24.198 259.031 22.69 259.669 21.414C260.326 20.138 261.245 19.1617 262.424 18.485C263.603 17.8083 264.966 17.47 266.513 17.47C268.446 17.47 269.935 17.9823 270.979 19.007C272.023 20.0123 272.564 21.4527 272.603 23.328C272.603 24.604 272.526 25.5513 272.371 26.17H262.946C263.023 27.9293 263.439 29.302 264.193 30.288C264.947 31.2547 266.02 31.738 267.412 31.738C268.166 31.738 268.939 31.6123 269.732 31.361C270.544 31.1097 271.182 30.81 271.646 30.462L272.371 32.057C271.849 32.6177 270.998 33.1397 269.819 33.623C268.659 34.087 267.48 34.319 266.281 34.319ZM268.543 24.43C268.582 23.8887 268.601 23.473 268.601 23.183C268.601 20.6117 267.741 19.326 266.02 19.326C265.073 19.326 264.338 19.703 263.816 20.457C263.294 21.211 263.004 22.5353 262.946 24.43H268.543ZM285.25 15.237C284.554 15.237 284.003 15.034 283.597 14.628C283.191 14.222 282.988 13.7 282.988 13.062C282.988 12.3273 283.22 11.7183 283.684 11.235C284.148 10.7517 284.767 10.51 285.54 10.51C286.313 10.51 286.903 10.7227 287.309 11.148C287.715 11.554 287.918 12.0663 287.918 12.685C287.918 13.4583 287.686 14.077 287.222 14.541C286.758 15.005 286.11 15.237 285.279 15.237H285.25ZM283.713 20.631L281.654 20.08V18.137L286.961 17.499H287.019L287.831 18.079V32.028L289.774 32.26V34H281.683V32.26L283.713 31.999V20.631ZM295.072 31.622C295.227 31.854 295.575 32.0763 296.116 32.289C296.677 32.4823 297.237 32.579 297.798 32.579C298.707 32.579 299.383 32.3953 299.828 32.028C300.292 31.6413 300.524 31.1387 300.524 30.52C300.524 29.882 300.244 29.3697 299.683 28.983C299.122 28.577 298.175 28.084 296.841 27.504L296.029 27.156C294.695 26.5953 293.699 25.9187 293.042 25.126C292.385 24.3333 292.056 23.3087 292.056 22.052C292.056 21.182 292.317 20.4087 292.839 19.732C293.361 19.036 294.096 18.4947 295.043 18.108C295.99 17.7213 297.083 17.528 298.32 17.528C299.229 17.528 300.002 17.586 300.64 17.702C301.297 17.818 301.984 17.9727 302.699 18.166C303.086 18.3013 303.376 18.3787 303.569 18.398V22.197H301.278L300.611 19.993C300.495 19.7997 300.234 19.6257 299.828 19.471C299.422 19.3163 298.958 19.239 298.436 19.239C297.643 19.239 297.005 19.413 296.522 19.761C296.058 20.0897 295.826 20.5537 295.826 21.153C295.826 21.6943 295.99 22.1487 296.319 22.516C296.648 22.864 297.005 23.1347 297.392 23.328C297.779 23.5213 298.494 23.8403 299.538 24.285C300.582 24.7297 301.442 25.155 302.119 25.561C302.815 25.967 303.385 26.4987 303.83 27.156C304.294 27.794 304.526 28.577 304.526 29.505C304.526 30.9357 303.965 32.0957 302.844 32.985C301.723 33.8743 300.108 34.319 298.001 34.319C297.015 34.319 296.126 34.232 295.333 34.058C294.56 33.884 293.661 33.652 292.636 33.362L291.998 33.159V29.331H294.405L295.072 31.622ZM313.454 29.476C313.454 27.7167 314.333 26.3923 316.093 25.503C317.871 24.6137 320.162 24.1593 322.966 24.14V23.473C322.966 22.6803 322.879 22.0617 322.705 21.617C322.55 21.1723 322.25 20.8437 321.806 20.631C321.38 20.399 320.752 20.283 319.921 20.283C318.973 20.283 318.123 20.4087 317.369 20.66C316.615 20.892 315.832 21.2013 315.02 21.588L314.121 19.732C314.411 19.4807 314.894 19.181 315.571 18.833C316.267 18.485 317.088 18.1853 318.036 17.934C318.983 17.6633 319.959 17.528 320.965 17.528C322.453 17.528 323.613 17.7213 324.445 18.108C325.295 18.4947 325.904 19.1133 326.272 19.964C326.639 20.8147 326.823 21.9553 326.823 23.386V32.26H328.389V33.884C328.002 33.9807 327.451 34.0773 326.736 34.174C326.02 34.2707 325.392 34.319 324.851 34.319C324.193 34.319 323.749 34.2223 323.517 34.029C323.304 33.8357 323.198 33.4393 323.198 32.84V32.057C322.676 32.637 321.999 33.159 321.168 33.623C320.336 34.087 319.399 34.319 318.355 34.319C317.465 34.319 316.644 34.1353 315.89 33.768C315.155 33.3813 314.565 32.8303 314.121 32.115C313.676 31.3803 313.454 30.5007 313.454 29.476ZM320.211 31.912C320.617 31.912 321.081 31.796 321.603 31.564C322.125 31.3127 322.579 31.013 322.966 30.665V25.909C321.226 25.909 319.921 26.2087 319.051 26.808C318.2 27.388 317.775 28.142 317.775 29.07C317.775 29.998 317.987 30.7037 318.413 31.187C318.857 31.6703 319.457 31.912 320.211 31.912ZM331.823 20.631L329.967 20.109V18.108L334.781 17.499H334.868L335.593 18.079V19.21L335.564 19.906C336.24 19.268 337.12 18.717 338.203 18.253C339.285 17.789 340.378 17.557 341.48 17.557C342.659 17.557 343.577 17.7793 344.235 18.224C344.911 18.6493 345.395 19.326 345.685 20.254C345.975 21.182 346.12 22.4387 346.12 24.024V32.028L347.889 32.26V34H340.407V32.26L341.973 32.028V24.024C341.973 23.0187 341.905 22.2357 341.77 21.675C341.634 21.095 341.383 20.6793 341.016 20.428C340.668 20.1573 340.165 20.022 339.508 20.022C338.406 20.022 337.226 20.4957 335.97 21.443V31.999L337.71 32.26V34H330.141V32.26L331.823 31.999V20.631ZM360.039 31.622C360.193 31.854 360.541 32.0763 361.083 32.289C361.643 32.4823 362.204 32.579 362.765 32.579C363.673 32.579 364.35 32.3953 364.795 32.028C365.259 31.6413 365.491 31.1387 365.491 30.52C365.491 29.882 365.21 29.3697 364.65 28.983C364.089 28.577 363.142 28.084 361.808 27.504L360.996 27.156C359.662 26.5953 358.666 25.9187 358.009 25.126C357.351 24.3333 357.023 23.3087 357.023 22.052C357.023 21.182 357.284 20.4087 357.806 19.732C358.328 19.036 359.062 18.4947 360.01 18.108C360.957 17.7213 362.049 17.528 363.287 17.528C364.195 17.528 364.969 17.586 365.607 17.702C366.264 17.818 366.95 17.9727 367.666 18.166C368.052 18.3013 368.342 18.3787 368.536 18.398V22.197H366.245L365.578 19.993C365.462 19.7997 365.201 19.6257 364.795 19.471C364.389 19.3163 363.925 19.239 363.403 19.239C362.61 19.239 361.972 19.413 361.489 19.761C361.025 20.0897 360.793 20.5537 360.793 21.153C360.793 21.6943 360.957 22.1487 361.286 22.516C361.614 22.864 361.972 23.1347 362.359 23.328C362.745 23.5213 363.461 23.8403 364.505 24.285C365.549 24.7297 366.409 25.155 367.086 25.561C367.782 25.967 368.352 26.4987 368.797 27.156C369.261 27.794 369.493 28.577 369.493 29.505C369.493 30.9357 368.932 32.0957 367.811 32.985C366.689 33.8743 365.075 34.319 362.968 34.319C361.982 34.319 361.092 34.232 360.3 34.058C359.526 33.884 358.627 33.652 357.603 33.362L356.965 33.159V29.331H359.372L360.039 31.622ZM373.221 12.801L371.017 12.424V10.858L376.411 10.22H376.498L377.252 10.771L377.281 17.238L377.078 19.761C377.677 19.2197 378.489 18.717 379.514 18.253C380.558 17.789 381.65 17.557 382.791 17.557C384.009 17.557 384.956 17.789 385.633 18.253C386.309 18.6977 386.783 19.384 387.054 20.312C387.324 21.24 387.46 22.4773 387.46 24.024V31.999L389.316 32.26V34H381.689V32.26L383.371 31.999V24.024C383.371 23.0187 383.303 22.2357 383.168 21.675C383.032 21.1143 382.781 20.6987 382.414 20.428C382.066 20.1573 381.544 20.022 380.848 20.022C380.248 20.022 379.63 20.167 378.992 20.457C378.373 20.7277 377.822 21.0563 377.339 21.443V31.999L379.108 32.26V34H371.597V32.26L373.221 32.028V12.801ZM391.285 25.967C391.285 24.1497 391.643 22.603 392.358 21.327C393.093 20.051 394.069 19.094 395.287 18.456C396.505 17.7987 397.83 17.47 399.26 17.47C401.696 17.47 403.572 18.224 404.886 19.732C406.22 21.2207 406.887 23.2507 406.887 25.822C406.887 27.6587 406.52 29.2247 405.785 30.52C405.07 31.796 404.103 32.753 402.885 33.391C401.687 34.0097 400.362 34.319 398.912 34.319C396.496 34.319 394.62 33.5747 393.286 32.086C391.952 30.578 391.285 28.5383 391.285 25.967ZM399.144 32.434C401.329 32.434 402.421 30.3267 402.421 26.112C402.421 23.908 402.16 22.2357 401.638 21.095C401.116 19.935 400.266 19.355 399.086 19.355C396.844 19.355 395.722 21.4623 395.722 25.677C395.722 27.881 395.993 29.563 396.534 30.723C397.095 31.8637 397.965 32.434 399.144 32.434ZM409.524 32.289L411.438 32.057V20.631L409.582 20.109V18.108L414.077 17.499H414.164L414.889 18.079V18.717L414.802 21.066H414.889C415.024 20.6793 415.343 20.2057 415.846 19.645C416.348 19.065 416.977 18.5623 417.731 18.137C418.504 17.6923 419.335 17.47 420.225 17.47C420.65 17.47 421.017 17.528 421.327 17.644V21.994C420.747 21.588 420.041 21.385 419.21 21.385C417.798 21.385 416.571 21.762 415.527 22.516V32.028L418.891 32.289V34H409.524V32.289ZM428.046 34.261C426.828 34.261 425.929 33.9807 425.349 33.42C424.769 32.8593 424.479 31.97 424.479 30.752V20.109H422.594V18.601C422.749 18.543 423.029 18.4463 423.435 18.311C423.841 18.1563 424.15 18.0307 424.363 17.934C424.692 17.6827 424.972 17.2477 425.204 16.629C425.378 16.223 425.697 15.2177 426.161 13.613H428.481L428.597 17.876H433.034V20.109H428.626V28.258C428.626 29.3407 428.655 30.1043 428.713 30.549C428.771 30.9937 428.897 31.2837 429.09 31.419C429.283 31.535 429.622 31.593 430.105 31.593C430.588 31.593 431.091 31.5447 431.613 31.448C432.135 31.332 432.57 31.1967 432.918 31.042L433.469 32.666C432.928 33.072 432.135 33.4393 431.091 33.768C430.047 34.0967 429.032 34.261 428.046 34.261ZM441.517 26.025C441.517 24.3623 441.846 22.8833 442.503 21.588C443.18 20.2927 444.137 19.2873 445.374 18.572C446.631 17.8373 448.09 17.47 449.753 17.47C450.526 17.47 451.193 17.528 451.754 17.644C452.315 17.76 452.943 17.9147 453.639 18.108L454.48 18.34L454.306 23.299H451.783L451.058 20.109C450.942 19.6063 450.372 19.355 449.347 19.355C448.264 19.355 447.414 19.8287 446.795 20.776C446.196 21.7233 445.886 23.2023 445.867 25.213C445.867 27.3397 446.234 28.9733 446.969 30.114C447.704 31.2353 448.68 31.796 449.898 31.796C451.367 31.796 452.721 31.3997 453.958 30.607L454.625 32.115C454.122 32.6563 453.349 33.159 452.305 33.623C451.28 34.087 450.169 34.319 448.97 34.319C446.495 34.319 444.63 33.5553 443.373 32.028C442.136 30.5007 441.517 28.4997 441.517 26.025ZM460.383 15.237C459.687 15.237 459.136 15.034 458.73 14.628C458.324 14.222 458.121 13.7 458.121 13.062C458.121 12.3273 458.353 11.7183 458.817 11.235C459.281 10.7517 459.9 10.51 460.673 10.51C461.446 10.51 462.036 10.7227 462.442 11.148C462.848 11.554 463.051 12.0663 463.051 12.685C463.051 13.4583 462.819 14.077 462.355 14.541C461.891 15.005 461.243 15.237 460.412 15.237H460.383ZM458.846 20.631L456.787 20.08V18.137L462.094 17.499H462.152L462.964 18.079V32.028L464.907 32.26V34H456.816V32.26L458.846 31.999V20.631ZM466.986 32.289L468.9 32.057V20.631L467.044 20.109V18.108L471.539 17.499H471.626L472.351 18.079V18.717L472.264 21.066H472.351C472.486 20.6793 472.805 20.2057 473.308 19.645C473.81 19.065 474.439 18.5623 475.193 18.137C475.966 17.6923 476.797 17.47 477.687 17.47C478.112 17.47 478.479 17.528 478.789 17.644V21.994C478.209 21.588 477.503 21.385 476.672 21.385C475.26 21.385 474.033 21.762 472.989 22.516V32.028L476.353 32.289V34H466.986V32.289ZM480.259 26.025C480.259 24.3623 480.588 22.8833 481.245 21.588C481.922 20.2927 482.879 19.2873 484.116 18.572C485.373 17.8373 486.832 17.47 488.495 17.47C489.268 17.47 489.935 17.528 490.496 17.644C491.057 17.76 491.685 17.9147 492.381 18.108L493.222 18.34L493.048 23.299H490.525L489.8 20.109C489.684 19.6063 489.114 19.355 488.089 19.355C487.006 19.355 486.156 19.8287 485.537 20.776C484.938 21.7233 484.628 23.2023 484.609 25.213C484.609 27.3397 484.976 28.9733 485.711 30.114C486.446 31.2353 487.422 31.796 488.64 31.796C490.109 31.796 491.463 31.3997 492.7 30.607L493.367 32.115C492.864 32.6563 492.091 33.159 491.047 33.623C490.022 34.087 488.911 34.319 487.712 34.319C485.237 34.319 483.372 33.5553 482.115 32.028C480.878 30.5007 480.259 28.4997 480.259 26.025ZM508.753 34.29C508.115 34.29 507.651 34.1547 507.361 33.884C507.071 33.6133 506.926 33.2073 506.926 32.666V31.883C506.404 32.521 505.669 33.0913 504.722 33.594C503.775 34.0773 502.827 34.319 501.88 34.319C500.024 34.319 498.7 33.8453 497.907 32.898C497.114 31.9313 496.718 30.346 496.718 28.142V19.964L495.268 19.558V17.905L500.198 17.528H500.227L500.807 17.934V28.142C500.807 29.5533 500.981 30.5393 501.329 31.1C501.677 31.6607 502.325 31.941 503.272 31.941C504.413 31.941 505.476 31.4963 506.462 30.607V19.964L504.519 19.529V17.905L509.768 17.528H509.826L510.522 17.934V32.202H512.146L512.117 33.855C512.04 33.8743 511.682 33.9517 511.044 34.087C510.406 34.2223 509.642 34.29 508.753 34.29ZM517.647 15.237C516.951 15.237 516.4 15.034 515.994 14.628C515.588 14.222 515.385 13.7 515.385 13.062C515.385 12.3273 515.617 11.7183 516.081 11.235C516.545 10.7517 517.163 10.51 517.937 10.51C518.71 10.51 519.3 10.7227 519.706 11.148C520.112 11.554 520.315 12.0663 520.315 12.685C520.315 13.4583 520.083 14.077 519.619 14.541C519.155 15.005 518.507 15.237 517.676 15.237H517.647ZM516.11 20.631L514.051 20.08V18.137L519.358 17.499H519.416L520.228 18.079V32.028L522.171 32.26V34H514.08V32.26L516.11 31.999V20.631ZM529.121 34.261C527.903 34.261 527.004 33.9807 526.424 33.42C525.844 32.8593 525.554 31.97 525.554 30.752V20.109H523.669V18.601C523.824 18.543 524.104 18.4463 524.51 18.311C524.916 18.1563 525.226 18.0307 525.438 17.934C525.767 17.6827 526.047 17.2477 526.279 16.629C526.453 16.223 526.772 15.2177 527.236 13.613H529.556L529.672 17.876H534.109V20.109H529.701V28.258C529.701 29.3407 529.73 30.1043 529.788 30.549C529.846 30.9937 529.972 31.2837 530.165 31.419C530.359 31.535 530.697 31.593 531.18 31.593C531.664 31.593 532.166 31.5447 532.688 31.448C533.21 31.332 533.645 31.1967 533.993 31.042L534.544 32.666C534.003 33.072 533.21 33.4393 532.166 33.768C531.122 34.0967 530.107 34.261 529.121 34.261ZM546.42 15.237C545.724 15.237 545.173 15.034 544.767 14.628C544.361 14.222 544.158 13.7 544.158 13.062C544.158 12.3273 544.39 11.7183 544.854 11.235C545.318 10.7517 545.937 10.51 546.71 10.51C547.483 10.51 548.073 10.7227 548.479 11.148C548.885 11.554 549.088 12.0663 549.088 12.685C549.088 13.4583 548.856 14.077 548.392 14.541C547.928 15.005 547.28 15.237 546.449 15.237H546.42ZM544.883 20.631L542.824 20.08V18.137L548.131 17.499H548.189L549.001 18.079V32.028L550.944 32.26V34H542.853V32.26L544.883 31.999V20.631ZM554.647 20.631L552.791 20.109V18.108L557.605 17.499H557.692L558.417 18.079V19.21L558.388 19.906C559.064 19.268 559.944 18.717 561.027 18.253C562.109 17.789 563.202 17.557 564.304 17.557C565.483 17.557 566.401 17.7793 567.059 18.224C567.735 18.6493 568.219 19.326 568.509 20.254C568.799 21.182 568.944 22.4387 568.944 24.024V32.028L570.713 32.26V34H563.231V32.26L564.797 32.028V24.024C564.797 23.0187 564.729 22.2357 564.594 21.675C564.458 21.095 564.207 20.6793 563.84 20.428C563.492 20.1573 562.989 20.022 562.332 20.022C561.23 20.022 560.05 20.4957 558.794 21.443V31.999L560.534 32.26V34H552.965V32.26L554.647 31.999V20.631ZM584.516 34.261C583.298 34.261 582.399 33.9807 581.819 33.42C581.239 32.8593 580.949 31.97 580.949 30.752V20.109H579.064V18.601C579.219 18.543 579.499 18.4463 579.905 18.311C580.311 18.1563 580.62 18.0307 580.833 17.934C581.162 17.6827 581.442 17.2477 581.674 16.629C581.848 16.223 582.167 15.2177 582.631 13.613H584.951L585.067 17.876H589.504V20.109H585.096V28.258C585.096 29.3407 585.125 30.1043 585.183 30.549C585.241 30.9937 585.367 31.2837 585.56 31.419C585.753 31.535 586.092 31.593 586.575 31.593C587.058 31.593 587.561 31.5447 588.083 31.448C588.605 31.332 589.04 31.1967 589.388 31.042L589.939 32.666C589.398 33.072 588.605 33.4393 587.561 33.768C586.517 34.0967 585.502 34.261 584.516 34.261ZM592.845 12.801L590.641 12.424V10.858L596.035 10.22H596.122L596.876 10.771L596.905 17.238L596.702 19.761C597.301 19.2197 598.113 18.717 599.138 18.253C600.182 17.789 601.274 17.557 602.415 17.557C603.633 17.557 604.58 17.789 605.257 18.253C605.933 18.6977 606.407 19.384 606.678 20.312C606.948 21.24 607.084 22.4773 607.084 24.024V31.999L608.94 32.26V34H601.313V32.26L602.995 31.999V24.024C602.995 23.0187 602.927 22.2357 602.792 21.675C602.656 21.1143 602.405 20.6987 602.038 20.428C601.69 20.1573 601.168 20.022 600.472 20.022C599.872 20.022 599.254 20.167 598.616 20.457C597.997 20.7277 597.446 21.0563 596.963 21.443V31.999L598.732 32.26V34H591.221V32.26L592.845 32.028V12.801ZM618.217 34.319C615.665 34.319 613.761 33.5747 612.504 32.086C611.267 30.578 610.648 28.5287 610.648 25.938C610.648 24.198 610.967 22.69 611.605 21.414C612.263 20.138 613.181 19.1617 614.36 18.485C615.54 17.8083 616.903 17.47 618.449 17.47C620.383 17.47 621.871 17.9823 622.915 19.007C623.959 20.0123 624.501 21.4527 624.539 23.328C624.539 24.604 624.462 25.5513 624.307 26.17H614.882C614.96 27.9293 615.375 29.302 616.129 30.288C616.883 31.2547 617.956 31.738 619.348 31.738C620.102 31.738 620.876 31.6123 621.668 31.361C622.48 31.1097 623.118 30.81 623.582 30.462L624.307 32.057C623.785 32.6177 622.935 33.1397 621.755 33.623C620.595 34.087 619.416 34.319 618.217 34.319ZM620.479 24.43C620.518 23.8887 620.537 23.473 620.537 23.183C620.537 20.6117 619.677 19.326 617.956 19.326C617.009 19.326 616.274 19.703 615.752 20.457C615.23 21.211 614.94 22.5353 614.882 24.43H620.479ZM188 46.858L193.307 46.22H193.365L194.177 46.771V55.326C194.699 54.804 195.337 54.369 196.091 54.021C196.864 53.6537 197.696 53.47 198.585 53.47C200.441 53.47 201.949 54.1273 203.109 55.442C204.288 56.7373 204.878 58.7287 204.878 61.416C204.878 63.0787 204.53 64.5867 203.834 65.94C203.138 67.2933 202.133 68.3663 200.818 69.159C199.523 69.9323 198.015 70.319 196.294 70.319C194.767 70.319 193.442 70.1933 192.321 69.942C191.2 69.6713 190.484 69.4297 190.175 69.217V48.714L188 48.366V46.858ZM197.048 56.022C196.468 56.022 195.917 56.1573 195.395 56.428C194.892 56.6793 194.486 56.9693 194.177 57.298V67.883C194.293 68.0957 194.564 68.2697 194.989 68.405C195.414 68.5403 195.898 68.608 196.439 68.608C197.676 68.608 198.662 68.0377 199.397 66.897C200.151 65.737 200.528 64.026 200.528 61.764C200.528 59.8113 200.209 58.371 199.571 57.443C198.933 56.4957 198.092 56.022 197.048 56.022ZM206.913 65.476C206.913 63.7167 207.792 62.3923 209.552 61.503C211.33 60.6137 213.621 60.1593 216.425 60.14V59.473C216.425 58.6803 216.338 58.0617 216.164 57.617C216.009 57.1723 215.709 56.8437 215.265 56.631C214.839 56.399 214.211 56.283 213.38 56.283C212.432 56.283 211.582 56.4087 210.828 56.66C210.074 56.892 209.291 57.2013 208.479 57.588L207.58 55.732C207.87 55.4807 208.353 55.181 209.03 54.833C209.726 54.485 210.547 54.1853 211.495 53.934C212.442 53.6633 213.418 53.528 214.424 53.528C215.912 53.528 217.072 53.7213 217.904 54.108C218.754 54.4947 219.363 55.1133 219.731 55.964C220.098 56.8147 220.282 57.9553 220.282 59.386V68.26H221.848V69.884C221.461 69.9807 220.91 70.0773 220.195 70.174C219.479 70.2707 218.851 70.319 218.31 70.319C217.652 70.319 217.208 70.2223 216.976 70.029C216.763 69.8357 216.657 69.4393 216.657 68.84V68.057C216.135 68.637 215.458 69.159 214.627 69.623C213.795 70.087 212.858 70.319 211.814 70.319C210.924 70.319 210.103 70.1353 209.349 69.768C208.614 69.3813 208.024 68.8303 207.58 68.115C207.135 67.3803 206.913 66.5007 206.913 65.476ZM213.67 67.912C214.076 67.912 214.54 67.796 215.062 67.564C215.584 67.3127 216.038 67.013 216.425 66.665V61.909C214.685 61.909 213.38 62.2087 212.51 62.808C211.659 63.388 211.234 64.142 211.234 65.07C211.234 65.998 211.446 66.7037 211.872 67.187C212.316 67.6703 212.916 67.912 213.67 67.912ZM228.53 70.261C227.312 70.261 226.413 69.9807 225.833 69.42C225.253 68.8593 224.963 67.97 224.963 66.752V56.109H223.078V54.601C223.232 54.543 223.513 54.4463 223.919 54.311C224.325 54.1563 224.634 54.0307 224.847 53.934C225.175 53.6827 225.456 53.2477 225.688 52.629C225.862 52.223 226.181 51.2177 226.645 49.613H228.965L229.081 53.876H233.518V56.109H229.11V64.258C229.11 65.3407 229.139 66.1043 229.197 66.549C229.255 66.9937 229.38 67.2837 229.574 67.419C229.767 67.535 230.105 67.593 230.589 67.593C231.072 67.593 231.575 67.5447 232.097 67.448C232.619 67.332 233.054 67.1967 233.402 67.042L233.953 68.666C233.411 69.072 232.619 69.4393 231.575 69.768C230.531 70.0967 229.516 70.261 228.53 70.261ZM240.367 70.261C239.149 70.261 238.25 69.9807 237.67 69.42C237.09 68.8593 236.8 67.97 236.8 66.752V56.109H234.915V54.601C235.07 54.543 235.35 54.4463 235.756 54.311C236.162 54.1563 236.472 54.0307 236.684 53.934C237.013 53.6827 237.293 53.2477 237.525 52.629C237.699 52.223 238.018 51.2177 238.482 49.613H240.802L240.918 53.876H245.355V56.109H240.947V64.258C240.947 65.3407 240.976 66.1043 241.034 66.549C241.092 66.9937 241.218 67.2837 241.411 67.419C241.605 67.535 241.943 67.593 242.426 67.593C242.91 67.593 243.412 67.5447 243.934 67.448C244.456 67.332 244.891 67.1967 245.239 67.042L245.79 68.666C245.249 69.072 244.456 69.4393 243.412 69.768C242.368 70.0967 241.353 70.261 240.367 70.261ZM254.641 70.319C252.089 70.319 250.185 69.5747 248.928 68.086C247.691 66.578 247.072 64.5287 247.072 61.938C247.072 60.198 247.391 58.69 248.029 57.414C248.687 56.138 249.605 55.1617 250.784 54.485C251.964 53.8083 253.327 53.47 254.873 53.47C256.807 53.47 258.295 53.9823 259.339 55.007C260.383 56.0123 260.925 57.4527 260.963 59.328C260.963 60.604 260.886 61.5513 260.731 62.17H251.306C251.384 63.9293 251.799 65.302 252.553 66.288C253.307 67.2547 254.38 67.738 255.772 67.738C256.526 67.738 257.3 67.6123 258.092 67.361C258.904 67.1097 259.542 66.81 260.006 66.462L260.731 68.057C260.209 68.6177 259.359 69.1397 258.179 69.623C257.019 70.087 255.84 70.319 254.641 70.319ZM256.903 60.43C256.942 59.8887 256.961 59.473 256.961 59.183C256.961 56.6117 256.101 55.326 254.38 55.326C253.433 55.326 252.698 55.703 252.176 56.457C251.654 57.211 251.364 58.5353 251.306 60.43H256.903ZM263.278 68.289L265.192 68.057V56.631L263.336 56.109V54.108L267.831 53.499H267.918L268.643 54.079V54.717L268.556 57.066H268.643C268.778 56.6793 269.097 56.2057 269.6 55.645C270.102 55.065 270.731 54.5623 271.485 54.137C272.258 53.6923 273.089 53.47 273.979 53.47C274.404 53.47 274.771 53.528 275.081 53.644V57.994C274.501 57.588 273.795 57.385 272.964 57.385C271.552 57.385 270.325 57.762 269.281 58.516V68.028L272.645 68.289V70H263.278V68.289ZM279.509 77.221C279.161 77.221 278.784 77.192 278.378 77.134C277.991 77.076 277.711 77.0083 277.537 76.931V73.828C277.672 73.9053 277.943 73.9827 278.349 74.06C278.755 74.1373 279.122 74.176 279.451 74.176C280.418 74.176 281.21 73.857 281.829 73.219C282.467 72.581 283.057 71.508 283.598 70H282.032L276.58 55.935L275.275 55.558V53.876H283.25V55.558L281.133 55.906L283.714 63.939L284.758 67.361L285.657 63.939L288.035 55.906L286.208 55.558V53.876H292.501V55.558L291.08 55.906C290.017 59.154 288.963 62.286 287.919 65.302C286.875 68.318 286.266 70.0097 286.092 70.377C285.473 72.001 284.884 73.2963 284.323 74.263C283.762 75.2297 283.095 75.9643 282.322 76.467C281.549 76.9697 280.611 77.221 279.509 77.221ZM296.278 70.261C295.679 70.261 295.157 70.058 294.712 69.652C294.267 69.2267 294.045 68.695 294.045 68.057C294.045 67.3417 294.296 66.7617 294.799 66.317C295.321 65.853 295.949 65.621 296.684 65.621C297.38 65.621 297.931 65.8433 298.337 66.288C298.743 66.7133 298.946 67.2257 298.946 67.825C298.946 68.579 298.695 69.1783 298.192 69.623C297.709 70.0483 297.071 70.261 296.278 70.261ZM311.076 50.628L308.901 50.251V48.453H313.28C313.686 48.453 314.314 48.4337 315.165 48.395C316.286 48.3177 317.301 48.279 318.21 48.279C320.221 48.279 321.806 48.5303 322.966 49.033C324.145 49.5163 324.977 50.222 325.46 51.15C325.963 52.0587 326.214 53.2187 326.214 54.63C326.214 57.066 325.45 58.9607 323.923 60.314C322.415 61.6673 320.317 62.344 317.63 62.344C316.567 62.344 315.803 62.315 315.339 62.257V67.97L319.225 68.26V70H308.785V68.26L311.076 67.97V50.628ZM315.31 60.401C315.755 60.4977 316.509 60.546 317.572 60.546C318.867 60.546 319.902 60.1013 320.675 59.212C321.468 58.3033 321.864 56.805 321.864 54.717C321.864 53.093 321.506 51.9137 320.791 51.179C320.095 50.425 319.022 50.048 317.572 50.048C317.031 50.048 316.47 50.0867 315.89 50.164C315.619 50.2027 315.426 50.222 315.31 50.222V60.401ZM329.785 48.801L327.639 48.424V46.858L333.004 46.22H333.062L333.845 46.771V68.028L335.962 68.26V70H327.755V68.26L329.785 67.999V48.801ZM345.266 70.319C342.714 70.319 340.81 69.5747 339.553 68.086C338.316 66.578 337.697 64.5287 337.697 61.938C337.697 60.198 338.016 58.69 338.654 57.414C339.312 56.138 340.23 55.1617 341.409 54.485C342.589 53.8083 343.952 53.47 345.498 53.47C347.432 53.47 348.92 53.9823 349.964 55.007C351.008 56.0123 351.55 57.4527 351.588 59.328C351.588 60.604 351.511 61.5513 351.356 62.17H341.931C342.009 63.9293 342.424 65.302 343.178 66.288C343.932 67.2547 345.005 67.738 346.397 67.738C347.151 67.738 347.925 67.6123 348.717 67.361C349.529 67.1097 350.167 66.81 350.631 66.462L351.356 68.057C350.834 68.6177 349.984 69.1397 348.804 69.623C347.644 70.087 346.465 70.319 345.266 70.319ZM347.528 60.43C347.567 59.8887 347.586 59.473 347.586 59.183C347.586 56.6117 346.726 55.326 345.005 55.326C344.058 55.326 343.323 55.703 342.801 56.457C342.279 57.211 341.989 58.5353 341.931 60.43H347.528ZM353.584 65.476C353.584 63.7167 354.463 62.3923 356.223 61.503C358.001 60.6137 360.292 60.1593 363.096 60.14V59.473C363.096 58.6803 363.009 58.0617 362.835 57.617C362.68 57.1723 362.38 56.8437 361.936 56.631C361.51 56.399 360.882 56.283 360.051 56.283C359.103 56.283 358.253 56.4087 357.499 56.66C356.745 56.892 355.962 57.2013 355.15 57.588L354.251 55.732C354.541 55.4807 355.024 55.181 355.701 54.833C356.397 54.485 357.218 54.1853 358.166 53.934C359.113 53.6633 360.089 53.528 361.095 53.528C362.583 53.528 363.743 53.7213 364.575 54.108C365.425 54.4947 366.034 55.1133 366.402 55.964C366.769 56.8147 366.953 57.9553 366.953 59.386V68.26H368.519V69.884C368.132 69.9807 367.581 70.0773 366.866 70.174C366.15 70.2707 365.522 70.319 364.981 70.319C364.323 70.319 363.879 70.2223 363.647 70.029C363.434 69.8357 363.328 69.4393 363.328 68.84V68.057C362.806 68.637 362.129 69.159 361.298 69.623C360.466 70.087 359.529 70.319 358.485 70.319C357.595 70.319 356.774 70.1353 356.02 69.768C355.285 69.3813 354.695 68.8303 354.251 68.115C353.806 67.3803 353.584 66.5007 353.584 65.476ZM360.341 67.912C360.747 67.912 361.211 67.796 361.733 67.564C362.255 67.3127 362.709 67.013 363.096 66.665V61.909C361.356 61.909 360.051 62.2087 359.181 62.808C358.33 63.388 357.905 64.142 357.905 65.07C357.905 65.998 358.117 66.7037 358.543 67.187C358.987 67.6703 359.587 67.912 360.341 67.912ZM373.547 67.622C373.702 67.854 374.05 68.0763 374.591 68.289C375.152 68.4823 375.713 68.579 376.273 68.579C377.182 68.579 377.859 68.3953 378.303 68.028C378.767 67.6413 378.999 67.1387 378.999 66.52C378.999 65.882 378.719 65.3697 378.158 64.983C377.598 64.577 376.65 64.084 375.316 63.504L374.504 63.156C373.17 62.5953 372.175 61.9187 371.517 61.126C370.86 60.3333 370.531 59.3087 370.531 58.052C370.531 57.182 370.792 56.4087 371.314 55.732C371.836 55.036 372.571 54.4947 373.518 54.108C374.466 53.7213 375.558 53.528 376.795 53.528C377.704 53.528 378.477 53.586 379.115 53.702C379.773 53.818 380.459 53.9727 381.174 54.166C381.561 54.3013 381.851 54.3787 382.044 54.398V58.197H379.753L379.086 55.993C378.97 55.7997 378.709 55.6257 378.303 55.471C377.897 55.3163 377.433 55.239 376.911 55.239C376.119 55.239 375.481 55.413 374.997 55.761C374.533 56.0897 374.301 56.5537 374.301 57.153C374.301 57.6943 374.466 58.1487 374.794 58.516C375.123 58.864 375.481 59.1347 375.867 59.328C376.254 59.5213 376.969 59.8403 378.013 60.285C379.057 60.7297 379.918 61.155 380.594 61.561C381.29 61.967 381.861 62.4987 382.305 63.156C382.769 63.794 383.001 64.577 383.001 65.505C383.001 66.9357 382.441 68.0957 381.319 68.985C380.198 69.8743 378.584 70.319 376.476 70.319C375.49 70.319 374.601 70.232 373.808 70.058C373.035 69.884 372.136 69.652 371.111 69.362L370.473 69.159V65.331H372.88L373.547 67.622ZM392.675 70.319C390.123 70.319 388.218 69.5747 386.962 68.086C385.724 66.578 385.106 64.5287 385.106 61.938C385.106 60.198 385.425 58.69 386.063 57.414C386.72 56.138 387.638 55.1617 388.818 54.485C389.997 53.8083 391.36 53.47 392.907 53.47C394.84 53.47 396.329 53.9823 397.373 55.007C398.417 56.0123 398.958 57.4527 398.997 59.328C398.997 60.604 398.919 61.5513 398.765 62.17H389.34C389.417 63.9293 389.833 65.302 390.587 66.288C391.341 67.2547 392.414 67.738 393.806 67.738C394.56 67.738 395.333 67.6123 396.126 67.361C396.938 67.1097 397.576 66.81 398.04 66.462L398.765 68.057C398.243 68.6177 397.392 69.1397 396.213 69.623C395.053 70.087 393.873 70.319 392.675 70.319ZM394.937 60.43C394.975 59.8887 394.995 59.473 394.995 59.183C394.995 56.6117 394.134 55.326 392.414 55.326C391.466 55.326 390.732 55.703 390.21 56.457C389.688 57.211 389.398 58.5353 389.34 60.43H394.937ZM407.816 62.025C407.816 60.3623 408.144 58.8833 408.802 57.588C409.478 56.2927 410.435 55.2873 411.673 54.572C412.929 53.8373 414.389 53.47 416.052 53.47C416.825 53.47 417.492 53.528 418.053 53.644C418.613 53.76 419.242 53.9147 419.938 54.108L420.779 54.34L420.605 59.299H418.082L417.357 56.109C417.241 55.6063 416.67 55.355 415.646 55.355C414.563 55.355 413.712 55.8287 413.094 56.776C412.494 57.7233 412.185 59.2023 412.166 61.213C412.166 63.3397 412.533 64.9733 413.268 66.114C414.002 67.2353 414.979 67.796 416.197 67.796C417.666 67.796 419.019 67.3997 420.257 66.607L420.924 68.115C420.421 68.6563 419.648 69.159 418.604 69.623C417.579 70.087 416.467 70.319 415.269 70.319C412.794 70.319 410.928 69.5553 409.672 68.028C408.434 66.5007 407.816 64.4997 407.816 62.025ZM424.594 48.801L422.39 48.424V46.858L427.784 46.22H427.871L428.625 46.771L428.654 53.238L428.451 55.761C429.05 55.2197 429.862 54.717 430.887 54.253C431.931 53.789 433.023 53.557 434.164 53.557C435.382 53.557 436.329 53.789 437.006 54.253C437.682 54.6977 438.156 55.384 438.427 56.312C438.697 57.24 438.833 58.4773 438.833 60.024V67.999L440.689 68.26V70H433.062V68.26L434.744 67.999V60.024C434.744 59.0187 434.676 58.2357 434.541 57.675C434.405 57.1143 434.154 56.6987 433.787 56.428C433.439 56.1573 432.917 56.022 432.221 56.022C431.621 56.022 431.003 56.167 430.365 56.457C429.746 56.7277 429.195 57.0563 428.712 57.443V67.999L430.481 68.26V70H422.97V68.26L424.594 68.028V48.801ZM449.967 70.319C447.415 70.319 445.51 69.5747 444.254 68.086C443.016 66.578 442.398 64.5287 442.398 61.938C442.398 60.198 442.717 58.69 443.355 57.414C444.012 56.138 444.93 55.1617 446.11 54.485C447.289 53.8083 448.652 53.47 450.199 53.47C452.132 53.47 453.621 53.9823 454.665 55.007C455.709 56.0123 456.25 57.4527 456.289 59.328C456.289 60.604 456.211 61.5513 456.057 62.17H446.632C446.709 63.9293 447.125 65.302 447.879 66.288C448.633 67.2547 449.706 67.738 451.098 67.738C451.852 67.738 452.625 67.6123 453.418 67.361C454.23 67.1097 454.868 66.81 455.332 66.462L456.057 68.057C455.535 68.6177 454.684 69.1397 453.505 69.623C452.345 70.087 451.165 70.319 449.967 70.319ZM452.229 60.43C452.267 59.8887 452.287 59.473 452.287 59.183C452.287 56.6117 451.426 55.326 449.706 55.326C448.758 55.326 448.024 55.703 447.502 56.457C446.98 57.211 446.69 58.5353 446.632 60.43H452.229ZM458.226 62.025C458.226 60.3623 458.555 58.8833 459.212 57.588C459.889 56.2927 460.846 55.2873 462.083 54.572C463.34 53.8373 464.799 53.47 466.462 53.47C467.235 53.47 467.902 53.528 468.463 53.644C469.024 53.76 469.652 53.9147 470.348 54.108L471.189 54.34L471.015 59.299H468.492L467.767 56.109C467.651 55.6063 467.081 55.355 466.056 55.355C464.973 55.355 464.123 55.8287 463.504 56.776C462.905 57.7233 462.595 59.2023 462.576 61.213C462.576 63.3397 462.943 64.9733 463.678 66.114C464.413 67.2353 465.389 67.796 466.607 67.796C468.076 67.796 469.43 67.3997 470.667 66.607L471.334 68.115C470.831 68.6563 470.058 69.159 469.014 69.623C467.989 70.087 466.878 70.319 465.679 70.319C463.204 70.319 461.339 69.5553 460.082 68.028C458.845 66.5007 458.226 64.4997 458.226 62.025ZM474.975 48.801L472.887 48.424V46.858L478.223 46.22H478.281L479.064 46.771V60.546L478.977 62.083L484.893 55.877L482.747 55.558V53.905H490.316V55.558L487.967 55.935L484.4 59.357L489.475 68.028L491.07 68.26V70H483.414V68.26L484.893 67.999L481.587 61.88L478.977 64.519L479.035 65.998V67.999L480.862 68.26V70H473.293V68.26L474.975 67.999V48.801ZM503.633 70.261C502.415 70.261 501.516 69.9807 500.936 69.42C500.356 68.8593 500.066 67.97 500.066 66.752V56.109H498.181V54.601C498.336 54.543 498.616 54.4463 499.022 54.311C499.428 54.1563 499.737 54.0307 499.95 53.934C500.279 53.6827 500.559 53.2477 500.791 52.629C500.965 52.223 501.284 51.2177 501.748 49.613H504.068L504.184 53.876H508.621V56.109H504.213V64.258C504.213 65.3407 504.242 66.1043 504.3 66.549C504.358 66.9937 504.484 67.2837 504.677 67.419C504.87 67.535 505.209 67.593 505.692 67.593C506.175 67.593 506.678 67.5447 507.2 67.448C507.722 67.332 508.157 67.1967 508.505 67.042L509.056 68.666C508.515 69.072 507.722 69.4393 506.678 69.768C505.634 70.0967 504.619 70.261 503.633 70.261ZM511.962 48.801L509.758 48.424V46.858L515.152 46.22H515.239L515.993 46.771L516.022 53.238L515.819 55.761C516.418 55.2197 517.23 54.717 518.255 54.253C519.299 53.789 520.391 53.557 521.532 53.557C522.75 53.557 523.697 53.789 524.374 54.253C525.051 54.6977 525.524 55.384 525.795 56.312C526.066 57.24 526.201 58.4773 526.201 60.024V67.999L528.057 68.26V70H520.43V68.26L522.112 67.999V60.024C522.112 59.0187 522.044 58.2357 521.909 57.675C521.774 57.1143 521.522 56.6987 521.155 56.428C520.807 56.1573 520.285 56.022 519.589 56.022C518.99 56.022 518.371 56.167 517.733 56.457C517.114 56.7277 516.563 57.0563 516.08 57.443V67.999L517.849 68.26V70H510.338V68.26L511.962 68.028V48.801ZM537.335 70.319C534.783 70.319 532.878 69.5747 531.622 68.086C530.384 66.578 529.766 64.5287 529.766 61.938C529.766 60.198 530.085 58.69 530.723 57.414C531.38 56.138 532.298 55.1617 533.478 54.485C534.657 53.8083 536.02 53.47 537.567 53.47C539.5 53.47 540.989 53.9823 542.033 55.007C543.077 56.0123 543.618 57.4527 543.657 59.328C543.657 60.604 543.579 61.5513 543.425 62.17H534C534.077 63.9293 534.493 65.302 535.247 66.288C536.001 67.2547 537.074 67.738 538.466 67.738C539.22 67.738 539.993 67.6123 540.786 67.361C541.598 67.1097 542.236 66.81 542.7 66.462L543.425 68.057C542.903 68.6177 542.052 69.1397 540.873 69.623C539.713 70.087 538.533 70.319 537.335 70.319ZM539.597 60.43C539.635 59.8887 539.655 59.473 539.655 59.183C539.655 56.6117 538.794 55.326 537.074 55.326C536.126 55.326 535.392 55.703 534.87 56.457C534.348 57.211 534.058 58.5353 534 60.43H539.597ZM556.072 67.622C556.227 67.854 556.575 68.0763 557.116 68.289C557.677 68.4823 558.237 68.579 558.798 68.579C559.707 68.579 560.383 68.3953 560.828 68.028C561.292 67.6413 561.524 67.1387 561.524 66.52C561.524 65.882 561.244 65.3697 560.683 64.983C560.122 64.577 559.175 64.084 557.841 63.504L557.029 63.156C555.695 62.5953 554.699 61.9187 554.042 61.126C553.385 60.3333 553.056 59.3087 553.056 58.052C553.056 57.182 553.317 56.4087 553.839 55.732C554.361 55.036 555.096 54.4947 556.043 54.108C556.99 53.7213 558.083 53.528 559.32 53.528C560.229 53.528 561.002 53.586 561.64 53.702C562.297 53.818 562.984 53.9727 563.699 54.166C564.086 54.3013 564.376 54.3787 564.569 54.398V58.197H562.278L561.611 55.993C561.495 55.7997 561.234 55.6257 560.828 55.471C560.422 55.3163 559.958 55.239 559.436 55.239C558.643 55.239 558.005 55.413 557.522 55.761C557.058 56.0897 556.826 56.5537 556.826 57.153C556.826 57.6943 556.99 58.1487 557.319 58.516C557.648 58.864 558.005 59.1347 558.392 59.328C558.779 59.5213 559.494 59.8403 560.538 60.285C561.582 60.7297 562.442 61.155 563.119 61.561C563.815 61.967 564.385 62.4987 564.83 63.156C565.294 63.794 565.526 64.577 565.526 65.505C565.526 66.9357 564.965 68.0957 563.844 68.985C562.723 69.8743 561.108 70.319 559.001 70.319C558.015 70.319 557.126 70.232 556.333 70.058C555.56 69.884 554.661 69.652 553.636 69.362L552.998 69.159V65.331H555.405L556.072 67.622ZM570.472 77.221C570.124 77.221 569.747 77.192 569.341 77.134C568.954 77.076 568.674 77.0083 568.5 76.931V73.828C568.635 73.9053 568.906 73.9827 569.312 74.06C569.718 74.1373 570.085 74.176 570.414 74.176C571.381 74.176 572.173 73.857 572.792 73.219C573.43 72.581 574.02 71.508 574.561 70H572.995L567.543 55.935L566.238 55.558V53.876H574.213V55.558L572.096 55.906L574.677 63.939L575.721 67.361L576.62 63.939L578.998 55.906L577.171 55.558V53.876H583.464V55.558L582.043 55.906C580.98 59.154 579.926 62.286 578.882 65.302C577.838 68.318 577.229 70.0097 577.055 70.377C576.436 72.001 575.847 73.2963 575.286 74.263C574.725 75.2297 574.058 75.9643 573.285 76.467C572.512 76.9697 571.574 77.221 570.472 77.221ZM587.734 67.622C587.889 67.854 588.237 68.0763 588.778 68.289C589.339 68.4823 589.899 68.579 590.46 68.579C591.369 68.579 592.045 68.3953 592.49 68.028C592.954 67.6413 593.186 67.1387 593.186 66.52C593.186 65.882 592.906 65.3697 592.345 64.983C591.784 64.577 590.837 64.084 589.503 63.504L588.691 63.156C587.357 62.5953 586.361 61.9187 585.704 61.126C585.047 60.3333 584.718 59.3087 584.718 58.052C584.718 57.182 584.979 56.4087 585.501 55.732C586.023 55.036 586.758 54.4947 587.705 54.108C588.652 53.7213 589.745 53.528 590.982 53.528C591.891 53.528 592.664 53.586 593.302 53.702C593.959 53.818 594.646 53.9727 595.361 54.166C595.748 54.3013 596.038 54.3787 596.231 54.398V58.197H593.94L593.273 55.993C593.157 55.7997 592.896 55.6257 592.49 55.471C592.084 55.3163 591.62 55.239 591.098 55.239C590.305 55.239 589.667 55.413 589.184 55.761C588.72 56.0897 588.488 56.5537 588.488 57.153C588.488 57.6943 588.652 58.1487 588.981 58.516C589.31 58.864 589.667 59.1347 590.054 59.328C590.441 59.5213 591.156 59.8403 592.2 60.285C593.244 60.7297 594.104 61.155 594.781 61.561C595.477 61.967 596.047 62.4987 596.492 63.156C596.956 63.794 597.188 64.577 597.188 65.505C597.188 66.9357 596.627 68.0957 595.506 68.985C594.385 69.8743 592.77 70.319 590.663 70.319C589.677 70.319 588.788 70.232 587.995 70.058C587.222 69.884 586.323 69.652 585.298 69.362L584.66 69.159V65.331H587.067L587.734 67.622ZM604.425 70.261C603.207 70.261 602.308 69.9807 601.728 69.42C601.148 68.8593 600.858 67.97 600.858 66.752V56.109H598.973V54.601C599.128 54.543 599.408 54.4463 599.814 54.311C600.22 54.1563 600.529 54.0307 600.742 53.934C601.071 53.6827 601.351 53.2477 601.583 52.629C601.757 52.223 602.076 51.2177 602.54 49.613H604.86L604.976 53.876H609.413V56.109H605.005V64.258C605.005 65.3407 605.034 66.1043 605.092 66.549C605.15 66.9937 605.276 67.2837 605.469 67.419C605.662 67.535 606.001 67.593 606.484 67.593C606.967 67.593 607.47 67.5447 607.992 67.448C608.514 67.332 608.949 67.1967 609.297 67.042L609.848 68.666C609.307 69.072 608.514 69.4393 607.47 69.768C606.426 70.0967 605.411 70.261 604.425 70.261ZM618.699 70.319C616.147 70.319 614.243 69.5747 612.986 68.086C611.749 66.578 611.13 64.5287 611.13 61.938C611.13 60.198 611.449 58.69 612.087 57.414C612.744 56.138 613.663 55.1617 614.842 54.485C616.021 53.8083 617.384 53.47 618.931 53.47C620.864 53.47 622.353 53.9823 623.397 55.007C624.441 56.0123 624.982 57.4527 625.021 59.328C625.021 60.604 624.944 61.5513 624.789 62.17H615.364C615.441 63.9293 615.857 65.302 616.611 66.288C617.365 67.2547 618.438 67.738 619.83 67.738C620.584 67.738 621.357 67.6123 622.15 67.361C622.962 67.1097 623.6 66.81 624.064 66.462L624.789 68.057C624.267 68.6177 623.416 69.1397 622.237 69.623C621.077 70.087 619.898 70.319 618.699 70.319ZM620.961 60.43C621 59.8887 621.019 59.473 621.019 59.183C621.019 56.6117 620.159 55.326 618.438 55.326C617.491 55.326 616.756 55.703 616.234 56.457C615.712 57.211 615.422 58.5353 615.364 60.43H620.961ZM627.335 68.26L628.959 67.999V56.631L627.103 56.109V54.108L631.917 53.499L632.265 53.731L632.7 54.688V55.906C633.338 55.2873 634.247 54.746 635.426 54.282C636.625 53.7987 637.659 53.557 638.529 53.557C639.573 53.557 640.414 53.731 641.052 54.079C641.71 54.427 642.203 54.9683 642.531 55.703C643.169 55.123 644.01 54.6203 645.054 54.195C646.098 53.7697 647.123 53.557 648.128 53.557C649.849 53.557 651.067 54.0597 651.782 55.065C652.498 56.0703 652.855 57.7137 652.855 59.995V67.999L654.74 68.26V70H647.229V68.26L648.737 67.999V60.111C648.737 58.603 648.554 57.5493 648.186 56.95C647.838 56.3313 647.162 56.022 646.156 56.022C645.615 56.022 645.054 56.1477 644.474 56.399C643.914 56.631 643.411 56.921 642.966 57.269C643.102 58.0037 643.169 58.922 643.169 60.024V67.999L644.967 68.26V70H637.398V68.26L638.993 67.999V60.024C638.993 59.0187 638.926 58.2357 638.79 57.675C638.674 57.095 638.442 56.6793 638.094 56.428C637.746 56.1573 637.244 56.022 636.586 56.022C635.968 56.022 635.349 56.167 634.73 56.457C634.131 56.7277 633.59 57.0563 633.106 57.443V67.999L634.817 68.26V70H627.335V68.26ZM195.366 106.319C194.167 106.319 193.094 106.039 192.147 105.478C191.2 104.898 190.446 104.009 189.885 102.81C189.324 101.611 189.044 100.113 189.044 98.315C189.044 96.691 189.373 95.212 190.03 93.878C190.707 92.5247 191.693 91.4517 192.988 90.659C194.283 89.8663 195.84 89.47 197.657 89.47C198.392 89.47 199.088 89.5473 199.745 89.702V84.801L196.903 84.395V82.8L202.877 82.22H202.964L203.776 82.829V104.231H205.342V105.884C203.95 106.174 202.8 106.319 201.891 106.319C201.272 106.319 200.828 106.213 200.557 106C200.306 105.807 200.18 105.41 200.18 104.811V103.999C199.677 104.676 198.991 105.236 198.121 105.681C197.251 106.106 196.333 106.319 195.366 106.319ZM196.874 103.912C197.512 103.912 198.073 103.786 198.556 103.535C199.059 103.264 199.455 102.945 199.745 102.578V92.022C199.61 91.8287 199.32 91.6643 198.875 91.529C198.45 91.3937 197.986 91.326 197.483 91.326C196.246 91.326 195.25 91.8673 194.496 92.95C193.761 94.0133 193.394 95.7243 193.394 98.083C193.394 100.055 193.713 101.524 194.351 102.491C194.989 103.438 195.83 103.912 196.874 103.912ZM210.909 87.237C210.213 87.237 209.662 87.034 209.256 86.628C208.85 86.222 208.647 85.7 208.647 85.062C208.647 84.3273 208.879 83.7183 209.343 83.235C209.807 82.7517 210.426 82.51 211.199 82.51C211.973 82.51 212.562 82.7227 212.968 83.148C213.374 83.554 213.577 84.0663 213.577 84.685C213.577 85.4583 213.345 86.077 212.881 86.541C212.417 87.005 211.77 87.237 210.938 87.237H210.909ZM209.372 92.631L207.313 92.08V90.137L212.62 89.499H212.678L213.49 90.079V104.028L215.433 104.26V106H207.342V104.26L209.372 103.999V92.631ZM220.731 103.622C220.886 103.854 221.234 104.076 221.775 104.289C222.336 104.482 222.896 104.579 223.457 104.579C224.366 104.579 225.042 104.395 225.487 104.028C225.951 103.641 226.183 103.139 226.183 102.52C226.183 101.882 225.903 101.37 225.342 100.983C224.781 100.577 223.834 100.084 222.5 99.504L221.688 99.156C220.354 98.5953 219.358 97.9187 218.701 97.126C218.044 96.3333 217.715 95.3087 217.715 94.052C217.715 93.182 217.976 92.4087 218.498 91.732C219.02 91.036 219.755 90.4947 220.702 90.108C221.649 89.7213 222.742 89.528 223.979 89.528C224.888 89.528 225.661 89.586 226.299 89.702C226.956 89.818 227.643 89.9727 228.358 90.166C228.745 90.3013 229.035 90.3787 229.228 90.398V94.197H226.937L226.27 91.993C226.154 91.7997 225.893 91.6257 225.487 91.471C225.081 91.3163 224.617 91.239 224.095 91.239C223.302 91.239 222.664 91.413 222.181 91.761C221.717 92.0897 221.485 92.5537 221.485 93.153C221.485 93.6943 221.649 94.1487 221.978 94.516C222.307 94.864 222.664 95.1347 223.051 95.328C223.438 95.5213 224.153 95.8403 225.197 96.285C226.241 96.7297 227.101 97.155 227.778 97.561C228.474 97.967 229.044 98.4987 229.489 99.156C229.953 99.794 230.185 100.577 230.185 101.505C230.185 102.936 229.624 104.096 228.503 104.985C227.382 105.874 225.767 106.319 223.66 106.319C222.674 106.319 221.785 106.232 220.992 106.058C220.219 105.884 219.32 105.652 218.295 105.362L217.657 105.159V101.331H220.064L220.731 103.622ZM232.173 98.025C232.173 96.3623 232.502 94.8833 233.159 93.588C233.836 92.2927 234.793 91.2873 236.03 90.572C237.287 89.8373 238.746 89.47 240.409 89.47C241.182 89.47 241.849 89.528 242.41 89.644C242.971 89.76 243.599 89.9147 244.295 90.108L245.136 90.34L244.962 95.299H242.439L241.714 92.109C241.598 91.6063 241.028 91.355 240.003 91.355C238.92 91.355 238.07 91.8287 237.451 92.776C236.852 93.7233 236.542 95.2023 236.523 97.213C236.523 99.3397 236.89 100.973 237.625 102.114C238.36 103.235 239.336 103.796 240.554 103.796C242.023 103.796 243.377 103.4 244.614 102.607L245.281 104.115C244.778 104.656 244.005 105.159 242.961 105.623C241.936 106.087 240.825 106.319 239.626 106.319C237.151 106.319 235.286 105.555 234.029 104.028C232.792 102.501 232.173 100.5 232.173 98.025ZM247.588 97.967C247.588 96.1497 247.946 94.603 248.661 93.327C249.396 92.051 250.372 91.094 251.59 90.456C252.808 89.7987 254.133 89.47 255.563 89.47C257.999 89.47 259.875 90.224 261.189 91.732C262.523 93.2207 263.19 95.2507 263.19 97.822C263.19 99.6587 262.823 101.225 262.088 102.52C261.373 103.796 260.406 104.753 259.188 105.391C257.99 106.01 256.665 106.319 255.215 106.319C252.799 106.319 250.923 105.575 249.589 104.086C248.255 102.578 247.588 100.538 247.588 97.967ZM255.447 104.434C257.632 104.434 258.724 102.327 258.724 98.112C258.724 95.908 258.463 94.2357 257.941 93.095C257.419 91.935 256.569 91.355 255.389 91.355C253.147 91.355 252.025 93.4623 252.025 97.677C252.025 99.881 252.296 101.563 252.837 102.723C253.398 103.864 254.268 104.434 255.447 104.434ZM267.45 92.631L265.594 92.109V90.108L270.408 89.499H270.495L271.22 90.079V91.21L271.191 91.906C271.868 91.268 272.748 90.717 273.83 90.253C274.913 89.789 276.005 89.557 277.107 89.557C278.287 89.557 279.205 89.7793 279.862 90.224C280.539 90.6493 281.022 91.326 281.312 92.254C281.602 93.182 281.747 94.4387 281.747 96.024V104.028L283.516 104.26V106H276.034V104.26L277.6 104.028V96.024C277.6 95.0187 277.533 94.2357 277.397 93.675C277.262 93.095 277.011 92.6793 276.643 92.428C276.295 92.1573 275.793 92.022 275.135 92.022C274.033 92.022 272.854 92.4957 271.597 93.443V103.999L273.337 104.26V106H265.768V104.26L267.45 103.999V92.631ZM287.19 92.631L285.334 92.109V90.108L290.148 89.499H290.235L290.96 90.079V91.21L290.931 91.906C291.607 91.268 292.487 90.717 293.57 90.253C294.652 89.789 295.745 89.557 296.847 89.557C298.026 89.557 298.944 89.7793 299.602 90.224C300.278 90.6493 300.762 91.326 301.052 92.254C301.342 93.182 301.487 94.4387 301.487 96.024V104.028L303.256 104.26V106H295.774V104.26L297.34 104.028V96.024C297.34 95.0187 297.272 94.2357 297.137 93.675C297.001 93.095 296.75 92.6793 296.383 92.428C296.035 92.1573 295.532 92.022 294.875 92.022C293.773 92.022 292.593 92.4957 291.337 93.443V103.999L293.077 104.26V106H285.508V104.26L287.19 103.999V92.631ZM312.613 106.319C310.061 106.319 308.157 105.575 306.9 104.086C305.663 102.578 305.044 100.529 305.044 97.938C305.044 96.198 305.363 94.69 306.001 93.414C306.658 92.138 307.577 91.1617 308.756 90.485C309.935 89.8083 311.298 89.47 312.845 89.47C314.778 89.47 316.267 89.9823 317.311 91.007C318.355 92.0123 318.896 93.4527 318.935 95.328C318.935 96.604 318.858 97.5513 318.703 98.17H309.278C309.355 99.9293 309.771 101.302 310.525 102.288C311.279 103.255 312.352 103.738 313.744 103.738C314.498 103.738 315.271 103.612 316.064 103.361C316.876 103.11 317.514 102.81 317.978 102.462L318.703 104.057C318.181 104.618 317.33 105.14 316.151 105.623C314.991 106.087 313.812 106.319 312.613 106.319ZM314.875 96.43C314.914 95.8887 314.933 95.473 314.933 95.183C314.933 92.6117 314.073 91.326 312.352 91.326C311.405 91.326 310.67 91.703 310.148 92.457C309.626 93.211 309.336 94.5353 309.278 96.43H314.875ZM320.872 98.025C320.872 96.3623 321.201 94.8833 321.858 93.588C322.535 92.2927 323.492 91.2873 324.729 90.572C325.986 89.8373 327.446 89.47 329.108 89.47C329.882 89.47 330.549 89.528 331.109 89.644C331.67 89.76 332.298 89.9147 332.994 90.108L333.835 90.34L333.661 95.299H331.138L330.413 92.109C330.297 91.6063 329.727 91.355 328.702 91.355C327.62 91.355 326.769 91.8287 326.15 92.776C325.551 93.7233 325.242 95.2023 325.222 97.213C325.222 99.3397 325.59 100.973 326.324 102.114C327.059 103.235 328.035 103.796 329.253 103.796C330.723 103.796 332.076 103.4 333.313 102.607L333.98 104.115C333.478 104.656 332.704 105.159 331.66 105.623C330.636 106.087 329.524 106.319 328.325 106.319C325.851 106.319 323.985 105.555 322.728 104.028C321.491 102.501 320.872 100.5 320.872 98.025ZM341.159 106.261C339.941 106.261 339.042 105.981 338.462 105.42C337.882 104.859 337.592 103.97 337.592 102.752V92.109H335.707V90.601C335.862 90.543 336.142 90.4463 336.548 90.311C336.954 90.1563 337.264 90.0307 337.476 89.934C337.805 89.6827 338.085 89.2477 338.317 88.629C338.491 88.223 338.81 87.2177 339.274 85.613H341.594L341.71 89.876H346.147V92.109H341.739V100.258C341.739 101.341 341.768 102.104 341.826 102.549C341.884 102.994 342.01 103.284 342.203 103.419C342.397 103.535 342.735 103.593 343.218 103.593C343.702 103.593 344.204 103.545 344.726 103.448C345.248 103.332 345.683 103.197 346.031 103.042L346.582 104.666C346.041 105.072 345.248 105.439 344.204 105.768C343.16 106.097 342.145 106.261 341.159 106.261ZM351.576 87.237C350.88 87.237 350.329 87.034 349.923 86.628C349.517 86.222 349.314 85.7 349.314 85.062C349.314 84.3273 349.546 83.7183 350.01 83.235C350.474 82.7517 351.093 82.51 351.866 82.51C352.64 82.51 353.229 82.7227 353.635 83.148C354.041 83.554 354.244 84.0663 354.244 84.685C354.244 85.4583 354.012 86.077 353.548 86.541C353.084 87.005 352.437 87.237 351.605 87.237H351.576ZM350.039 92.631L347.98 92.08V90.137L353.287 89.499H353.345L354.157 90.079V104.028L356.1 104.26V106H348.009V104.26L350.039 103.999V92.631ZM359.803 92.631L357.947 92.109V90.108L362.761 89.499H362.848L363.573 90.079V91.21L363.544 91.906C364.221 91.268 365.1 90.717 366.183 90.253C367.266 89.789 368.358 89.557 369.46 89.557C370.639 89.557 371.558 89.7793 372.215 90.224C372.892 90.6493 373.375 91.326 373.665 92.254C373.955 93.182 374.1 94.4387 374.1 96.024V104.028L375.869 104.26V106H368.387V104.26L369.953 104.028V96.024C369.953 95.0187 369.885 94.2357 369.75 93.675C369.615 93.095 369.363 92.6793 368.996 92.428C368.648 92.1573 368.145 92.022 367.488 92.022C366.386 92.022 365.207 92.4957 363.95 93.443V103.999L365.69 104.26V106H358.121V104.26L359.803 103.999V92.631ZM384.936 113.83C382.346 113.83 380.47 113.424 379.31 112.612C378.15 111.8 377.57 110.698 377.57 109.306C377.57 108.513 377.831 107.759 378.353 107.044C378.895 106.348 379.542 105.826 380.296 105.478C379.407 104.956 378.962 104.125 378.962 102.984C378.962 102.327 379.175 101.708 379.6 101.128C380.026 100.529 380.577 100.065 381.253 99.736C380.19 99.33 379.397 98.7113 378.875 97.88C378.353 97.0487 378.092 96.0627 378.092 94.922C378.092 93.82 378.411 92.863 379.049 92.051C379.707 91.2197 380.577 90.5817 381.659 90.137C382.761 89.6923 383.95 89.47 385.226 89.47C387.488 89.47 389.17 89.905 390.272 90.775C390.524 90.4463 390.949 90.137 391.548 89.847C392.148 89.557 392.766 89.412 393.404 89.412H394.419V92.573H391.432C391.722 93.1917 391.867 93.849 391.867 94.545C391.887 96.3043 391.268 97.7157 390.011 98.779C388.755 99.823 387.034 100.345 384.849 100.345C383.941 100.345 383.177 100.277 382.558 100.142C382.365 100.393 382.21 100.664 382.094 100.954C381.998 101.225 381.949 101.466 381.949 101.679C381.949 102.317 382.172 102.752 382.616 102.984C383.08 103.216 383.902 103.332 385.081 103.332H388.184C392.128 103.332 394.1 104.763 394.1 107.624C394.1 108.823 393.675 109.896 392.824 110.843C391.974 111.79 390.843 112.525 389.431 113.047C388.02 113.569 386.522 113.83 384.936 113.83ZM385.139 98.547C386.937 98.547 387.836 97.3193 387.836 94.864C387.836 93.6073 387.604 92.689 387.14 92.109C386.696 91.5097 386.009 91.21 385.081 91.21C384.173 91.21 383.467 91.5097 382.964 92.109C382.481 92.689 382.239 93.5687 382.239 94.748C382.239 97.2807 383.206 98.547 385.139 98.547ZM385.371 111.829C386.589 111.829 387.643 111.529 388.532 110.93C389.422 110.35 389.866 109.538 389.866 108.494C389.866 107.663 389.644 107.063 389.199 106.696C388.774 106.329 388.001 106.145 386.879 106.145H383.718C383.235 106.145 382.79 106.116 382.384 106.058C381.862 106.754 381.601 107.585 381.601 108.552C381.601 109.615 381.891 110.427 382.471 110.988C383.051 111.549 384.018 111.829 385.371 111.829ZM405.421 113.221C405.073 113.221 404.696 113.192 404.29 113.134C403.903 113.076 403.623 113.008 403.449 112.931V109.828C403.584 109.905 403.855 109.983 404.261 110.06C404.667 110.137 405.034 110.176 405.363 110.176C406.33 110.176 407.122 109.857 407.741 109.219C408.379 108.581 408.969 107.508 409.51 106H407.944L402.492 91.935L401.187 91.558V89.876H409.162V91.558L407.045 91.906L409.626 99.939L410.67 103.361L411.569 99.939L413.947 91.906L412.12 91.558V89.876H418.413V91.558L416.992 91.906C415.929 95.154 414.875 98.286 413.831 101.302C412.787 104.318 412.178 106.01 412.004 106.377C411.385 108.001 410.796 109.296 410.235 110.263C409.674 111.23 409.007 111.964 408.234 112.467C407.461 112.97 406.523 113.221 405.421 113.221ZM419.464 97.967C419.464 96.1497 419.822 94.603 420.537 93.327C421.272 92.051 422.248 91.094 423.466 90.456C424.684 89.7987 426.009 89.47 427.439 89.47C429.875 89.47 431.751 90.224 433.065 91.732C434.399 93.2207 435.066 95.2507 435.066 97.822C435.066 99.6587 434.699 101.225 433.964 102.52C433.249 103.796 432.282 104.753 431.064 105.391C429.866 106.01 428.541 106.319 427.091 106.319C424.675 106.319 422.799 105.575 421.465 104.086C420.131 102.578 419.464 100.538 419.464 97.967ZM427.323 104.434C429.508 104.434 430.6 102.327 430.6 98.112C430.6 95.908 430.339 94.2357 429.817 93.095C429.295 91.935 428.445 91.355 427.265 91.355C425.023 91.355 423.901 93.4623 423.901 97.677C423.901 99.881 424.172 101.563 424.713 102.723C425.274 103.864 426.144 104.434 427.323 104.434ZM450.781 106.29C450.143 106.29 449.679 106.155 449.389 105.884C449.099 105.613 448.954 105.207 448.954 104.666V103.883C448.432 104.521 447.698 105.091 446.75 105.594C445.803 106.077 444.856 106.319 443.908 106.319C442.052 106.319 440.728 105.845 439.935 104.898C439.143 103.931 438.746 102.346 438.746 100.142V91.964L437.296 91.558V89.905L442.226 89.528H442.255L442.835 89.934V100.142C442.835 101.553 443.009 102.539 443.357 103.1C443.705 103.661 444.353 103.941 445.3 103.941C446.441 103.941 447.504 103.496 448.49 102.607V91.964L446.547 91.529V89.905L451.796 89.528H451.854L452.55 89.934V104.202H454.174L454.145 105.855C454.068 105.874 453.71 105.952 453.072 106.087C452.434 106.222 451.671 106.29 450.781 106.29ZM456.224 104.289L458.138 104.057V92.631L456.282 92.109V90.108L460.777 89.499H460.864L461.589 90.079V90.717L461.502 93.066H461.589C461.724 92.6793 462.043 92.2057 462.546 91.645C463.049 91.065 463.677 90.5623 464.431 90.137C465.204 89.6923 466.036 89.47 466.925 89.47C467.35 89.47 467.718 89.528 468.027 89.644V93.994C467.447 93.588 466.741 93.385 465.91 93.385C464.499 93.385 463.271 93.762 462.227 94.516V104.028L465.591 104.289V106H456.224V104.289ZM475.451 82.858L480.758 82.22H480.816L481.628 82.771V91.326C482.15 90.804 482.788 90.369 483.542 90.021C484.316 89.6537 485.147 89.47 486.036 89.47C487.892 89.47 489.4 90.1273 490.56 91.442C491.74 92.7373 492.329 94.7287 492.329 97.416C492.329 99.0787 491.981 100.587 491.285 101.94C490.589 103.293 489.584 104.366 488.269 105.159C486.974 105.932 485.466 106.319 483.745 106.319C482.218 106.319 480.894 106.193 479.772 105.942C478.651 105.671 477.936 105.43 477.626 105.217V84.714L475.451 84.366V82.858ZM484.499 92.022C483.919 92.022 483.368 92.1573 482.846 92.428C482.344 92.6793 481.938 92.9693 481.628 93.298V103.883C481.744 104.096 482.015 104.27 482.44 104.405C482.866 104.54 483.349 104.608 483.89 104.608C485.128 104.608 486.114 104.038 486.848 102.897C487.602 101.737 487.979 100.026 487.979 97.764C487.979 95.8113 487.66 94.371 487.022 93.443C486.384 92.4957 485.543 92.022 484.499 92.022ZM494.364 101.476C494.364 99.7167 495.244 98.3923 497.003 97.503C498.782 96.6137 501.073 96.1593 503.876 96.14V95.473C503.876 94.6803 503.789 94.0617 503.615 93.617C503.46 93.1723 503.161 92.8437 502.716 92.631C502.291 92.399 501.662 92.283 500.831 92.283C499.884 92.283 499.033 92.4087 498.279 92.66C497.525 92.892 496.742 93.2013 495.93 93.588L495.031 91.732C495.321 91.4807 495.804 91.181 496.481 90.833C497.177 90.485 497.999 90.1853 498.946 89.934C499.893 89.6633 500.87 89.528 501.875 89.528C503.364 89.528 504.524 89.7213 505.355 90.108C506.206 90.4947 506.815 91.1133 507.182 91.964C507.549 92.8147 507.733 93.9553 507.733 95.386V104.26H509.299V105.884C508.912 105.981 508.361 106.077 507.646 106.174C506.931 106.271 506.302 106.319 505.761 106.319C505.104 106.319 504.659 106.222 504.427 106.029C504.214 105.836 504.108 105.439 504.108 104.84V104.057C503.586 104.637 502.909 105.159 502.078 105.623C501.247 106.087 500.309 106.319 499.265 106.319C498.376 106.319 497.554 106.135 496.8 105.768C496.065 105.381 495.476 104.83 495.031 104.115C494.586 103.38 494.364 102.501 494.364 101.476ZM501.121 103.912C501.527 103.912 501.991 103.796 502.513 103.564C503.035 103.313 503.489 103.013 503.876 102.665V97.909C502.136 97.909 500.831 98.2087 499.961 98.808C499.11 99.388 498.685 100.142 498.685 101.07C498.685 101.998 498.898 102.704 499.323 103.187C499.768 103.67 500.367 103.912 501.121 103.912ZM515.981 106.261C514.763 106.261 513.864 105.981 513.284 105.42C512.704 104.859 512.414 103.97 512.414 102.752V92.109H510.529V90.601C510.683 90.543 510.964 90.4463 511.37 90.311C511.776 90.1563 512.085 90.0307 512.298 89.934C512.626 89.6827 512.907 89.2477 513.139 88.629C513.313 88.223 513.632 87.2177 514.096 85.613H516.416L516.532 89.876H520.969V92.109H516.561V100.258C516.561 101.341 516.59 102.104 516.648 102.549C516.706 102.994 516.831 103.284 517.025 103.419C517.218 103.535 517.556 103.593 518.04 103.593C518.523 103.593 519.026 103.545 519.548 103.448C520.07 103.332 520.505 103.197 520.853 103.042L521.404 104.666C520.862 105.072 520.07 105.439 519.026 105.768C517.982 106.097 516.967 106.261 515.981 106.261ZM527.819 106.261C526.601 106.261 525.702 105.981 525.122 105.42C524.542 104.859 524.252 103.97 524.252 102.752V92.109H522.367V90.601C522.521 90.543 522.802 90.4463 523.208 90.311C523.614 90.1563 523.923 90.0307 524.136 89.934C524.464 89.6827 524.745 89.2477 524.977 88.629C525.151 88.223 525.47 87.2177 525.934 85.613H528.254L528.37 89.876H532.807V92.109H528.399V100.258C528.399 101.341 528.428 102.104 528.486 102.549C528.544 102.994 528.669 103.284 528.863 103.419C529.056 103.535 529.394 103.593 529.878 103.593C530.361 103.593 530.864 103.545 531.386 103.448C531.908 103.332 532.343 103.197 532.691 103.042L533.242 104.666C532.7 105.072 531.908 105.439 530.864 105.768C529.82 106.097 528.805 106.261 527.819 106.261ZM542.092 106.319C539.54 106.319 537.636 105.575 536.379 104.086C535.142 102.578 534.523 100.529 534.523 97.938C534.523 96.198 534.842 94.69 535.48 93.414C536.138 92.138 537.056 91.1617 538.235 90.485C539.415 89.8083 540.778 89.47 542.324 89.47C544.258 89.47 545.746 89.9823 546.79 91.007C547.834 92.0123 548.376 93.4527 548.414 95.328C548.414 96.604 548.337 97.5513 548.182 98.17H538.757C538.835 99.9293 539.25 101.302 540.004 102.288C540.758 103.255 541.831 103.738 543.223 103.738C543.977 103.738 544.751 103.612 545.543 103.361C546.355 103.11 546.993 102.81 547.457 102.462L548.182 104.057C547.66 104.618 546.81 105.14 545.63 105.623C544.47 106.087 543.291 106.319 542.092 106.319ZM544.354 96.43C544.393 95.8887 544.412 95.473 544.412 95.183C544.412 92.6117 543.552 91.326 541.831 91.326C540.884 91.326 540.149 91.703 539.627 92.457C539.105 93.211 538.815 94.5353 538.757 96.43H544.354ZM550.729 104.289L552.643 104.057V92.631L550.787 92.109V90.108L555.282 89.499H555.369L556.094 90.079V90.717L556.007 93.066H556.094C556.229 92.6793 556.548 92.2057 557.051 91.645C557.553 91.065 558.182 90.5623 558.936 90.137C559.709 89.6923 560.54 89.47 561.43 89.47C561.855 89.47 562.222 89.528 562.532 89.644V93.994C561.952 93.588 561.246 93.385 560.415 93.385C559.003 93.385 557.776 93.762 556.732 94.516V104.028L560.096 104.289V106H550.729V104.289ZM566.96 113.221C566.612 113.221 566.235 113.192 565.829 113.134C565.443 113.076 565.162 113.008 564.988 112.931V109.828C565.124 109.905 565.394 109.983 565.8 110.06C566.206 110.137 566.574 110.176 566.902 110.176C567.869 110.176 568.662 109.857 569.28 109.219C569.918 108.581 570.508 107.508 571.049 106H569.483L564.031 91.935L562.726 91.558V89.876H570.701V91.558L568.584 91.906L571.165 99.939L572.209 103.361L573.108 99.939L575.486 91.906L573.659 91.558V89.876H579.952V91.558L578.531 91.906C577.468 95.154 576.414 98.286 575.37 101.302C574.326 104.318 573.717 106.01 573.543 106.377C572.925 108.001 572.335 109.296 571.774 110.263C571.214 111.23 570.547 111.964 569.773 112.467C569 112.97 568.062 113.221 566.96 113.221ZM589.886 92.138H587.45V90.514L589.886 89.934V88.658C589.886 87.4013 590.215 86.251 590.872 85.207C591.549 84.163 592.448 83.3413 593.569 82.742C594.69 82.1233 595.879 81.814 597.136 81.814C597.793 81.814 598.412 81.9107 598.992 82.104V85.816C598.799 85.6227 598.412 85.4293 597.832 85.236C597.271 85.0427 596.682 84.946 596.063 84.946C595.309 84.946 594.768 85.1393 594.439 85.526C594.13 85.8933 593.975 86.5313 593.975 87.44V89.905H597.658V92.138H593.975V104.028L597.02 104.26V106H587.595V104.26L589.886 103.999V92.138ZM599.723 104.289L601.637 104.057V92.631L599.781 92.109V90.108L604.276 89.499H604.363L605.088 90.079V90.717L605.001 93.066H605.088C605.223 92.6793 605.542 92.2057 606.045 91.645C606.548 91.065 607.176 90.5623 607.93 90.137C608.703 89.6923 609.535 89.47 610.424 89.47C610.849 89.47 611.217 89.528 611.526 89.644V93.994C610.946 93.588 610.24 93.385 609.409 93.385C607.998 93.385 606.77 93.762 605.726 94.516V104.028L609.09 104.289V106H599.723V104.289ZM613.373 97.967C613.373 96.1497 613.731 94.603 614.446 93.327C615.181 92.051 616.157 91.094 617.375 90.456C618.593 89.7987 619.918 89.47 621.348 89.47C623.784 89.47 625.66 90.224 626.974 91.732C628.308 93.2207 628.975 95.2507 628.975 97.822C628.975 99.6587 628.608 101.225 627.873 102.52C627.158 103.796 626.191 104.753 624.973 105.391C623.775 106.01 622.45 106.319 621 106.319C618.584 106.319 616.708 105.575 615.374 104.086C614.04 102.578 613.373 100.538 613.373 97.967ZM621.232 104.434C623.417 104.434 624.509 102.327 624.509 98.112C624.509 95.908 624.248 94.2357 623.726 93.095C623.204 91.935 622.354 91.355 621.174 91.355C618.932 91.355 617.81 93.4623 617.81 97.677C617.81 99.881 618.081 101.563 618.622 102.723C619.183 103.864 620.053 104.434 621.232 104.434ZM631.612 104.26L633.236 103.999V92.631L631.38 92.109V90.108L636.194 89.499L636.542 89.731L636.977 90.688V91.906C637.615 91.2873 638.523 90.746 639.703 90.282C640.901 89.7987 641.936 89.557 642.806 89.557C643.85 89.557 644.691 89.731 645.329 90.079C645.986 90.427 646.479 90.9683 646.808 91.703C647.446 91.123 648.287 90.6203 649.331 90.195C650.375 89.7697 651.399 89.557 652.405 89.557C654.125 89.557 655.343 90.0597 656.059 91.065C656.774 92.0703 657.132 93.7137 657.132 95.995V103.999L659.017 104.26V106H651.506V104.26L653.014 103.999V96.111C653.014 94.603 652.83 93.5493 652.463 92.95C652.115 92.3313 651.438 92.022 650.433 92.022C649.891 92.022 649.331 92.1477 648.751 92.399C648.19 92.631 647.687 92.921 647.243 93.269C647.378 94.0037 647.446 94.922 647.446 96.024V103.999L649.244 104.26V106H641.675V104.26L643.27 103.999V96.024C643.27 95.0187 643.202 94.2357 643.067 93.675C642.951 93.095 642.719 92.6793 642.371 92.428C642.023 92.1573 641.52 92.022 640.863 92.022C640.244 92.022 639.625 92.167 639.007 92.457C638.407 92.7277 637.866 93.0563 637.383 93.443V103.999L639.094 104.26V106H631.612V104.26ZM192.64 122.628L189.508 122.251V120.453H198.556L202.007 132.923L202.819 136.316L203.515 132.923L206.937 120.453H215.898V122.251L212.737 122.628L215.057 139.941L217.406 140.26V142H208.155V140.26L210.707 139.97L209.431 127.268L208.88 121.961L207.807 126.427L203.602 141.101H200.528L196.236 127.181L194.757 121.961L194.322 127.268L193.22 139.97L196.149 140.26V142H188.087V140.26L190.523 139.97L192.64 122.628ZM220.932 122.628L218.757 122.251V120.453H223.136C223.542 120.453 224.171 120.434 225.021 120.395C226.143 120.318 227.158 120.279 228.066 120.279C230.077 120.279 231.662 120.53 232.822 121.033C234.002 121.516 234.833 122.222 235.316 123.15C235.819 124.059 236.07 125.219 236.07 126.63C236.07 129.066 235.307 130.961 233.779 132.314C232.271 133.667 230.174 134.344 227.486 134.344C226.423 134.344 225.659 134.315 225.195 134.257V139.97L229.081 140.26V142H218.641V140.26L220.932 139.97V122.628ZM225.166 132.401C225.611 132.498 226.365 132.546 227.428 132.546C228.724 132.546 229.758 132.101 230.531 131.212C231.324 130.303 231.72 128.805 231.72 126.717C231.72 125.093 231.363 123.914 230.647 123.179C229.951 122.425 228.878 122.048 227.428 122.048C226.887 122.048 226.326 122.087 225.746 122.164C225.476 122.203 225.282 122.222 225.166 122.222V132.401ZM240.105 122.628L237.93 122.251V120.453H242.309C242.715 120.453 243.344 120.434 244.194 120.395C245.316 120.318 246.331 120.279 247.239 120.279C249.25 120.279 250.835 120.53 251.995 121.033C253.175 121.516 254.006 122.222 254.489 123.15C254.992 124.059 255.243 125.219 255.243 126.63C255.243 129.066 254.48 130.961 252.952 132.314C251.444 133.667 249.347 134.344 246.659 134.344C245.596 134.344 244.832 134.315 244.368 134.257V139.97L248.254 140.26V142H237.814V140.26L240.105 139.97V122.628ZM244.339 132.401C244.784 132.498 245.538 132.546 246.601 132.546C247.897 132.546 248.931 132.101 249.704 131.212C250.497 130.303 250.893 128.805 250.893 126.717C250.893 125.093 250.536 123.914 249.82 123.179C249.124 122.425 248.051 122.048 246.601 122.048C246.06 122.048 245.499 122.087 244.919 122.164C244.649 122.203 244.455 122.222 244.339 122.222V132.401ZM264.005 122.367L259.858 122.512L258.727 128.834H256.291L256.784 120.453H275.489L275.837 128.834H273.546L272.415 122.512L268.326 122.367V139.97L272.386 140.26V142H260.293V140.26L264.005 139.97V122.367ZM286.776 122.628L284.601 122.251V120.453H288.835C289.473 120.453 290.334 120.414 291.416 120.337C291.668 120.318 292.045 120.298 292.547 120.279C293.069 120.26 293.533 120.25 293.939 120.25C297.497 120.25 300.155 121.139 301.914 122.918C303.693 124.697 304.582 127.22 304.582 130.487C304.582 132.768 304.138 134.798 303.248 136.577C302.378 138.356 301.131 139.748 299.507 140.753C297.883 141.739 295.989 142.232 293.823 142.232C293.263 142.232 292.383 142.193 291.184 142.116C290.063 142.039 289.299 142 288.893 142H284.485V140.26L286.776 139.97V122.628ZM290.981 140.057C291.639 140.231 292.557 140.318 293.736 140.318C295.67 140.279 297.187 139.506 298.289 137.998C299.391 136.471 299.942 134.189 299.942 131.154C299.942 128.273 299.401 126.05 298.318 124.484C297.236 122.899 295.554 122.106 293.272 122.106C292.789 122.106 292.325 122.135 291.88 122.193C291.455 122.251 291.155 122.29 290.981 122.309V140.057ZM314.029 142.319C311.477 142.319 309.573 141.575 308.316 140.086C307.079 138.578 306.46 136.529 306.46 133.938C306.46 132.198 306.779 130.69 307.417 129.414C308.074 128.138 308.993 127.162 310.172 126.485C311.351 125.808 312.714 125.47 314.261 125.47C316.194 125.47 317.683 125.982 318.727 127.007C319.771 128.012 320.312 129.453 320.351 131.328C320.351 132.604 320.274 133.551 320.119 134.17H310.694C310.771 135.929 311.187 137.302 311.941 138.288C312.695 139.255 313.768 139.738 315.16 139.738C315.914 139.738 316.687 139.612 317.48 139.361C318.292 139.11 318.93 138.81 319.394 138.462L320.119 140.057C319.597 140.618 318.746 141.14 317.567 141.623C316.407 142.087 315.228 142.319 314.029 142.319ZM316.291 132.43C316.33 131.889 316.349 131.473 316.349 131.183C316.349 128.612 315.489 127.326 313.768 127.326C312.821 127.326 312.086 127.703 311.564 128.457C311.042 129.211 310.752 130.535 310.694 132.43H316.291ZM321.186 125.876H328.842V127.558L326.928 127.935L329.567 135.823L330.495 138.897L331.278 135.91L333.859 127.935L332.032 127.558V125.876H338.412V127.558L336.904 127.935L331.51 142.232H328.146L322.375 127.935L321.186 127.558V125.876ZM342.684 123.237C341.988 123.237 341.437 123.034 341.031 122.628C340.625 122.222 340.422 121.7 340.422 121.062C340.422 120.327 340.654 119.718 341.118 119.235C341.582 118.752 342.2 118.51 342.974 118.51C343.747 118.51 344.337 118.723 344.743 119.148C345.149 119.554 345.352 120.066 345.352 120.685C345.352 121.458 345.12 122.077 344.656 122.541C344.192 123.005 343.544 123.237 342.713 123.237H342.684ZM341.147 128.631L339.088 128.08V126.137L344.395 125.499H344.453L345.265 126.079V140.028L347.208 140.26V142H339.117V140.26L341.147 139.999V128.631ZM348.909 134.025C348.909 132.362 349.238 130.883 349.895 129.588C350.572 128.293 351.529 127.287 352.766 126.572C354.023 125.837 355.483 125.47 357.145 125.47C357.919 125.47 358.586 125.528 359.146 125.644C359.707 125.76 360.335 125.915 361.031 126.108L361.872 126.34L361.698 131.299H359.175L358.45 128.109C358.334 127.606 357.764 127.355 356.739 127.355C355.657 127.355 354.806 127.829 354.187 128.776C353.588 129.723 353.279 131.202 353.259 133.213C353.259 135.34 353.627 136.973 354.361 138.114C355.096 139.235 356.072 139.796 357.29 139.796C358.76 139.796 360.113 139.4 361.35 138.607L362.017 140.115C361.515 140.656 360.741 141.159 359.697 141.623C358.673 142.087 357.561 142.319 356.362 142.319C353.888 142.319 352.022 141.555 350.765 140.028C349.528 138.501 348.909 136.5 348.909 134.025ZM371.633 142.319C369.081 142.319 367.176 141.575 365.92 140.086C364.682 138.578 364.064 136.529 364.064 133.938C364.064 132.198 364.383 130.69 365.021 129.414C365.678 128.138 366.596 127.162 367.776 126.485C368.955 125.808 370.318 125.47 371.865 125.47C373.798 125.47 375.287 125.982 376.331 127.007C377.375 128.012 377.916 129.453 377.955 131.328C377.955 132.604 377.877 133.551 377.723 134.17H368.298C368.375 135.929 368.791 137.302 369.545 138.288C370.299 139.255 371.372 139.738 372.764 139.738C373.518 139.738 374.291 139.612 375.084 139.361C375.896 139.11 376.534 138.81 376.998 138.462L377.723 140.057C377.201 140.618 376.35 141.14 375.171 141.623C374.011 142.087 372.831 142.319 371.633 142.319ZM373.895 132.43C373.933 131.889 373.953 131.473 373.953 131.183C373.953 128.612 373.092 127.326 371.372 127.326C370.424 127.326 369.69 127.703 369.168 128.457C368.646 129.211 368.356 130.535 368.298 132.43H373.895ZM382.995 142.261C382.396 142.261 381.874 142.058 381.429 141.652C380.984 141.227 380.762 140.695 380.762 140.057C380.762 139.342 381.013 138.762 381.516 138.317C382.038 137.853 382.666 137.621 383.401 137.621C384.097 137.621 384.648 137.843 385.054 138.288C385.46 138.713 385.663 139.226 385.663 139.825C385.663 140.579 385.412 141.178 384.909 141.623C384.426 142.048 383.788 142.261 382.995 142.261Z" fill="#F24E1E"/>
<path d="M150.399 108.667L99.266 23.8666C97.1984 20.6321 94.3497 17.9701 90.9826 16.1262C87.6155 14.2823 83.8383 13.3158 79.9994 13.3158C76.1604 13.3158 72.3833 14.2823 69.0161 16.1262C65.649 17.9701 62.8003 20.6321 60.7327 23.8666L9.59937 108.667C7.79306 111.678 6.81129 115.111 6.75278 118.622C6.69426 122.133 7.56107 125.597 9.26603 128.667C11.2372 132.122 14.0904 134.992 17.534 136.983C20.9777 138.974 24.8882 140.015 28.866 140H131.133C135.084 140.042 138.977 139.041 142.419 137.098C145.86 135.155 148.728 132.339 150.733 128.933C152.488 125.832 153.382 122.318 153.324 118.755C153.265 115.191 152.255 111.709 150.399 108.667V108.667ZM139.066 122.333C138.265 123.711 137.102 124.842 135.704 125.606C134.305 126.37 132.725 126.737 131.133 126.667H28.866C27.2742 126.737 25.6935 126.37 24.2951 125.606C22.8967 124.842 21.7339 123.711 20.9327 122.333C20.3476 121.32 20.0395 120.17 20.0395 119C20.0395 117.83 20.3476 116.68 20.9327 115.667L72.1327 30.8C73.0527 29.5847 74.2418 28.5991 75.6067 27.9204C76.9716 27.2418 78.4751 26.8887 79.9994 26.8887C81.5236 26.8887 83.0272 27.2418 84.3921 27.9204C85.7569 28.5991 86.946 29.5847 87.866 30.8L138.999 115.6C139.607 116.615 139.934 117.774 139.945 118.958C139.957 120.141 139.654 121.306 139.066 122.333V122.333Z" fill="#F24E1E"/>
<path d="M79.9997 113.333C83.6816 113.333 86.6663 110.349 86.6663 106.667C86.6663 102.985 83.6816 100 79.9997 100C76.3178 100 73.333 102.985 73.333 106.667C73.333 110.349 76.3178 113.333 79.9997 113.333Z" fill="#F24E1E"/>
<path d="M79.9997 53.3334C78.2316 53.3334 76.5359 54.0358 75.2856 55.286C74.0354 56.5362 73.333 58.2319 73.333 60V86.6667C73.333 88.4348 74.0354 90.1305 75.2856 91.3808C76.5359 92.631 78.2316 93.3334 79.9997 93.3334C81.7678 93.3334 83.4635 92.631 84.7137 91.3808C85.964 90.1305 86.6663 88.4348 86.6663 86.6667V60C86.6663 58.2319 85.964 56.5362 84.7137 55.286C83.4635 54.0358 81.7678 53.3334 79.9997 53.3334Z" fill="#F24E1E"/>
</svg>
