<svg width="541" height="136" viewBox="0 0 541 136" fill="none" xmlns="http://www.w3.org/2000/svg">
<path d="M162.157 49.604L158.162 48.993V46.079H173.202V48.993L169.066 49.604V77.71L173.202 78.227V81H158.162V78.18L162.157 77.71V49.604ZM180.07 59.333L177.062 58.487V55.244L184.864 54.257H185.005L186.18 55.197V57.03L186.133 58.158C187.23 57.124 188.656 56.231 190.41 55.479C192.165 54.727 193.935 54.351 195.721 54.351C197.633 54.351 199.121 54.7113 200.186 55.432C201.283 56.1213 202.066 57.218 202.536 58.722C203.006 60.226 203.241 62.2627 203.241 64.832V77.804L206.108 78.18V81H193.982V78.18L196.52 77.804V64.832C196.52 63.2027 196.411 61.9337 196.191 61.025C195.972 60.085 195.565 59.4113 194.969 59.004C194.405 58.5653 193.591 58.346 192.525 58.346C190.739 58.346 188.828 59.1137 186.791 60.649V77.757L189.611 78.18V81H177.344V78.18L180.07 77.757V59.333ZM207.032 54.868H219.44V57.594L216.338 58.205L220.615 70.989L222.119 75.971L223.388 71.13L227.571 58.205L224.61 57.594V54.868H234.95V57.594L232.506 58.205L223.764 81.376H218.312L208.959 58.205L207.032 57.594V54.868ZM235.763 73.668C235.763 70.8167 237.189 68.6703 240.04 67.229C242.923 65.7877 246.636 65.0513 251.179 65.02V63.939C251.179 62.6543 251.038 61.6517 250.756 60.931C250.505 60.2103 250.02 59.6777 249.299 59.333C248.61 58.957 247.591 58.769 246.244 58.769C244.709 58.769 243.33 58.9727 242.108 59.38C240.886 59.756 239.617 60.2573 238.301 60.884L236.844 57.876C237.314 57.4687 238.097 56.983 239.194 56.419C240.322 55.855 241.654 55.3693 243.189 54.962C244.724 54.5233 246.307 54.304 247.936 54.304C250.349 54.304 252.229 54.6173 253.576 55.244C254.955 55.8707 255.942 56.8733 256.537 58.252C257.132 59.6307 257.43 61.4793 257.43 63.798V78.18H259.968V80.812C259.341 80.9687 258.448 81.1253 257.289 81.282C256.13 81.4387 255.111 81.517 254.234 81.517C253.169 81.517 252.448 81.3603 252.072 81.047C251.727 80.7337 251.555 80.0913 251.555 79.12V77.851C250.709 78.791 249.612 79.637 248.265 80.389C246.918 81.141 245.398 81.517 243.706 81.517C242.265 81.517 240.933 81.2193 239.711 80.624C238.52 79.9973 237.565 79.1043 236.844 77.945C236.123 76.7543 235.763 75.3287 235.763 73.668ZM246.714 77.616C247.372 77.616 248.124 77.428 248.97 77.052C249.816 76.6447 250.552 76.159 251.179 75.595V67.887C248.359 67.887 246.244 68.3727 244.834 69.344C243.455 70.284 242.766 71.506 242.766 73.01C242.766 74.514 243.111 75.6577 243.8 76.441C244.521 77.2243 245.492 77.616 246.714 77.616ZM265.627 46.643L262.149 46.032V43.494L270.844 42.46H270.938L272.207 43.353V77.804L275.638 78.18V81H262.337V78.18L265.627 77.757V46.643ZM284.467 50.591C283.339 50.591 282.446 50.262 281.788 49.604C281.13 48.946 280.801 48.1 280.801 47.066C280.801 45.8753 281.177 44.8883 281.929 44.105C282.681 43.3217 283.683 42.93 284.937 42.93C286.19 42.93 287.146 43.2747 287.804 43.964C288.462 44.622 288.791 45.4523 288.791 46.455C288.791 47.7083 288.415 48.711 287.663 49.463C286.911 50.215 285.861 50.591 284.514 50.591H284.467ZM281.976 59.333L278.639 58.44V55.291L287.24 54.257H287.334L288.65 55.197V77.804L291.799 78.18V81H278.686V78.18L281.976 77.757V59.333ZM304.991 81.517C303.048 81.517 301.309 81.0627 299.774 80.154C298.238 79.214 297.016 77.7727 296.108 75.83C295.199 73.8873 294.745 71.459 294.745 68.545C294.745 65.913 295.277 63.516 296.343 61.354C297.439 59.1607 299.037 57.4217 301.137 56.137C303.236 54.8523 305.758 54.21 308.704 54.21C309.894 54.21 311.022 54.3353 312.088 54.586V46.643L307.482 45.985V43.4L317.164 42.46H317.305L318.621 43.447V78.133H321.159V80.812C318.903 81.282 317.038 81.517 315.566 81.517C314.563 81.517 313.842 81.3447 313.404 81C312.996 80.6867 312.793 80.0443 312.793 79.073V77.757C311.978 78.8537 310.866 79.7623 309.456 80.483C308.046 81.1723 306.557 81.517 304.991 81.517ZM307.435 77.616C308.469 77.616 309.377 77.4123 310.161 77.005C310.975 76.5663 311.618 76.0493 312.088 75.454V58.346C311.868 58.0327 311.398 57.7663 310.678 57.547C309.988 57.3277 309.236 57.218 308.422 57.218C306.416 57.218 304.803 58.0953 303.581 59.85C302.39 61.5733 301.795 64.3463 301.795 68.169C301.795 71.365 302.312 73.7463 303.346 75.313C304.38 76.8483 305.743 77.616 307.435 77.616ZM347.586 81.517C345.894 81.517 344.374 81.376 343.027 81.094C341.68 80.812 340.176 80.436 338.515 79.966C337.418 79.6527 336.682 79.4803 336.306 79.449L336.729 70.754H340.536L341.57 76.817C341.977 77.2557 342.698 77.6473 343.732 77.992C344.797 78.3367 346.004 78.509 347.351 78.509C349.45 78.509 351.017 78.0547 352.051 77.146C353.116 76.206 353.649 74.9057 353.649 73.245C353.649 72.1483 353.336 71.2083 352.709 70.425C352.082 69.6103 351.221 68.8897 350.124 68.263C349.027 67.605 347.523 66.853 345.612 66.007C343.011 64.8163 340.849 63.4063 339.126 61.777C337.434 60.1163 336.588 57.876 336.588 55.056C336.588 53.3013 337.042 51.719 337.951 50.309C338.86 48.8677 340.207 47.7397 341.993 46.925C343.81 46.079 346.019 45.656 348.62 45.656C350.155 45.656 351.503 45.7657 352.662 45.985C353.853 46.2043 355.137 46.502 356.516 46.878C357.331 47.0973 357.942 47.2383 358.349 47.301L358.067 55.526H354.307L353.32 49.745C353.038 49.463 352.474 49.1967 351.628 48.946C350.782 48.664 349.842 48.523 348.808 48.523C346.928 48.523 345.502 48.9617 344.531 49.839C343.591 50.685 343.121 51.8287 343.121 53.27C343.121 54.4293 343.466 55.432 344.155 56.278C344.876 57.124 345.737 57.8447 346.74 58.44C347.743 59.004 349.325 59.8187 351.487 60.884C353.242 61.73 354.746 62.5603 355.999 63.375C357.252 64.1897 358.333 65.255 359.242 66.571C360.151 67.8557 360.605 69.3753 360.605 71.13C360.605 72.8533 360.166 74.4983 359.289 76.065C358.443 77.6317 357.033 78.932 355.059 79.966C353.116 81 350.625 81.517 347.586 81.517ZM375.905 81.517C371.769 81.517 368.683 80.3107 366.646 77.898C364.641 75.454 363.638 72.1327 363.638 67.934C363.638 65.114 364.155 62.67 365.189 60.602C366.255 58.534 367.743 56.9517 369.654 55.855C371.566 54.7583 373.775 54.21 376.281 54.21C379.415 54.21 381.827 55.0403 383.519 56.701C385.211 58.3303 386.089 60.6647 386.151 63.704C386.151 65.772 386.026 67.3073 385.775 68.31H370.5C370.626 71.1613 371.299 73.386 372.521 74.984C373.743 76.5507 375.482 77.334 377.738 77.334C378.96 77.334 380.214 77.1303 381.498 76.723C382.814 76.3157 383.848 75.83 384.6 75.266L385.775 77.851C384.929 78.7597 383.551 79.6057 381.639 80.389C379.759 81.141 377.848 81.517 375.905 81.517ZM379.571 65.49C379.634 64.6127 379.665 63.939 379.665 63.469C379.665 59.3017 378.271 57.218 375.482 57.218C373.947 57.218 372.756 57.829 371.91 59.051C371.064 60.273 370.594 62.4193 370.5 65.49H379.571ZM397.798 81.423C395.824 81.423 394.367 80.9687 393.427 80.06C392.487 79.1513 392.017 77.71 392.017 75.736V58.487H388.962V56.043C389.213 55.949 389.667 55.7923 390.325 55.573C390.983 55.3223 391.484 55.1187 391.829 54.962C392.362 54.5547 392.816 53.8497 393.192 52.847C393.474 52.189 393.991 50.5597 394.743 47.959H398.503L398.691 54.868H405.882V58.487H398.738V71.694C398.738 73.4487 398.785 74.6863 398.879 75.407C398.973 76.1277 399.177 76.5977 399.49 76.817C399.803 77.005 400.352 77.099 401.135 77.099C401.918 77.099 402.733 77.0207 403.579 76.864C404.425 76.676 405.13 76.4567 405.694 76.206L406.587 78.838C405.71 79.496 404.425 80.0913 402.733 80.624C401.041 81.1567 399.396 81.423 397.798 81.423ZM416.984 81.423C415.01 81.423 413.553 80.9687 412.613 80.06C411.673 79.1513 411.203 77.71 411.203 75.736V58.487H408.148V56.043C408.398 55.949 408.853 55.7923 409.511 55.573C410.169 55.3223 410.67 55.1187 411.015 54.962C411.547 54.5547 412.002 53.8497 412.378 52.847C412.66 52.189 413.177 50.5597 413.929 47.959H417.689L417.877 54.868H425.068V58.487H417.924V71.694C417.924 73.4487 417.971 74.6863 418.065 75.407C418.159 76.1277 418.362 76.5977 418.676 76.817C418.989 77.005 419.537 77.099 420.321 77.099C421.104 77.099 421.919 77.0207 422.765 76.864C423.611 76.676 424.316 76.4567 424.88 76.206L425.773 78.838C424.895 79.496 423.611 80.0913 421.919 80.624C420.227 81.1567 418.582 81.423 416.984 81.423ZM433.866 50.591C432.738 50.591 431.845 50.262 431.187 49.604C430.529 48.946 430.2 48.1 430.2 47.066C430.2 45.8753 430.576 44.8883 431.328 44.105C432.08 43.3217 433.083 42.93 434.336 42.93C435.59 42.93 436.545 43.2747 437.203 43.964C437.861 44.622 438.19 45.4523 438.19 46.455C438.19 47.7083 437.814 48.711 437.062 49.463C436.31 50.215 435.261 50.591 433.913 50.591H433.866ZM431.375 59.333L428.038 58.44V55.291L436.639 54.257H436.733L438.049 55.197V77.804L441.198 78.18V81H428.085V78.18L431.375 77.757V59.333ZM447.199 59.333L444.191 58.487V55.244L451.993 54.257H452.134L453.309 55.197V57.03L453.262 58.158C454.359 57.124 455.784 56.231 457.539 55.479C459.294 54.727 461.064 54.351 462.85 54.351C464.761 54.351 466.25 54.7113 467.315 55.432C468.412 56.1213 469.195 57.218 469.665 58.722C470.135 60.226 470.37 62.2627 470.37 64.832V77.804L473.237 78.18V81H461.111V78.18L463.649 77.804V64.832C463.649 63.2027 463.539 61.9337 463.32 61.025C463.101 60.085 462.693 59.4113 462.098 59.004C461.534 58.5653 460.719 58.346 459.654 58.346C457.868 58.346 455.957 59.1137 453.92 60.649V77.757L456.74 78.18V81H444.473V78.18L447.199 77.757V59.333ZM487.932 93.69C483.734 93.69 480.694 93.032 478.814 91.716C476.934 90.4 475.994 88.614 475.994 86.358C475.994 85.0733 476.417 83.8513 477.263 82.692C478.141 81.564 479.19 80.718 480.412 80.154C478.971 79.308 478.25 77.9607 478.25 76.112C478.25 75.0467 478.595 74.044 479.284 73.104C479.974 72.1327 480.867 71.3807 481.963 70.848C480.24 70.19 478.955 69.1873 478.109 67.84C477.263 66.4927 476.84 64.8947 476.84 63.046C476.84 61.26 477.357 59.709 478.391 58.393C479.457 57.0457 480.867 56.0117 482.621 55.291C484.407 54.5703 486.334 54.21 488.402 54.21C492.068 54.21 494.794 54.915 496.58 56.325C496.988 55.7923 497.677 55.291 498.648 54.821C499.62 54.351 500.622 54.116 501.656 54.116H503.301V59.239H498.46C498.93 60.2417 499.165 61.307 499.165 62.435C499.197 65.2863 498.194 67.5737 496.157 69.297C494.121 70.989 491.332 71.835 487.791 71.835C486.319 71.835 485.081 71.7253 484.078 71.506C483.765 71.9133 483.514 72.352 483.326 72.822C483.17 73.2607 483.091 73.6523 483.091 73.997C483.091 75.031 483.452 75.736 484.172 76.112C484.924 76.488 486.256 76.676 488.167 76.676H493.196C499.588 76.676 502.784 78.9947 502.784 83.632C502.784 85.5747 502.095 87.3137 500.716 88.849C499.338 90.3843 497.505 91.575 495.217 92.421C492.93 93.267 490.502 93.69 487.932 93.69ZM488.261 68.921C491.175 68.921 492.632 66.9313 492.632 62.952C492.632 60.9153 492.256 59.427 491.504 58.487C490.784 57.5157 489.671 57.03 488.167 57.03C486.695 57.03 485.551 57.5157 484.736 58.487C483.953 59.427 483.561 60.8527 483.561 62.764C483.561 66.8687 485.128 68.921 488.261 68.921ZM488.637 90.447C490.611 90.447 492.319 89.9613 493.76 88.99C495.202 88.05 495.922 86.734 495.922 85.042C495.922 83.6947 495.562 82.7233 494.841 82.128C494.152 81.5327 492.899 81.235 491.081 81.235H485.958C485.175 81.235 484.454 81.188 483.796 81.094C482.95 82.222 482.527 83.5693 482.527 85.136C482.527 86.8593 482.997 88.1753 483.937 89.084C484.877 89.9927 486.444 90.447 488.637 90.447ZM511.013 77.146C511.263 77.522 511.827 77.8823 512.705 78.227C513.613 78.5403 514.522 78.697 515.431 78.697C516.903 78.697 518 78.3993 518.721 77.804C519.473 77.1773 519.849 76.3627 519.849 75.36C519.849 74.326 519.394 73.4957 518.486 72.869C517.577 72.211 516.042 71.412 513.88 70.472L512.564 69.908C510.402 68.9993 508.788 67.9027 507.723 66.618C506.657 65.3333 506.125 63.6727 506.125 61.636C506.125 60.226 506.548 58.9727 507.394 57.876C508.24 56.748 509.43 55.8707 510.966 55.244C512.501 54.6173 514.271 54.304 516.277 54.304C517.749 54.304 519.003 54.398 520.037 54.586C521.102 54.774 522.214 55.0247 523.374 55.338C524 55.5573 524.47 55.6827 524.784 55.714V61.871H521.071L519.99 58.299C519.802 57.9857 519.379 57.7037 518.721 57.453C518.063 57.2023 517.311 57.077 516.465 57.077C515.18 57.077 514.146 57.359 513.363 57.923C512.611 58.4557 512.235 59.2077 512.235 60.179C512.235 61.0563 512.501 61.7927 513.034 62.388C513.566 62.952 514.146 63.3907 514.773 63.704C515.399 64.0173 516.559 64.5343 518.251 65.255C519.943 65.9757 521.337 66.665 522.434 67.323C523.562 67.981 524.486 68.8427 525.207 69.908C525.959 70.942 526.335 72.211 526.335 73.715C526.335 76.0337 525.426 77.9137 523.609 79.355C521.791 80.7963 519.175 81.517 515.76 81.517C514.162 81.517 512.72 81.376 511.436 81.094C510.182 80.812 508.725 80.436 507.065 79.966L506.031 79.637V73.433H509.932L511.013 77.146ZM538.205 69.25H534.163L532.377 39.405H539.944L538.205 69.25ZM532.377 77.898C532.377 76.77 532.8 75.83 533.646 75.078C534.492 74.326 535.494 73.95 536.654 73.95C537.813 73.95 538.722 74.3103 539.38 75.031C540.069 75.7203 540.414 76.5507 540.414 77.522C540.414 78.7127 539.991 79.6683 539.145 80.389C538.33 81.0783 537.28 81.423 535.996 81.423C535.024 81.423 534.178 81.094 533.458 80.436C532.737 79.778 532.377 78.932 532.377 77.898Z" fill="#FF1A1A"/>
<path d="M127.839 92.3667L84.3759 20.2867C82.6184 17.5373 80.1971 15.2746 77.335 13.7073C74.4729 12.14 71.2624 11.3185 67.9993 11.3185C64.7362 11.3185 61.5256 12.14 58.6635 13.7073C55.8015 15.2746 53.3801 17.5373 51.6226 20.2867L8.15927 92.3667C6.6239 94.9261 5.7894 97.8446 5.73967 100.829C5.68993 103.813 6.42671 106.758 7.87593 109.367C9.55145 112.304 11.9767 114.743 14.9037 116.435C17.8308 118.128 21.1548 119.013 24.5359 119H111.463C114.822 119.036 118.13 118.185 121.056 116.533C123.981 114.882 126.418 112.488 128.123 109.593C129.614 106.957 130.375 103.97 130.325 100.941C130.275 97.9128 129.417 94.9525 127.839 92.3667V92.3667ZM118.206 103.983C117.525 105.154 116.537 106.116 115.348 106.765C114.159 107.415 112.816 107.726 111.463 107.667H24.5359C23.1829 107.726 21.8393 107.415 20.6506 106.765C19.462 106.116 18.4736 105.154 17.7926 103.983C17.2952 103.122 17.0334 102.145 17.0334 101.15C17.0334 100.155 17.2952 99.1781 17.7926 98.3167L61.3126 26.18C62.0946 25.147 63.1053 24.3092 64.2655 23.7324C65.4256 23.1556 66.7036 22.8554 67.9993 22.8554C69.2949 22.8554 70.5729 23.1556 71.733 23.7324C72.8932 24.3092 73.9039 25.147 74.6859 26.18L118.149 98.26C118.666 99.1231 118.943 100.108 118.953 101.114C118.963 102.12 118.705 103.11 118.206 103.983V103.983Z" fill="#FF1A1A"/>
<path d="M67.9997 96.3333C71.1293 96.3333 73.6663 93.7963 73.6663 90.6667C73.6663 87.5371 71.1293 85 67.9997 85C64.8701 85 62.333 87.5371 62.333 90.6667C62.333 93.7963 64.8701 96.3333 67.9997 96.3333Z" fill="#FF1A1A"/>
<path d="M67.9997 45.3334C66.4968 45.3334 65.0554 45.9304 63.9927 46.9931C62.93 48.0558 62.333 49.4971 62.333 51V73.6667C62.333 75.1696 62.93 76.6109 63.9927 77.6736C65.0554 78.7364 66.4968 79.3334 67.9997 79.3334C69.5026 79.3334 70.9439 78.7364 72.0066 77.6736C73.0693 76.6109 73.6663 75.1696 73.6663 73.6667V51C73.6663 49.4971 73.0693 48.0558 72.0066 46.9931C70.9439 45.9304 69.5026 45.3334 67.9997 45.3334Z" fill="#FF1A1A"/>
</svg>
