<svg width="62" height="49" viewBox="0 0 62 49" fill="none" xmlns="http://www.w3.org/2000/svg">
<path d="M48.5 17.625H52.875V22H48.5V17.625Z" fill="#10BAB9"/>
<path d="M10 35H14.375V39.375H10V35Z" fill="#10BAB9"/>
<path d="M19 35H23.375V39.375H19V35Z" fill="#10BAB9"/>
<path d="M28 35H32.375V39.375H28V35Z" fill="#10BAB9"/>
<path d="M37 35H53V39H37V35Z" fill="#10BAB9"/>
<path d="M10 9H53V32H10V9Z" fill="#10BAB9"/>
<path d="M57.25 0.125004H26.625L25.3423 0.125007C25.5924 0.125007 24.9284 0.124998 24 0.125006C22.6819 0.125007 23.41 0.126159 22.25 0.125001H13.5C12.34 0.126159 12.5 0.125001 11.5 0.125001C10.5 0.124997 9.125 0.125007 10.4077 0.125001L9.125 0.125004H4.75C3.59003 0.126162 2.47791 0.587471 1.65769 1.40769C0.837466 2.22791 0.376158 3.34004 0.375 4.50001V43.875C0.376158 45.035 0.837466 46.1471 1.65769 46.9673C2.47791 47.7875 3.59003 48.2488 4.75 48.25H57.25C58.41 48.2488 59.5221 47.7875 60.3423 46.9673C61.1625 46.1471 61.6238 45.035 61.625 43.875V4.50001C61.6238 3.34004 61.1625 2.22791 60.3423 1.40769C59.5221 0.587471 58.41 0.126162 57.25 0.125004ZM57.25 43.875H4.75V4.50001H9.125H10.4077C11.5 4.5 10 4.5 11.5 4.50001C13 4.50001 12.34 4.49885 13.5 4.50001H22.25C23.41 4.49885 22.5 4.5 24 4.50001C25 4.5 26.5 4.5 25.3423 4.50001H26.625H57.25V43.875Z" fill="#10BAB9"/>
<path d="M13 12H50V29H13V12Z" fill="white"/>
</svg>
