<svg width="612" height="136" viewBox="0 0 612 136" fill="none" xmlns="http://www.w3.org/2000/svg">
<path d="M161.593 19.604L158.068 18.993V16.079H165.165C165.823 16.079 166.841 16.0477 168.22 15.985C170.037 15.8597 171.682 15.797 173.155 15.797C176.414 15.797 178.983 16.2043 180.863 17.019C182.774 17.8023 184.122 18.946 184.905 20.45C185.72 21.9227 186.127 23.8027 186.127 26.09C186.127 30.038 184.889 33.1087 182.414 35.302C179.97 37.4953 176.57 38.592 172.215 38.592C170.492 38.592 169.254 38.545 168.502 38.451V47.71L174.8 48.18V51H157.88V48.18L161.593 47.71V19.604ZM168.455 35.443C169.176 35.5997 170.398 35.678 172.121 35.678C174.22 35.678 175.897 34.9573 177.15 33.516C178.435 32.0433 179.077 29.615 179.077 26.231C179.077 23.599 178.497 21.6877 177.338 20.497C176.21 19.275 174.471 18.664 172.121 18.664C171.244 18.664 170.335 18.7267 169.395 18.852C168.956 18.9147 168.643 18.946 168.455 18.946V35.443ZM188.671 43.668C188.671 40.8167 190.097 38.6703 192.948 37.229C195.831 35.7877 199.544 35.0513 204.087 35.02V33.939C204.087 32.6543 203.946 31.6517 203.664 30.931C203.414 30.2103 202.928 29.6777 202.207 29.333C201.518 28.957 200.5 28.769 199.152 28.769C197.617 28.769 196.238 28.9727 195.016 29.38C193.794 29.756 192.525 30.2573 191.209 30.884L189.752 27.876C190.222 27.4687 191.006 26.983 192.102 26.419C193.23 25.855 194.562 25.3693 196.097 24.962C197.633 24.5233 199.215 24.304 200.844 24.304C203.257 24.304 205.137 24.6173 206.484 25.244C207.863 25.8707 208.85 26.8733 209.445 28.252C210.041 29.6307 210.338 31.4793 210.338 33.798V48.18H212.876V50.812C212.25 50.9687 211.357 51.1253 210.197 51.282C209.038 51.4387 208.02 51.517 207.142 51.517C206.077 51.517 205.356 51.3603 204.98 51.047C204.636 50.7337 204.463 50.0913 204.463 49.12V47.851C203.617 48.791 202.521 49.637 201.173 50.389C199.826 51.141 198.306 51.517 196.614 51.517C195.173 51.517 193.841 51.2193 192.619 50.624C191.429 49.9973 190.473 49.1043 189.752 47.945C189.032 46.7543 188.671 45.3287 188.671 43.668ZM199.622 47.616C200.28 47.616 201.032 47.428 201.878 47.052C202.724 46.6447 203.461 46.159 204.087 45.595V37.887C201.267 37.887 199.152 38.3727 197.742 39.344C196.364 40.284 195.674 41.506 195.674 43.01C195.674 44.514 196.019 45.6577 196.708 46.441C197.429 47.2243 198.4 47.616 199.622 47.616ZM218.441 29.333L215.433 28.487V25.244L223.235 24.257H223.376L224.551 25.197V27.03L224.504 28.158C225.601 27.124 227.027 26.231 228.781 25.479C230.536 24.727 232.306 24.351 234.092 24.351C236.004 24.351 237.492 24.7113 238.557 25.432C239.654 26.1213 240.437 27.218 240.907 28.722C241.377 30.226 241.612 32.2627 241.612 34.832V47.804L244.479 48.18V51H232.353V48.18L234.891 47.804V34.832C234.891 33.2027 234.782 31.9337 234.562 31.025C234.343 30.085 233.936 29.4113 233.34 29.004C232.776 28.5653 231.962 28.346 230.896 28.346C229.11 28.346 227.199 29.1137 225.162 30.649V47.757L227.982 48.18V51H215.715V48.18L218.441 47.757V29.333ZM259.645 51.517C255.509 51.517 252.422 50.3107 250.386 47.898C248.38 45.454 247.378 42.1327 247.378 37.934C247.378 35.114 247.895 32.67 248.929 30.602C249.994 28.534 251.482 26.9517 253.394 25.855C255.305 24.7583 257.514 24.21 260.021 24.21C263.154 24.21 265.567 25.0403 267.259 26.701C268.951 28.3303 269.828 30.6647 269.891 33.704C269.891 35.772 269.765 37.3073 269.515 38.31H254.24C254.365 41.1613 255.039 43.386 256.261 44.984C257.483 46.5507 259.222 47.334 261.478 47.334C262.7 47.334 263.953 47.1303 265.238 46.723C266.554 46.3157 267.588 45.83 268.34 45.266L269.515 47.851C268.669 48.7597 267.29 49.6057 265.379 50.389C263.499 51.141 261.587 51.517 259.645 51.517ZM263.311 35.49C263.373 34.6127 263.405 33.939 263.405 33.469C263.405 29.3017 262.01 27.218 259.222 27.218C257.686 27.218 256.496 27.829 255.65 29.051C254.804 30.273 254.334 32.4193 254.24 35.49H263.311ZM276.367 16.643L272.889 16.032V13.494L281.584 12.46H281.678L282.947 13.353V47.804L286.378 48.18V51H273.077V48.18L276.367 47.757V16.643ZM306.36 20.591C305.232 20.591 304.339 20.262 303.681 19.604C303.023 18.946 302.694 18.1 302.694 17.066C302.694 15.8753 303.07 14.8883 303.822 14.105C304.574 13.3217 305.577 12.93 306.83 12.93C308.084 12.93 309.039 13.2747 309.697 13.964C310.355 14.622 310.684 15.4523 310.684 16.455C310.684 17.7083 310.308 18.711 309.556 19.463C308.804 20.215 307.755 20.591 306.407 20.591H306.36ZM303.869 29.333L300.532 28.44V25.291L309.133 24.257H309.227L310.543 25.197V47.804L313.692 48.18V51H300.579V48.18L303.869 47.757V29.333ZM322.278 47.146C322.529 47.522 323.093 47.8823 323.97 48.227C324.879 48.5403 325.788 48.697 326.696 48.697C328.169 48.697 329.266 48.3993 329.986 47.804C330.738 47.1773 331.114 46.3627 331.114 45.36C331.114 44.326 330.66 43.4957 329.751 42.869C328.843 42.211 327.307 41.412 325.145 40.472L323.829 39.908C321.667 38.9993 320.054 37.9027 318.988 36.618C317.923 35.3333 317.39 33.6727 317.39 31.636C317.39 30.226 317.813 28.9727 318.659 27.876C319.505 26.748 320.696 25.8707 322.231 25.244C323.767 24.6173 325.537 24.304 327.542 24.304C329.015 24.304 330.268 24.398 331.302 24.586C332.368 24.774 333.48 25.0247 334.639 25.338C335.266 25.5573 335.736 25.6827 336.049 25.714V31.871H332.336L331.255 28.299C331.067 27.9857 330.644 27.7037 329.986 27.453C329.328 27.2023 328.576 27.077 327.73 27.077C326.446 27.077 325.412 27.359 324.628 27.923C323.876 28.4557 323.5 29.2077 323.5 30.179C323.5 31.0563 323.767 31.7927 324.299 32.388C324.832 32.952 325.412 33.3907 326.038 33.704C326.665 34.0173 327.824 34.5343 329.516 35.255C331.208 35.9757 332.603 36.665 333.699 37.323C334.827 37.981 335.752 38.8427 336.472 39.908C337.224 40.942 337.6 42.211 337.6 43.715C337.6 46.0337 336.692 47.9137 334.874 49.355C333.057 50.7963 330.441 51.517 327.025 51.517C325.427 51.517 323.986 51.376 322.701 51.094C321.448 50.812 319.991 50.436 318.33 49.966L317.296 49.637V43.433H321.197L322.278 47.146ZM355.219 29.333L352.211 28.487V25.244L360.013 24.257H360.154L361.329 25.197V27.03L361.282 28.158C362.378 27.124 363.804 26.231 365.559 25.479C367.313 24.727 369.084 24.351 370.87 24.351C372.781 24.351 374.269 24.7113 375.335 25.432C376.431 26.1213 377.215 27.218 377.685 28.722C378.155 30.226 378.39 32.2627 378.39 34.832V47.804L381.257 48.18V51H369.131V48.18L371.669 47.804V34.832C371.669 33.2027 371.559 31.9337 371.34 31.025C371.12 30.085 370.713 29.4113 370.118 29.004C369.554 28.5653 368.739 28.346 367.674 28.346C365.888 28.346 363.976 29.1137 361.94 30.649V47.757L364.76 48.18V51H352.493V48.18L355.219 47.757V29.333ZM384.578 37.981C384.578 35.0357 385.158 32.529 386.317 30.461C387.508 28.393 389.09 26.842 391.064 25.808C393.038 24.7427 395.184 24.21 397.503 24.21C401.451 24.21 404.49 25.432 406.621 27.876C408.783 30.2887 409.864 33.5787 409.864 37.746C409.864 40.7227 409.269 43.2607 408.078 45.36C406.919 47.428 405.352 48.979 403.378 50.013C401.435 51.0157 399.289 51.517 396.939 51.517C393.022 51.517 389.983 50.3107 387.821 47.898C385.659 45.454 384.578 42.1483 384.578 37.981ZM397.315 48.462C400.856 48.462 402.626 45.0467 402.626 38.216C402.626 34.644 402.203 31.9337 401.357 30.085C400.511 28.205 399.132 27.265 397.221 27.265C393.586 27.265 391.769 30.6803 391.769 37.511C391.769 41.083 392.208 43.809 393.085 45.689C393.994 47.5377 395.404 48.462 397.315 48.462ZM422.032 51.423C420.058 51.423 418.601 50.9687 417.661 50.06C416.721 49.1513 416.251 47.71 416.251 45.736V28.487H413.196V26.043C413.447 25.949 413.901 25.7923 414.559 25.573C415.217 25.3223 415.719 25.1187 416.063 24.962C416.596 24.5547 417.05 23.8497 417.426 22.847C417.708 22.189 418.225 20.5597 418.977 17.959H422.737L422.925 24.868H430.116V28.487H422.972V41.694C422.972 43.4487 423.019 44.6863 423.113 45.407C423.207 46.1277 423.411 46.5977 423.724 46.817C424.038 47.005 424.586 47.099 425.369 47.099C426.153 47.099 426.967 47.0207 427.813 46.864C428.659 46.676 429.364 46.4567 429.928 46.206L430.821 48.838C429.944 49.496 428.659 50.0913 426.967 50.624C425.275 51.1567 423.63 51.423 422.032 51.423ZM155.342 83.915H167.468V86.594L164.178 87.158L167.656 99.66L168.784 104.783L169.818 99.613L174.048 83.915H179.735L184.388 99.613L185.516 104.783L186.644 99.66L189.934 87.205L186.503 86.594V83.915H196.561V86.594L194.164 87.111L187.02 110.376H181.615L176.868 95.148L175.787 89.555L174.941 95.148L170.57 110.376H165.118L157.598 87.111L155.342 86.594V83.915ZM197.588 96.981C197.588 94.0357 198.167 91.529 199.327 89.461C200.517 87.393 202.1 85.842 204.074 84.808C206.048 83.7427 208.194 83.21 210.513 83.21C214.461 83.21 217.5 84.432 219.631 86.876C221.793 89.2887 222.874 92.5787 222.874 96.746C222.874 99.7227 222.278 102.261 221.088 104.36C219.928 106.428 218.362 107.979 216.388 109.013C214.445 110.016 212.299 110.517 209.949 110.517C206.032 110.517 202.993 109.311 200.831 106.898C198.669 104.454 197.588 101.148 197.588 96.981ZM210.325 107.462C213.865 107.462 215.636 104.047 215.636 97.216C215.636 93.644 215.213 90.9337 214.367 89.085C213.521 87.205 212.142 86.265 210.231 86.265C206.596 86.265 204.779 89.6803 204.779 96.511C204.779 100.083 205.217 102.809 206.095 104.689C207.003 106.538 208.413 107.462 210.325 107.462ZM227.146 107.227L230.248 106.851V88.333L227.24 87.487V84.244L234.525 83.257H234.666L235.841 84.197V85.231L235.7 89.038H235.841C236.061 88.4113 236.578 87.6437 237.392 86.735C238.207 85.795 239.225 84.9803 240.447 84.291C241.701 83.5703 243.048 83.21 244.489 83.21C245.179 83.21 245.774 83.304 246.275 83.492V90.542C245.335 89.884 244.192 89.555 242.844 89.555C240.557 89.555 238.567 90.166 236.875 91.388V106.804L242.327 107.227V110H227.146V107.227ZM251.431 75.643L248.047 75.032V72.494L256.695 71.46H256.789L258.058 72.353V94.678L257.917 97.169L267.505 87.111L264.027 86.594V83.915H276.294V86.594L272.487 87.205L266.706 92.751L274.931 106.804L277.516 107.18V110H265.108V107.18L267.505 106.757L262.147 96.84L257.917 101.117L258.011 103.514V106.757L260.972 107.18V110H248.705V107.18L251.431 106.757V75.643ZM284.421 79.591C283.293 79.591 282.4 79.262 281.742 78.604C281.084 77.946 280.755 77.1 280.755 76.066C280.755 74.8753 281.131 73.8883 281.883 73.105C282.635 72.3217 283.638 71.93 284.891 71.93C286.144 71.93 287.1 72.2747 287.758 72.964C288.416 73.622 288.745 74.4523 288.745 75.455C288.745 76.7083 288.369 77.711 287.617 78.463C286.865 79.215 285.815 79.591 284.468 79.591H284.421ZM281.93 88.333L278.593 87.44V84.291L287.194 83.257H287.288L288.604 84.197V106.804L291.753 107.18V110H278.64V107.18L281.93 106.757V88.333ZM297.754 88.333L294.746 87.487V84.244L302.548 83.257H302.689L303.864 84.197V86.03L303.817 87.158C304.914 86.124 306.339 85.231 308.094 84.479C309.849 83.727 311.619 83.351 313.405 83.351C315.316 83.351 316.805 83.7113 317.87 84.432C318.967 85.1213 319.75 86.218 320.22 87.722C320.69 89.226 320.925 91.2627 320.925 93.832V106.804L323.792 107.18V110H311.666V107.18L314.204 106.804V93.832C314.204 92.2027 314.094 90.9337 313.875 90.025C313.656 89.085 313.248 88.4113 312.653 88.004C312.089 87.5653 311.274 87.346 310.209 87.346C308.423 87.346 306.512 88.1137 304.475 89.649V106.757L307.295 107.18V110H295.028V107.18L297.754 106.757V88.333ZM338.487 122.69C334.288 122.69 331.249 122.032 329.369 120.716C327.489 119.4 326.549 117.614 326.549 115.358C326.549 114.073 326.972 112.851 327.818 111.692C328.695 110.564 329.745 109.718 330.967 109.154C329.526 108.308 328.805 106.961 328.805 105.112C328.805 104.047 329.15 103.044 329.839 102.104C330.528 101.133 331.421 100.381 332.518 99.848C330.795 99.19 329.51 98.1873 328.664 96.84C327.818 95.4927 327.395 93.8947 327.395 92.046C327.395 90.26 327.912 88.709 328.946 87.393C330.011 86.0457 331.421 85.0117 333.176 84.291C334.962 83.5703 336.889 83.21 338.957 83.21C342.623 83.21 345.349 83.915 347.135 85.325C347.542 84.7923 348.232 84.291 349.203 83.821C350.174 83.351 351.177 83.116 352.211 83.116H353.856V88.239H349.015C349.485 89.2417 349.72 90.307 349.72 91.435C349.751 94.2863 348.749 96.5737 346.712 98.297C344.675 99.989 341.887 100.835 338.346 100.835C336.873 100.835 335.636 100.725 334.633 100.506C334.32 100.913 334.069 101.352 333.881 101.822C333.724 102.261 333.646 102.652 333.646 102.997C333.646 104.031 334.006 104.736 334.727 105.112C335.479 105.488 336.811 105.676 338.722 105.676H343.751C350.143 105.676 353.339 107.995 353.339 112.632C353.339 114.575 352.65 116.314 351.271 117.849C349.892 119.384 348.059 120.575 345.772 121.421C343.485 122.267 341.056 122.69 338.487 122.69ZM338.816 97.921C341.73 97.921 343.187 95.9313 343.187 91.952C343.187 89.9153 342.811 88.427 342.059 87.487C341.338 86.5157 340.226 86.03 338.722 86.03C337.249 86.03 336.106 86.5157 335.291 87.487C334.508 88.427 334.116 89.8527 334.116 91.764C334.116 95.8687 335.683 97.921 338.816 97.921ZM339.192 119.447C341.166 119.447 342.874 118.961 344.315 117.99C345.756 117.05 346.477 115.734 346.477 114.042C346.477 112.695 346.117 111.723 345.396 111.128C344.707 110.533 343.453 110.235 341.636 110.235H336.513C335.73 110.235 335.009 110.188 334.351 110.094C333.505 111.222 333.082 112.569 333.082 114.136C333.082 115.859 333.552 117.175 334.492 118.084C335.432 118.993 336.999 119.447 339.192 119.447ZM370.935 78.604L367.175 77.993V75.079H392.226L392.837 82.975H389.547L387.996 78.322L377.844 77.899V90.542L384.377 90.401L385.129 86.547H388.137V97.921H385.129L384.377 93.879L377.844 93.738V106.992L389.218 106.428L391.944 100.412L395.469 101.399L394.247 110H367.222V107.18L370.935 106.71V78.604ZM401.545 87.534H397.597V84.902L401.545 83.962V81.894C401.545 79.8573 402.077 77.993 403.143 76.301C404.239 74.609 405.696 73.2773 407.514 72.306C409.331 71.3033 411.258 70.802 413.295 70.802C414.36 70.802 415.363 70.9587 416.303 71.272V77.288C415.989 76.9747 415.363 76.6613 414.423 76.348C413.514 76.0347 412.558 75.878 411.556 75.878C410.334 75.878 409.456 76.1913 408.924 76.818C408.422 77.4133 408.172 78.4473 408.172 79.92V83.915H414.141V87.534H408.172V106.804L413.107 107.18V110H397.832V107.18L401.545 106.757V87.534ZM420.721 87.534H416.773V84.902L420.721 83.962V81.894C420.721 79.8573 421.253 77.993 422.319 76.301C423.415 74.609 424.872 73.2773 426.69 72.306C428.507 71.3033 430.434 70.802 432.471 70.802C433.536 70.802 434.539 70.9587 435.479 71.272V77.288C435.165 76.9747 434.539 76.6613 433.599 76.348C432.69 76.0347 431.734 75.878 430.732 75.878C429.51 75.878 428.632 76.1913 428.1 76.818C427.598 77.4133 427.348 78.4473 427.348 79.92V83.915H433.317V87.534H427.348V106.804L432.283 107.18V110H417.008V107.18L420.721 106.757V87.534ZM442.247 79.591C441.119 79.591 440.226 79.262 439.568 78.604C438.91 77.946 438.581 77.1 438.581 76.066C438.581 74.8753 438.957 73.8883 439.709 73.105C440.461 72.3217 441.463 71.93 442.717 71.93C443.97 71.93 444.926 72.2747 445.584 72.964C446.242 73.622 446.571 74.4523 446.571 75.455C446.571 76.7083 446.195 77.711 445.443 78.463C444.691 79.215 443.641 79.591 442.294 79.591H442.247ZM439.756 88.333L436.419 87.44V84.291L445.02 83.257H445.114L446.43 84.197V106.804L449.579 107.18V110H436.466V107.18L439.756 106.757V88.333ZM452.356 97.075C452.356 94.3803 452.888 91.9833 453.954 89.884C455.05 87.7847 456.601 86.1553 458.607 84.996C460.643 83.8053 463.009 83.21 465.704 83.21C466.957 83.21 468.038 83.304 468.947 83.492C469.855 83.68 470.874 83.9307 472.002 84.244L473.365 84.62L473.083 92.657H468.994L467.819 87.487C467.631 86.6723 466.706 86.265 465.046 86.265C463.291 86.265 461.912 87.0327 460.91 88.568C459.938 90.1033 459.437 92.5003 459.406 95.759C459.406 99.2057 460.001 101.853 461.192 103.702C462.382 105.519 463.965 106.428 465.939 106.428C468.32 106.428 470.513 105.786 472.519 104.501L473.6 106.945C472.785 107.822 471.532 108.637 469.84 109.389C468.179 110.141 466.377 110.517 464.435 110.517C460.424 110.517 457.4 109.279 455.364 106.804C453.358 104.329 452.356 101.086 452.356 97.075ZM482.932 79.591C481.804 79.591 480.911 79.262 480.253 78.604C479.595 77.946 479.266 77.1 479.266 76.066C479.266 74.8753 479.642 73.8883 480.394 73.105C481.146 72.3217 482.148 71.93 483.402 71.93C484.655 71.93 485.611 72.2747 486.269 72.964C486.927 73.622 487.256 74.4523 487.256 75.455C487.256 76.7083 486.88 77.711 486.128 78.463C485.376 79.215 484.326 79.591 482.979 79.591H482.932ZM480.441 88.333L477.104 87.44V84.291L485.705 83.257H485.799L487.115 84.197V106.804L490.264 107.18V110H477.151V107.18L480.441 106.757V88.333ZM505.477 110.517C501.341 110.517 498.254 109.311 496.218 106.898C494.212 104.454 493.21 101.133 493.21 96.934C493.21 94.114 493.727 91.67 494.761 89.602C495.826 87.534 497.314 85.9517 499.226 84.855C501.137 83.7583 503.346 83.21 505.853 83.21C508.986 83.21 511.399 84.0403 513.091 85.701C514.783 87.3303 515.66 89.6647 515.723 92.704C515.723 94.772 515.597 96.3073 515.347 97.31H500.072C500.197 100.161 500.871 102.386 502.093 103.984C503.315 105.551 505.054 106.334 507.31 106.334C508.532 106.334 509.785 106.13 511.07 105.723C512.386 105.316 513.42 104.83 514.172 104.266L515.347 106.851C514.501 107.76 513.122 108.606 511.211 109.389C509.331 110.141 507.419 110.517 505.477 110.517ZM509.143 94.49C509.205 93.6127 509.237 92.939 509.237 92.469C509.237 88.3017 507.842 86.218 505.054 86.218C503.518 86.218 502.328 86.829 501.482 88.051C500.636 89.273 500.166 91.4193 500.072 94.49H509.143ZM522.105 88.333L519.097 87.487V84.244L526.899 83.257H527.04L528.215 84.197V86.03L528.168 87.158C529.265 86.124 530.691 85.231 532.445 84.479C534.2 83.727 535.97 83.351 537.756 83.351C539.668 83.351 541.156 83.7113 542.221 84.432C543.318 85.1213 544.101 86.218 544.571 87.722C545.041 89.226 545.276 91.2627 545.276 93.832V106.804L548.143 107.18V110H536.017V107.18L538.555 106.804V93.832C538.555 92.2027 538.446 90.9337 538.226 90.025C538.007 89.085 537.6 88.4113 537.004 88.004C536.44 87.5653 535.626 87.346 534.56 87.346C532.774 87.346 530.863 88.1137 528.826 89.649V106.757L531.646 107.18V110H519.379V107.18L522.105 106.757V88.333ZM559.361 110.423C557.387 110.423 555.93 109.969 554.99 109.06C554.05 108.151 553.58 106.71 553.58 104.736V87.487H550.525V85.043C550.775 84.949 551.23 84.7923 551.888 84.573C552.546 84.3223 553.047 84.1187 553.392 83.962C553.924 83.5547 554.379 82.8497 554.755 81.847C555.037 81.189 555.554 79.5597 556.306 76.959H560.066L560.254 83.868H567.445V87.487H560.301V100.694C560.301 102.449 560.348 103.686 560.442 104.407C560.536 105.128 560.739 105.598 561.053 105.817C561.366 106.005 561.914 106.099 562.698 106.099C563.481 106.099 564.296 106.021 565.142 105.864C565.988 105.676 566.693 105.457 567.257 105.206L568.15 107.838C567.272 108.496 565.988 109.091 564.296 109.624C562.604 110.157 560.959 110.423 559.361 110.423ZM573.376 75.643L569.898 75.032V72.494L578.593 71.46H578.687L579.956 72.353V106.804L583.387 107.18V110H570.086V107.18L573.376 106.757V75.643ZM590.806 121.703C590.242 121.703 589.631 121.656 588.973 121.562C588.346 121.468 587.892 121.358 587.61 121.233V116.204C587.829 116.329 588.268 116.455 588.926 116.58C589.584 116.705 590.179 116.768 590.712 116.768C592.278 116.768 593.563 116.251 594.566 115.217C595.6 114.183 596.555 112.444 597.433 110H594.895L586.059 87.205L583.944 86.594V83.868H596.869V86.594L593.438 87.158L597.621 100.177L599.313 105.723L600.77 100.177L604.624 87.158L601.663 86.594V83.868H611.862V86.594L609.559 87.158C607.835 92.422 606.128 97.498 604.436 102.386C602.744 107.274 601.757 110.016 601.475 110.611C600.472 113.243 599.516 115.342 598.608 116.909C597.699 118.476 596.618 119.666 595.365 120.481C594.111 121.296 592.592 121.703 590.806 121.703Z" fill="#F2901E"/>
<path d="M127.839 92.3667L84.3759 20.2867C82.6184 17.5373 80.1971 15.2746 77.335 13.7073C74.4729 12.14 71.2624 11.3185 67.9993 11.3185C64.7362 11.3185 61.5256 12.14 58.6635 13.7073C55.8015 15.2746 53.3801 17.5373 51.6226 20.2867L8.15927 92.3667C6.6239 94.9261 5.7894 97.8446 5.73967 100.829C5.68993 103.813 6.42671 106.758 7.87593 109.367C9.55145 112.304 11.9767 114.743 14.9037 116.435C17.8308 118.128 21.1548 119.013 24.5359 119H111.463C114.822 119.036 118.13 118.185 121.056 116.533C123.981 114.882 126.418 112.488 128.123 109.593C129.614 106.957 130.375 103.97 130.325 100.941C130.275 97.9128 129.417 94.9525 127.839 92.3667ZM118.206 103.983C117.525 105.154 116.537 106.116 115.348 106.765C114.159 107.415 112.816 107.726 111.463 107.667H24.5359C23.1829 107.726 21.8393 107.415 20.6506 106.765C19.462 106.116 18.4736 105.154 17.7926 103.983C17.2952 103.122 17.0334 102.145 17.0334 101.15C17.0334 100.155 17.2952 99.1781 17.7926 98.3167L61.3126 26.18C62.0946 25.147 63.1053 24.3092 64.2655 23.7324C65.4256 23.1556 66.7036 22.8554 67.9993 22.8554C69.2949 22.8554 70.5729 23.1556 71.733 23.7324C72.8932 24.3092 73.9039 25.147 74.6859 26.18L118.149 98.26C118.666 99.1231 118.943 100.108 118.953 101.114C118.963 102.12 118.705 103.11 118.206 103.983Z" fill="#F2901E"/>
<path d="M67.9997 96.3333C71.1293 96.3333 73.6663 93.7963 73.6663 90.6667C73.6663 87.5371 71.1293 85 67.9997 85C64.8701 85 62.333 87.5371 62.333 90.6667C62.333 93.7963 64.8701 96.3333 67.9997 96.3333Z" fill="#F2901E"/>
<path d="M67.9997 45.3334C66.4968 45.3334 65.0554 45.9304 63.9927 46.9931C62.93 48.0558 62.333 49.4971 62.333 51V73.6667C62.333 75.1696 62.93 76.6109 63.9927 77.6736C65.0554 78.7364 66.4968 79.3334 67.9997 79.3334C69.5026 79.3334 70.9439 78.7364 72.0066 77.6736C73.0693 76.6109 73.6663 75.1696 73.6663 73.6667V51C73.6663 49.4971 73.0693 48.0558 72.0066 46.9931C70.9439 45.9304 69.5026 45.3334 67.9997 45.3334Z" fill="#F2901E"/>
</svg>
