<svg width="549" height="123" viewBox="0 0 549 123" fill="none" xmlns="http://www.w3.org/2000/svg">
<path d="M161.593 19.604L158.068 18.993V16.079H165.165C165.823 16.079 166.841 16.0477 168.22 15.985C170.037 15.8597 171.682 15.797 173.155 15.797C176.414 15.797 178.983 16.2043 180.863 17.019C182.774 17.8023 184.122 18.946 184.905 20.45C185.72 21.9227 186.127 23.8027 186.127 26.09C186.127 30.038 184.889 33.1087 182.414 35.302C179.97 37.4953 176.57 38.592 172.215 38.592C170.492 38.592 169.254 38.545 168.502 38.451V47.71L174.8 48.18V51H157.88V48.18L161.593 47.71V19.604ZM168.455 35.443C169.176 35.5997 170.398 35.678 172.121 35.678C174.22 35.678 175.897 34.9573 177.15 33.516C178.435 32.0433 179.077 29.615 179.077 26.231C179.077 23.599 178.497 21.6877 177.338 20.497C176.21 19.275 174.471 18.664 172.121 18.664C171.244 18.664 170.335 18.7267 169.395 18.852C168.956 18.9147 168.643 18.946 168.455 18.946V35.443ZM188.671 43.668C188.671 40.8167 190.097 38.6703 192.948 37.229C195.831 35.7877 199.544 35.0513 204.087 35.02V33.939C204.087 32.6543 203.946 31.6517 203.664 30.931C203.414 30.2103 202.928 29.6777 202.207 29.333C201.518 28.957 200.5 28.769 199.152 28.769C197.617 28.769 196.238 28.9727 195.016 29.38C193.794 29.756 192.525 30.2573 191.209 30.884L189.752 27.876C190.222 27.4687 191.006 26.983 192.102 26.419C193.23 25.855 194.562 25.3693 196.097 24.962C197.633 24.5233 199.215 24.304 200.844 24.304C203.257 24.304 205.137 24.6173 206.484 25.244C207.863 25.8707 208.85 26.8733 209.445 28.252C210.041 29.6307 210.338 31.4793 210.338 33.798V48.18H212.876V50.812C212.25 50.9687 211.357 51.1253 210.197 51.282C209.038 51.4387 208.02 51.517 207.142 51.517C206.077 51.517 205.356 51.3603 204.98 51.047C204.636 50.7337 204.463 50.0913 204.463 49.12V47.851C203.617 48.791 202.521 49.637 201.173 50.389C199.826 51.141 198.306 51.517 196.614 51.517C195.173 51.517 193.841 51.2193 192.619 50.624C191.429 49.9973 190.473 49.1043 189.752 47.945C189.032 46.7543 188.671 45.3287 188.671 43.668ZM199.622 47.616C200.28 47.616 201.032 47.428 201.878 47.052C202.724 46.6447 203.461 46.159 204.087 45.595V37.887C201.267 37.887 199.152 38.3727 197.742 39.344C196.364 40.284 195.674 41.506 195.674 43.01C195.674 44.514 196.019 45.6577 196.708 46.441C197.429 47.2243 198.4 47.616 199.622 47.616ZM218.441 29.333L215.433 28.487V25.244L223.235 24.257H223.376L224.551 25.197V27.03L224.504 28.158C225.601 27.124 227.027 26.231 228.781 25.479C230.536 24.727 232.306 24.351 234.092 24.351C236.004 24.351 237.492 24.7113 238.557 25.432C239.654 26.1213 240.437 27.218 240.907 28.722C241.377 30.226 241.612 32.2627 241.612 34.832V47.804L244.479 48.18V51H232.353V48.18L234.891 47.804V34.832C234.891 33.2027 234.782 31.9337 234.562 31.025C234.343 30.085 233.936 29.4113 233.34 29.004C232.776 28.5653 231.962 28.346 230.896 28.346C229.11 28.346 227.199 29.1137 225.162 30.649V47.757L227.982 48.18V51H215.715V48.18L218.441 47.757V29.333ZM259.645 51.517C255.509 51.517 252.422 50.3107 250.386 47.898C248.38 45.454 247.378 42.1327 247.378 37.934C247.378 35.114 247.895 32.67 248.929 30.602C249.994 28.534 251.482 26.9517 253.394 25.855C255.305 24.7583 257.514 24.21 260.021 24.21C263.154 24.21 265.567 25.0403 267.259 26.701C268.951 28.3303 269.828 30.6647 269.891 33.704C269.891 35.772 269.765 37.3073 269.515 38.31H254.24C254.365 41.1613 255.039 43.386 256.261 44.984C257.483 46.5507 259.222 47.334 261.478 47.334C262.7 47.334 263.953 47.1303 265.238 46.723C266.554 46.3157 267.588 45.83 268.34 45.266L269.515 47.851C268.669 48.7597 267.29 49.6057 265.379 50.389C263.499 51.141 261.587 51.517 259.645 51.517ZM263.311 35.49C263.373 34.6127 263.405 33.939 263.405 33.469C263.405 29.3017 262.01 27.218 259.222 27.218C257.686 27.218 256.496 27.829 255.65 29.051C254.804 30.273 254.334 32.4193 254.24 35.49H263.311ZM276.367 16.643L272.889 16.032V13.494L281.584 12.46H281.678L282.947 13.353V47.804L286.378 48.18V51H273.077V48.18L276.367 47.757V16.643ZM306.36 20.591C305.232 20.591 304.339 20.262 303.681 19.604C303.023 18.946 302.694 18.1 302.694 17.066C302.694 15.8753 303.07 14.8883 303.822 14.105C304.574 13.3217 305.577 12.93 306.83 12.93C308.084 12.93 309.039 13.2747 309.697 13.964C310.355 14.622 310.684 15.4523 310.684 16.455C310.684 17.7083 310.308 18.711 309.556 19.463C308.804 20.215 307.755 20.591 306.407 20.591H306.36ZM303.869 29.333L300.532 28.44V25.291L309.133 24.257H309.227L310.543 25.197V47.804L313.692 48.18V51H300.579V48.18L303.869 47.757V29.333ZM322.278 47.146C322.529 47.522 323.093 47.8823 323.97 48.227C324.879 48.5403 325.788 48.697 326.696 48.697C328.169 48.697 329.266 48.3993 329.986 47.804C330.738 47.1773 331.114 46.3627 331.114 45.36C331.114 44.326 330.66 43.4957 329.751 42.869C328.843 42.211 327.307 41.412 325.145 40.472L323.829 39.908C321.667 38.9993 320.054 37.9027 318.988 36.618C317.923 35.3333 317.39 33.6727 317.39 31.636C317.39 30.226 317.813 28.9727 318.659 27.876C319.505 26.748 320.696 25.8707 322.231 25.244C323.767 24.6173 325.537 24.304 327.542 24.304C329.015 24.304 330.268 24.398 331.302 24.586C332.368 24.774 333.48 25.0247 334.639 25.338C335.266 25.5573 335.736 25.6827 336.049 25.714V31.871H332.336L331.255 28.299C331.067 27.9857 330.644 27.7037 329.986 27.453C329.328 27.2023 328.576 27.077 327.73 27.077C326.446 27.077 325.412 27.359 324.628 27.923C323.876 28.4557 323.5 29.2077 323.5 30.179C323.5 31.0563 323.767 31.7927 324.299 32.388C324.832 32.952 325.412 33.3907 326.038 33.704C326.665 34.0173 327.824 34.5343 329.516 35.255C331.208 35.9757 332.603 36.665 333.699 37.323C334.827 37.981 335.752 38.8427 336.472 39.908C337.224 40.942 337.6 42.211 337.6 43.715C337.6 46.0337 336.692 47.9137 334.874 49.355C333.057 50.7963 330.441 51.517 327.025 51.517C325.427 51.517 323.986 51.376 322.701 51.094C321.448 50.812 319.991 50.436 318.33 49.966L317.296 49.637V43.433H321.197L322.278 47.146ZM349.814 24.915H361.94V27.594L358.65 28.158L362.128 40.66L363.256 45.783L364.29 40.613L368.52 24.915H374.207L378.86 40.613L379.988 45.783L381.116 40.66L384.406 28.205L380.975 27.594V24.915H391.033V27.594L388.636 28.111L381.492 51.376H376.087L371.34 36.148L370.259 30.555L369.413 36.148L365.042 51.376H359.59L352.07 28.111L349.814 27.594V24.915ZM392.059 37.981C392.059 35.0357 392.639 32.529 393.798 30.461C394.989 28.393 396.571 26.842 398.545 25.808C400.519 24.7427 402.666 24.21 404.984 24.21C408.932 24.21 411.972 25.432 414.102 27.876C416.264 30.2887 417.345 33.5787 417.345 37.746C417.345 40.7227 416.75 43.2607 415.559 45.36C414.4 47.428 412.833 48.979 410.859 50.013C408.917 51.0157 406.77 51.517 404.42 51.517C400.504 51.517 397.464 50.3107 395.302 47.898C393.14 45.454 392.059 42.1483 392.059 37.981ZM404.796 48.462C408.337 48.462 410.107 45.0467 410.107 38.216C410.107 34.644 409.684 31.9337 408.838 30.085C407.992 28.205 406.614 27.265 404.702 27.265C401.068 27.265 399.25 30.6803 399.25 37.511C399.25 41.083 399.689 43.809 400.566 45.689C401.475 47.5377 402.885 48.462 404.796 48.462ZM421.618 48.227L424.72 47.851V29.333L421.712 28.487V25.244L428.997 24.257H429.138L430.313 25.197V26.231L430.172 30.038H430.313C430.532 29.4113 431.049 28.6437 431.864 27.735C432.679 26.795 433.697 25.9803 434.919 25.291C436.172 24.5703 437.52 24.21 438.961 24.21C439.65 24.21 440.246 24.304 440.747 24.492V31.542C439.807 30.884 438.663 30.555 437.316 30.555C435.029 30.555 433.039 31.166 431.347 32.388V47.804L436.799 48.227V51H421.618V48.227ZM445.903 16.643L442.519 16.032V13.494L451.167 12.46H451.261L452.53 13.353V35.678L452.389 38.169L461.977 28.111L458.499 27.594V24.915H470.766V27.594L466.959 28.205L461.178 33.751L469.403 47.804L471.988 48.18V51H459.58V48.18L461.977 47.757L456.619 37.84L452.389 42.117L452.483 44.514V47.757L455.444 48.18V51H443.177V48.18L445.903 47.757V16.643ZM478.893 20.591C477.765 20.591 476.872 20.262 476.214 19.604C475.556 18.946 475.227 18.1 475.227 17.066C475.227 15.8753 475.603 14.8883 476.355 14.105C477.107 13.3217 478.109 12.93 479.363 12.93C480.616 12.93 481.572 13.2747 482.23 13.964C482.888 14.622 483.217 15.4523 483.217 16.455C483.217 17.7083 482.841 18.711 482.089 19.463C481.337 20.215 480.287 20.591 478.94 20.591H478.893ZM476.402 29.333L473.065 28.44V25.291L481.666 24.257H481.76L483.076 25.197V47.804L486.225 48.18V51H473.112V48.18L476.402 47.757V29.333ZM492.226 29.333L489.218 28.487V25.244L497.02 24.257H497.161L498.336 25.197V27.03L498.289 28.158C499.385 27.124 500.811 26.231 502.566 25.479C504.32 24.727 506.091 24.351 507.877 24.351C509.788 24.351 511.276 24.7113 512.342 25.432C513.438 26.1213 514.222 27.218 514.692 28.722C515.162 30.226 515.397 32.2627 515.397 34.832V47.804L518.264 48.18V51H506.138V48.18L508.676 47.804V34.832C508.676 33.2027 508.566 31.9337 508.347 31.025C508.127 30.085 507.72 29.4113 507.125 29.004C506.561 28.5653 505.746 28.346 504.681 28.346C502.895 28.346 500.983 29.1137 498.947 30.649V47.757L501.767 48.18V51H489.5V48.18L492.226 47.757V29.333ZM532.959 63.69C528.76 63.69 525.721 63.032 523.841 61.716C521.961 60.4 521.021 58.614 521.021 56.358C521.021 55.0733 521.444 53.8513 522.29 52.692C523.167 51.564 524.217 50.718 525.439 50.154C523.997 49.308 523.277 47.9607 523.277 46.112C523.277 45.0467 523.621 44.044 524.311 43.104C525 42.1327 525.893 41.3807 526.99 40.848C525.266 40.19 523.982 39.1873 523.136 37.84C522.29 36.4927 521.867 34.8947 521.867 33.046C521.867 31.26 522.384 29.709 523.418 28.393C524.483 27.0457 525.893 26.0117 527.648 25.291C529.434 24.5703 531.361 24.21 533.429 24.21C537.095 24.21 539.821 24.915 541.607 26.325C542.014 25.7923 542.703 25.291 543.675 24.821C544.646 24.351 545.649 24.116 546.683 24.116H548.328V29.239H543.487C543.957 30.2417 544.192 31.307 544.192 32.435C544.223 35.2863 543.22 37.5737 541.184 39.297C539.147 40.989 536.358 41.835 532.818 41.835C531.345 41.835 530.107 41.7253 529.105 41.506C528.791 41.9133 528.541 42.352 528.353 42.822C528.196 43.2607 528.118 43.6523 528.118 43.997C528.118 45.031 528.478 45.736 529.199 46.112C529.951 46.488 531.282 46.676 533.194 46.676H538.223C544.615 46.676 547.811 48.9947 547.811 53.632C547.811 55.5747 547.121 57.3137 545.743 58.849C544.364 60.3843 542.531 61.575 540.244 62.421C537.956 63.267 535.528 63.69 532.959 63.69ZM533.288 38.921C536.202 38.921 537.659 36.9313 537.659 32.952C537.659 30.9153 537.283 29.427 536.531 28.487C535.81 27.5157 534.698 27.03 533.194 27.03C531.721 27.03 530.577 27.5157 529.763 28.487C528.979 29.427 528.588 30.8527 528.588 32.764C528.588 36.8687 530.154 38.921 533.288 38.921ZM533.664 60.447C535.638 60.447 537.345 59.9613 538.787 58.99C540.228 58.05 540.949 56.734 540.949 55.042C540.949 53.6947 540.588 52.7233 539.868 52.128C539.178 51.5327 537.925 51.235 536.108 51.235H530.985C530.201 51.235 529.481 51.188 528.823 51.094C527.977 52.222 527.554 53.5693 527.554 55.136C527.554 56.8593 528.024 58.1753 528.964 59.084C529.904 59.9927 531.47 60.447 533.664 60.447ZM161.546 78.604L157.786 77.993V75.079H182.837L183.448 82.975H180.158L178.607 78.322L168.455 77.899V90.542L174.988 90.401L175.74 86.547H178.748V97.921H175.74L174.988 93.879L168.455 93.738V106.992L179.829 106.428L182.555 100.412L186.08 101.399L184.858 110H157.833V107.18L161.546 106.71V78.604ZM192.156 87.534H188.208V84.902L192.156 83.962V81.894C192.156 79.8573 192.689 77.993 193.754 76.301C194.851 74.609 196.308 73.2773 198.125 72.306C199.942 71.3033 201.869 70.802 203.906 70.802C204.971 70.802 205.974 70.9587 206.914 71.272V77.288C206.601 76.9747 205.974 76.6613 205.034 76.348C204.125 76.0347 203.17 75.878 202.167 75.878C200.945 75.878 200.068 76.1913 199.535 76.818C199.034 77.4133 198.783 78.4473 198.783 79.92V83.915H204.752V87.534H198.783V106.804L203.718 107.18V110H188.443V107.18L192.156 106.757V87.534ZM211.332 87.534H207.384V84.902L211.332 83.962V81.894C211.332 79.8573 211.865 77.993 212.93 76.301C214.027 74.609 215.484 73.2773 217.301 72.306C219.118 71.3033 221.045 70.802 223.082 70.802C224.147 70.802 225.15 70.9587 226.09 71.272V77.288C225.777 76.9747 225.15 76.6613 224.21 76.348C223.301 76.0347 222.346 75.878 221.343 75.878C220.121 75.878 219.244 76.1913 218.711 76.818C218.21 77.4133 217.959 78.4473 217.959 79.92V83.915H223.928V87.534H217.959V106.804L222.894 107.18V110H207.619V107.18L211.332 106.757V87.534ZM232.858 79.591C231.73 79.591 230.837 79.262 230.179 78.604C229.521 77.946 229.192 77.1 229.192 76.066C229.192 74.8753 229.568 73.8883 230.32 73.105C231.072 72.3217 232.075 71.93 233.328 71.93C234.581 71.93 235.537 72.2747 236.195 72.964C236.853 73.622 237.182 74.4523 237.182 75.455C237.182 76.7083 236.806 77.711 236.054 78.463C235.302 79.215 234.252 79.591 232.905 79.591H232.858ZM230.367 88.333L227.03 87.44V84.291L235.631 83.257H235.725L237.041 84.197V106.804L240.19 107.18V110H227.077V107.18L230.367 106.757V88.333ZM242.967 97.075C242.967 94.3803 243.5 91.9833 244.565 89.884C245.662 87.7847 247.213 86.1553 249.218 84.996C251.255 83.8053 253.62 83.21 256.315 83.21C257.568 83.21 258.649 83.304 259.558 83.492C260.467 83.68 261.485 83.9307 262.613 84.244L263.976 84.62L263.694 92.657H259.605L258.43 87.487C258.242 86.6723 257.318 86.265 255.657 86.265C253.902 86.265 252.524 87.0327 251.521 88.568C250.55 90.1033 250.048 92.5003 250.017 95.759C250.017 99.2057 250.612 101.853 251.803 103.702C252.994 105.519 254.576 106.428 256.55 106.428C258.931 106.428 261.125 105.786 263.13 104.501L264.211 106.945C263.396 107.822 262.143 108.637 260.451 109.389C258.79 110.141 256.989 110.517 255.046 110.517C251.035 110.517 248.012 109.279 245.975 106.804C243.97 104.329 242.967 101.086 242.967 97.075ZM273.543 79.591C272.415 79.591 271.522 79.262 270.864 78.604C270.206 77.946 269.877 77.1 269.877 76.066C269.877 74.8753 270.253 73.8883 271.005 73.105C271.757 72.3217 272.76 71.93 274.013 71.93C275.266 71.93 276.222 72.2747 276.88 72.964C277.538 73.622 277.867 74.4523 277.867 75.455C277.867 76.7083 277.491 77.711 276.739 78.463C275.987 79.215 274.937 79.591 273.59 79.591H273.543ZM271.052 88.333L267.715 87.44V84.291L276.316 83.257H276.41L277.726 84.197V106.804L280.875 107.18V110H267.762V107.18L271.052 106.757V88.333ZM296.088 110.517C291.952 110.517 288.866 109.311 286.829 106.898C284.824 104.454 283.821 101.133 283.821 96.934C283.821 94.114 284.338 91.67 285.372 89.602C286.437 87.534 287.926 85.9517 289.837 84.855C291.748 83.7583 293.957 83.21 296.464 83.21C299.597 83.21 302.01 84.0403 303.702 85.701C305.394 87.3303 306.271 89.6647 306.334 92.704C306.334 94.772 306.209 96.3073 305.958 97.31H290.683C290.808 100.161 291.482 102.386 292.704 103.984C293.926 105.551 295.665 106.334 297.921 106.334C299.143 106.334 300.396 106.13 301.681 105.723C302.997 105.316 304.031 104.83 304.783 104.266L305.958 106.851C305.112 107.76 303.733 108.606 301.822 109.389C299.942 110.141 298.031 110.517 296.088 110.517ZM299.754 94.49C299.817 93.6127 299.848 92.939 299.848 92.469C299.848 88.3017 298.454 86.218 295.665 86.218C294.13 86.218 292.939 86.829 292.093 88.051C291.247 89.273 290.777 91.4193 290.683 94.49H299.754ZM312.717 88.333L309.709 87.487V84.244L317.511 83.257H317.652L318.827 84.197V86.03L318.78 87.158C319.876 86.124 321.302 85.231 323.057 84.479C324.811 83.727 326.582 83.351 328.368 83.351C330.279 83.351 331.767 83.7113 332.833 84.432C333.929 85.1213 334.713 86.218 335.183 87.722C335.653 89.226 335.888 91.2627 335.888 93.832V106.804L338.755 107.18V110H326.629V107.18L329.167 106.804V93.832C329.167 92.2027 329.057 90.9337 328.838 90.025C328.618 89.085 328.211 88.4113 327.616 88.004C327.052 87.5653 326.237 87.346 325.172 87.346C323.386 87.346 321.474 88.1137 319.438 89.649V106.757L322.258 107.18V110H309.991V107.18L312.717 106.757V88.333ZM349.972 110.423C347.998 110.423 346.541 109.969 345.601 109.06C344.661 108.151 344.191 106.71 344.191 104.736V87.487H341.136V85.043C341.387 84.949 341.841 84.7923 342.499 84.573C343.157 84.3223 343.658 84.1187 344.003 83.962C344.536 83.5547 344.99 82.8497 345.366 81.847C345.648 81.189 346.165 79.5597 346.917 76.959H350.677L350.865 83.868H358.056V87.487H350.912V100.694C350.912 102.449 350.959 103.686 351.053 104.407C351.147 105.128 351.351 105.598 351.664 105.817C351.977 106.005 352.526 106.099 353.309 106.099C354.092 106.099 354.907 106.021 355.753 105.864C356.599 105.676 357.304 105.457 357.868 105.206L358.761 107.838C357.884 108.496 356.599 109.091 354.907 109.624C353.215 110.157 351.57 110.423 349.972 110.423ZM363.987 75.643L360.509 75.032V72.494L369.204 71.46H369.298L370.567 72.353V106.804L373.998 107.18V110H360.697V107.18L363.987 106.757V75.643ZM381.417 121.703C380.853 121.703 380.242 121.656 379.584 121.562C378.957 121.468 378.503 121.358 378.221 121.233V116.204C378.44 116.329 378.879 116.455 379.537 116.58C380.195 116.705 380.79 116.768 381.323 116.768C382.89 116.768 384.174 116.251 385.177 115.217C386.211 114.183 387.167 112.444 388.044 110H385.506L376.67 87.205L374.555 86.594V83.868H387.48V86.594L384.049 87.158L388.232 100.177L389.924 105.723L391.381 100.177L395.235 87.158L392.274 86.594V83.868H402.473V86.594L400.17 87.158C398.447 92.422 396.739 97.498 395.047 102.386C393.355 107.274 392.368 110.016 392.086 110.611C391.083 113.243 390.128 115.342 389.219 116.909C388.31 118.476 387.229 119.666 385.976 120.481C384.723 121.296 383.203 121.703 381.417 121.703Z" fill="#0FA958"/>
<g clip-path="url(#clip0_0_1)">
<path d="M62.0303 -8.00754e-06C64.0444 -8.00754e-06 66.0278 0.13068 67.8728 0.43818C69.6899 0.676282 71.4827 1.07241 73.231 1.62205C74.9837 2.15249 76.698 2.81362 78.4123 3.64387C80.0805 4.43568 81.7948 5.4043 83.5092 6.45749C86.4073 8.30249 89.2594 9.79387 92.1653 10.9854C97.8859 13.275 103.935 14.6375 110.085 15.0214C113.206 15.2443 116.412 15.375 119.748 15.375V46.125C119.748 51.9675 119.002 57.5025 117.511 62.7761C116.078 67.9745 114.043 72.9875 111.446 77.7129C108.859 82.4318 105.799 86.875 102.313 90.9739C98.7728 95.1659 94.94 99.1015 90.843 102.751C86.6919 106.411 82.3197 109.813 77.7512 112.937C73.1848 116.104 68.5723 119.049 63.9598 121.724L62.1148 122.823L60.2698 121.724C55.5282 118.979 50.8967 116.047 46.3862 112.937C41.7921 109.848 37.4177 106.445 33.2944 102.751C29.1999 99.1014 25.3696 95.1658 21.8323 90.9739C18.3552 86.8576 15.2815 82.4169 12.6535 77.7129C10.1007 72.9665 8.06712 67.9586 6.58803 62.7761C5.08719 57.3544 4.34724 51.7504 4.3894 46.125V15.375C7.73346 15.375 10.9392 15.2443 14.0603 15.0214C17.1327 14.808 20.1852 14.3686 23.193 13.7068C26.1373 13.0457 29.0816 12.1693 31.9798 10.9854C34.9872 9.77169 37.8706 8.2708 40.5898 6.50362C43.9723 4.30499 47.401 2.68293 50.7835 1.61437C54.4263 0.497616 58.2204 -0.0469902 62.0303 -8.00754e-06V-8.00754e-06ZM112.014 22.9318C106.195 22.6494 100.43 21.6766 94.8405 20.0336C89.2805 18.3751 83.9846 15.9342 79.1119 12.7843C76.5845 11.1253 73.8396 9.82403 70.9555 8.91749C68.0744 8.04677 65.0783 7.61653 62.0687 7.64137C59.0367 7.62176 56.0186 8.05181 53.1128 8.91749C50.2244 9.79457 47.483 11.0979 44.9794 12.7843C40.0983 15.9514 34.7887 18.403 29.2123 20.0644C23.7619 21.648 18.0578 22.6166 12.0769 22.9702V46.1634C12.0769 51.2602 12.738 56.1341 14.0603 60.8312C15.4073 65.4874 17.2635 69.981 19.5953 74.2305C21.9549 78.5242 24.7362 82.5725 27.8978 86.3152C31.1035 90.0898 34.5244 93.603 38.2144 96.9394C41.9044 100.283 45.7712 103.358 49.8148 106.21C53.8969 109.07 57.9867 111.661 62.0687 114.029C66.2485 111.595 70.324 108.987 74.2842 106.21C78.3545 103.367 82.2418 100.271 85.923 96.9394C89.613 93.603 93.0417 90.0898 96.2473 86.3152C99.4093 82.5727 102.191 78.5245 104.55 74.2305C106.871 69.9863 108.7 65.4907 110 60.8312C111.363 56.0619 112.041 51.1234 112.014 46.1634V22.9318V22.9318Z" fill="#0FA958"/>
<path fill-rule="evenodd" clip-rule="evenodd" d="M90.6887 36.2004L87.3062 33.2946L84.1851 33.5636L50.6676 73.1389L39.2517 56.8414L36.1767 56.3186L32.6174 58.8632L32.0869 61.9382L46.7624 82.8943L48.4305 83.8168L51.9437 84.0321L53.7426 83.2479L90.9117 39.3139L90.6887 36.2004V36.2004Z" fill="#0FA958"/>
</g>
<defs>
<clipPath id="clip0_0_1">
<rect width="123" height="123" fill="white"/>
</clipPath>
</defs>
</svg>
