<svg width="466" height="123" viewBox="0 0 466 123" fill="none" xmlns="http://www.w3.org/2000/svg">
<path d="M167.985 37.135L157.927 19.604L155.248 18.993V16.079H169.066V18.993L165.729 19.604L171.604 31.119L172.92 34.362L174.283 31.119L179.688 19.604L176.022 18.993V16.079H187.49V18.993L184.576 19.557L175.223 37.088V47.71L180.346 48.18V51H163.003V48.18L167.985 47.71V37.135ZM188.729 37.981C188.729 35.0357 189.309 32.529 190.468 30.461C191.659 28.393 193.241 26.842 195.215 25.808C197.189 24.7427 199.336 24.21 201.654 24.21C205.602 24.21 208.642 25.432 210.772 27.876C212.934 30.2887 214.015 33.5787 214.015 37.746C214.015 40.7227 213.42 43.2607 212.229 45.36C211.07 47.428 209.503 48.979 207.529 50.013C205.587 51.0157 203.44 51.517 201.09 51.517C197.174 51.517 194.134 50.3107 191.972 47.898C189.81 45.454 188.729 42.1483 188.729 37.981ZM201.466 48.462C205.007 48.462 206.777 45.0467 206.777 38.216C206.777 34.644 206.354 31.9337 205.508 30.085C204.662 28.205 203.284 27.265 201.372 27.265C197.738 27.265 195.92 30.6803 195.92 37.511C195.92 41.083 196.359 43.809 197.236 45.689C198.145 47.5377 199.555 48.462 201.466 48.462ZM239.485 51.47C238.451 51.47 237.699 51.2507 237.229 50.812C236.759 50.3733 236.524 49.7153 236.524 48.838V47.569C235.678 48.603 234.487 49.5273 232.952 50.342C231.417 51.1253 229.881 51.517 228.346 51.517C225.338 51.517 223.192 50.7493 221.907 49.214C220.622 47.6473 219.98 45.078 219.98 41.506V28.252L217.63 27.594V24.915L225.62 24.304H225.667L226.607 24.962V41.506C226.607 43.7933 226.889 45.3913 227.453 46.3C228.017 47.2087 229.067 47.663 230.602 47.663C232.451 47.663 234.174 46.9423 235.772 45.501V28.252L232.623 27.547V24.915L241.13 24.304H241.224L242.352 24.962V48.086H244.984L244.937 50.765C244.812 50.7963 244.232 50.9217 243.198 51.141C242.164 51.3603 240.926 51.47 239.485 51.47ZM248.305 48.227L251.407 47.851V29.333L248.399 28.487V25.244L255.684 24.257H255.825L257 25.197V26.231L256.859 30.038H257C257.22 29.4113 257.737 28.6437 258.551 27.735C259.366 26.795 260.384 25.9803 261.606 25.291C262.86 24.5703 264.207 24.21 265.648 24.21C266.338 24.21 266.933 24.304 267.434 24.492V31.542C266.494 30.884 265.351 30.555 264.003 30.555C261.716 30.555 259.726 31.166 258.034 32.388V47.804L263.486 48.227V51H248.305V48.227ZM293.426 51.517C291.734 51.517 290.214 51.376 288.867 51.094C287.519 50.812 286.015 50.436 284.355 49.966C283.258 49.6527 282.522 49.4803 282.146 49.449L282.569 40.754H286.376L287.41 46.817C287.817 47.2557 288.538 47.6473 289.572 47.992C290.637 48.3367 291.843 48.509 293.191 48.509C295.29 48.509 296.857 48.0547 297.891 47.146C298.956 46.206 299.489 44.9057 299.489 43.245C299.489 42.1483 299.175 41.2083 298.549 40.425C297.922 39.6103 297.06 38.8897 295.964 38.263C294.867 37.605 293.363 36.853 291.452 36.007C288.851 34.8163 286.689 33.4063 284.966 31.777C283.274 30.1163 282.428 27.876 282.428 25.056C282.428 23.3013 282.882 21.719 283.791 20.309C284.699 18.8677 286.047 17.7397 287.833 16.925C289.65 16.079 291.859 15.656 294.46 15.656C295.995 15.656 297.342 15.7657 298.502 15.985C299.692 16.2043 300.977 16.502 302.356 16.878C303.17 17.0973 303.781 17.2383 304.189 17.301L303.907 25.526H300.147L299.16 19.745C298.878 19.463 298.314 19.1967 297.468 18.946C296.622 18.664 295.682 18.523 294.648 18.523C292.768 18.523 291.342 18.9617 290.371 19.839C289.431 20.685 288.961 21.8287 288.961 23.27C288.961 24.4293 289.305 25.432 289.995 26.278C290.715 27.124 291.577 27.8447 292.58 28.44C293.582 29.004 295.165 29.8187 297.327 30.884C299.081 31.73 300.585 32.5603 301.839 33.375C303.092 34.1897 304.173 35.255 305.082 36.571C305.99 37.8557 306.445 39.3753 306.445 41.13C306.445 42.8533 306.006 44.4983 305.129 46.065C304.283 47.6317 302.873 48.932 300.899 49.966C298.956 51 296.465 51.517 293.426 51.517ZM314.084 62.703C313.52 62.703 312.909 62.656 312.251 62.562C311.624 62.468 311.17 62.3583 310.888 62.233V57.204C311.107 57.3293 311.546 57.4547 312.204 57.58C312.862 57.7053 313.457 57.768 313.99 57.768C315.557 57.768 316.841 57.251 317.844 56.217C318.878 55.183 319.834 53.444 320.711 51H318.173L309.337 28.205L307.222 27.594V24.868H320.147V27.594L316.716 28.158L320.899 41.177L322.591 46.723L324.048 41.177L327.902 28.158L324.941 27.594V24.868H335.14V27.594L332.837 28.158C331.114 33.422 329.406 38.498 327.714 43.386C326.022 48.274 325.035 51.0157 324.753 51.611C323.75 54.243 322.795 56.3423 321.886 57.909C320.977 59.4757 319.896 60.6663 318.643 61.481C317.39 62.2957 315.87 62.703 314.084 62.703ZM342.061 47.146C342.311 47.522 342.875 47.8823 343.753 48.227C344.661 48.5403 345.57 48.697 346.479 48.697C347.951 48.697 349.048 48.3993 349.769 47.804C350.521 47.1773 350.897 46.3627 350.897 45.36C350.897 44.326 350.442 43.4957 349.534 42.869C348.625 42.211 347.09 41.412 344.928 40.472L343.612 39.908C341.45 38.9993 339.836 37.9027 338.771 36.618C337.705 35.3333 337.173 33.6727 337.173 31.636C337.173 30.226 337.596 28.9727 338.442 27.876C339.288 26.748 340.478 25.8707 342.014 25.244C343.549 24.6173 345.319 24.304 347.325 24.304C348.797 24.304 350.051 24.398 351.085 24.586C352.15 24.774 353.262 25.0247 354.422 25.338C355.048 25.5573 355.518 25.6827 355.832 25.714V31.871H352.119L351.038 28.299C350.85 27.9857 350.427 27.7037 349.769 27.453C349.111 27.2023 348.359 27.077 347.513 27.077C346.228 27.077 345.194 27.359 344.411 27.923C343.659 28.4557 343.283 29.2077 343.283 30.179C343.283 31.0563 343.549 31.7927 344.082 32.388C344.614 32.952 345.194 33.3907 345.821 33.704C346.447 34.0173 347.607 34.5343 349.299 35.255C350.991 35.9757 352.385 36.665 353.482 37.323C354.61 37.981 355.534 38.8427 356.255 39.908C357.007 40.942 357.383 42.211 357.383 43.715C357.383 46.0337 356.474 47.9137 354.657 49.355C352.839 50.7963 350.223 51.517 346.808 51.517C345.21 51.517 343.768 51.376 342.484 51.094C341.23 50.812 339.773 50.436 338.113 49.966L337.079 49.637V43.433H340.98L342.061 47.146ZM369.112 51.423C367.138 51.423 365.681 50.9687 364.741 50.06C363.801 49.1513 363.331 47.71 363.331 45.736V28.487H360.276V26.043C360.526 25.949 360.981 25.7923 361.639 25.573C362.297 25.3223 362.798 25.1187 363.143 24.962C363.675 24.5547 364.13 23.8497 364.506 22.847C364.788 22.189 365.305 20.5597 366.057 17.959H369.817L370.005 24.868H377.196V28.487H370.052V41.694C370.052 43.4487 370.099 44.6863 370.193 45.407C370.287 46.1277 370.49 46.5977 370.804 46.817C371.117 47.005 371.665 47.099 372.449 47.099C373.232 47.099 374.047 47.0207 374.893 46.864C375.739 46.676 376.444 46.4567 377.008 46.206L377.901 48.838C377.023 49.496 375.739 50.0913 374.047 50.624C372.355 51.1567 370.71 51.423 369.112 51.423ZM392.245 51.517C388.109 51.517 385.023 50.3107 382.986 47.898C380.981 45.454 379.978 42.1327 379.978 37.934C379.978 35.114 380.495 32.67 381.529 30.602C382.594 28.534 384.083 26.9517 385.994 25.855C387.905 24.7583 390.114 24.21 392.621 24.21C395.754 24.21 398.167 25.0403 399.859 26.701C401.551 28.3303 402.428 30.6647 402.491 33.704C402.491 35.772 402.366 37.3073 402.115 38.31H386.84C386.965 41.1613 387.639 43.386 388.861 44.984C390.083 46.5507 391.822 47.334 394.078 47.334C395.3 47.334 396.553 47.1303 397.838 46.723C399.154 46.3157 400.188 45.83 400.94 45.266L402.115 47.851C401.269 48.7597 399.89 49.6057 397.979 50.389C396.099 51.141 394.188 51.517 392.245 51.517ZM395.911 35.49C395.974 34.6127 396.005 33.939 396.005 33.469C396.005 29.3017 394.611 27.218 391.822 27.218C390.287 27.218 389.096 27.829 388.25 29.051C387.404 30.273 386.934 32.4193 386.84 35.49H395.911ZM406.242 48.18L408.874 47.757V29.333L405.866 28.487V25.244L413.668 24.257L414.232 24.633L414.937 26.184V28.158C415.971 27.1553 417.444 26.278 419.355 25.526C421.298 24.7427 422.974 24.351 424.384 24.351C426.076 24.351 427.439 24.633 428.473 25.197C429.538 25.761 430.337 26.6383 430.87 27.829C431.904 26.889 433.267 26.0743 434.959 25.385C436.651 24.6957 438.312 24.351 439.941 24.351C442.73 24.351 444.704 25.1657 445.863 26.795C447.022 28.4243 447.602 31.0877 447.602 34.785V47.757L450.657 48.18V51H438.484V48.18L440.928 47.757V34.973C440.928 32.529 440.63 30.8213 440.035 29.85C439.471 28.8473 438.374 28.346 436.745 28.346C435.868 28.346 434.959 28.5497 434.019 28.957C433.11 29.333 432.296 29.803 431.575 30.367C431.794 31.5577 431.904 33.046 431.904 34.832V47.757L434.818 48.18V51H422.551V48.18L425.136 47.757V34.832C425.136 33.2027 425.026 31.9337 424.807 31.025C424.619 30.085 424.243 29.4113 423.679 29.004C423.115 28.5653 422.3 28.346 421.235 28.346C420.232 28.346 419.23 28.581 418.227 29.051C417.256 29.4897 416.378 30.0223 415.595 30.649V47.757L418.368 48.18V51H406.242V48.18ZM160.324 75.643L156.752 75.032V72.494L165.494 71.46H165.635L166.857 72.353L166.904 82.834L166.575 86.923C167.546 86.0457 168.862 85.231 170.523 84.479C172.215 83.727 173.985 83.351 175.834 83.351C177.808 83.351 179.343 83.727 180.44 84.479C181.537 85.1997 182.304 86.312 182.743 87.816C183.182 89.32 183.401 91.3253 183.401 93.832V106.757L186.409 107.18V110H174.048V107.18L176.774 106.757V93.832C176.774 92.2027 176.664 90.9337 176.445 90.025C176.226 89.1163 175.818 88.4427 175.223 88.004C174.659 87.5653 173.813 87.346 172.685 87.346C171.714 87.346 170.711 87.581 169.677 88.051C168.674 88.4897 167.781 89.0223 166.998 89.649V106.757L169.865 107.18V110H157.692V107.18L160.324 106.804V75.643ZM189.084 102.668C189.084 99.8167 190.51 97.6703 193.361 96.229C196.244 94.7877 199.957 94.0513 204.5 94.02V92.939C204.5 91.6543 204.359 90.6517 204.077 89.931C203.827 89.2103 203.341 88.6777 202.62 88.333C201.931 87.957 200.913 87.769 199.565 87.769C198.03 87.769 196.651 87.9727 195.429 88.38C194.207 88.756 192.938 89.2573 191.622 89.884L190.165 86.876C190.635 86.4687 191.419 85.983 192.515 85.419C193.643 84.855 194.975 84.3693 196.51 83.962C198.046 83.5233 199.628 83.304 201.257 83.304C203.67 83.304 205.55 83.6173 206.897 84.244C208.276 84.8707 209.263 85.8733 209.858 87.252C210.454 88.6307 210.751 90.4793 210.751 92.798V107.18H213.289V109.812C212.663 109.969 211.77 110.125 210.61 110.282C209.451 110.439 208.433 110.517 207.555 110.517C206.49 110.517 205.769 110.36 205.393 110.047C205.049 109.734 204.876 109.091 204.876 108.12V106.851C204.03 107.791 202.934 108.637 201.586 109.389C200.239 110.141 198.719 110.517 197.027 110.517C195.586 110.517 194.254 110.219 193.032 109.624C191.842 108.997 190.886 108.104 190.165 106.945C189.445 105.754 189.084 104.329 189.084 102.668ZM200.035 106.616C200.693 106.616 201.445 106.428 202.291 106.052C203.137 105.645 203.874 105.159 204.5 104.595V96.887C201.68 96.887 199.565 97.3727 198.155 98.344C196.777 99.284 196.087 100.506 196.087 102.01C196.087 103.514 196.432 104.658 197.121 105.441C197.842 106.224 198.813 106.616 200.035 106.616ZM221.439 106.146C221.69 106.522 222.254 106.882 223.131 107.227C224.04 107.54 224.949 107.697 225.857 107.697C227.33 107.697 228.427 107.399 229.147 106.804C229.899 106.177 230.275 105.363 230.275 104.36C230.275 103.326 229.821 102.496 228.912 101.869C228.004 101.211 226.468 100.412 224.306 99.472L222.99 98.908C220.828 97.9993 219.215 96.9027 218.149 95.618C217.084 94.3333 216.551 92.6727 216.551 90.636C216.551 89.226 216.974 87.9727 217.82 86.876C218.666 85.748 219.857 84.8707 221.392 84.244C222.928 83.6173 224.698 83.304 226.703 83.304C228.176 83.304 229.429 83.398 230.463 83.586C231.529 83.774 232.641 84.0247 233.8 84.338C234.427 84.5573 234.897 84.6827 235.21 84.714V90.871H231.497L230.416 87.299C230.228 86.9857 229.805 86.7037 229.147 86.453C228.489 86.2023 227.737 86.077 226.891 86.077C225.607 86.077 224.573 86.359 223.789 86.923C223.037 87.4557 222.661 88.2077 222.661 89.179C222.661 90.0563 222.928 90.7927 223.46 91.388C223.993 91.952 224.573 92.3907 225.199 92.704C225.826 93.0173 226.985 93.5343 228.677 94.255C230.369 94.9757 231.764 95.665 232.86 96.323C233.988 96.981 234.913 97.8427 235.633 98.908C236.385 99.942 236.761 101.211 236.761 102.715C236.761 105.034 235.853 106.914 234.035 108.355C232.218 109.796 229.602 110.517 226.186 110.517C224.588 110.517 223.147 110.376 221.862 110.094C220.609 109.812 219.152 109.436 217.491 108.966L216.457 108.637V102.433H220.358L221.439 106.146ZM254.38 88.333L251.372 87.487V84.244L259.174 83.257H259.315L260.49 84.197V86.03L260.443 87.158C261.539 86.124 262.965 85.231 264.72 84.479C266.474 83.727 268.245 83.351 270.031 83.351C271.942 83.351 273.43 83.7113 274.496 84.432C275.592 85.1213 276.376 86.218 276.846 87.722C277.316 89.226 277.551 91.2627 277.551 93.832V106.804L280.418 107.18V110H268.292V107.18L270.83 106.804V93.832C270.83 92.2027 270.72 90.9337 270.501 90.025C270.281 89.085 269.874 88.4113 269.279 88.004C268.715 87.5653 267.9 87.346 266.835 87.346C265.049 87.346 263.137 88.1137 261.101 89.649V106.757L263.921 107.18V110H251.654V107.18L254.38 106.757V88.333ZM283.739 96.981C283.739 94.0357 284.319 91.529 285.478 89.461C286.669 87.393 288.251 85.842 290.225 84.808C292.199 83.7427 294.345 83.21 296.664 83.21C300.612 83.21 303.651 84.432 305.782 86.876C307.944 89.2887 309.025 92.5787 309.025 96.746C309.025 99.7227 308.43 102.261 307.239 104.36C306.08 106.428 304.513 107.979 302.539 109.013C300.596 110.016 298.45 110.517 296.1 110.517C292.183 110.517 289.144 109.311 286.982 106.898C284.82 104.454 283.739 101.148 283.739 96.981ZM296.476 107.462C300.017 107.462 301.787 104.047 301.787 97.216C301.787 93.644 301.364 90.9337 300.518 89.085C299.672 87.205 298.293 86.265 296.382 86.265C292.747 86.265 290.93 89.6803 290.93 96.511C290.93 100.083 291.369 102.809 292.246 104.689C293.155 106.538 294.565 107.462 296.476 107.462ZM330.044 79.591C328.916 79.591 328.023 79.262 327.365 78.604C326.707 77.946 326.378 77.1 326.378 76.066C326.378 74.8753 326.754 73.8883 327.506 73.105C328.258 72.3217 329.261 71.93 330.514 71.93C331.767 71.93 332.723 72.2747 333.381 72.964C334.039 73.622 334.368 74.4523 334.368 75.455C334.368 76.7083 333.992 77.711 333.24 78.463C332.488 79.215 331.438 79.591 330.091 79.591H330.044ZM327.553 88.333L324.216 87.44V84.291L332.817 83.257H332.911L334.227 84.197V106.804L337.376 107.18V110H324.263V107.18L327.553 106.757V88.333ZM345.962 106.146C346.213 106.522 346.777 106.882 347.654 107.227C348.563 107.54 349.471 107.697 350.38 107.697C351.853 107.697 352.949 107.399 353.67 106.804C354.422 106.177 354.798 105.363 354.798 104.36C354.798 103.326 354.344 102.496 353.435 101.869C352.526 101.211 350.991 100.412 348.829 99.472L347.513 98.908C345.351 97.9993 343.737 96.9027 342.672 95.618C341.607 94.3333 341.074 92.6727 341.074 90.636C341.074 89.226 341.497 87.9727 342.343 86.876C343.189 85.748 344.38 84.8707 345.915 84.244C347.45 83.6173 349.221 83.304 351.226 83.304C352.699 83.304 353.952 83.398 354.986 83.586C356.051 83.774 357.164 84.0247 358.323 84.338C358.95 84.5573 359.42 84.6827 359.733 84.714V90.871H356.02L354.939 87.299C354.751 86.9857 354.328 86.7037 353.67 86.453C353.012 86.2023 352.26 86.077 351.414 86.077C350.129 86.077 349.095 86.359 348.312 86.923C347.56 87.4557 347.184 88.2077 347.184 89.179C347.184 90.0563 347.45 90.7927 347.983 91.388C348.516 91.952 349.095 92.3907 349.722 92.704C350.349 93.0173 351.508 93.5343 353.2 94.255C354.892 94.9757 356.286 95.665 357.383 96.323C358.511 96.981 359.435 97.8427 360.156 98.908C360.908 99.942 361.284 101.211 361.284 102.715C361.284 105.034 360.375 106.914 358.558 108.355C356.741 109.796 354.124 110.517 350.709 110.517C349.111 110.517 347.67 110.376 346.385 110.094C345.132 109.812 343.675 109.436 342.014 108.966L340.98 108.637V102.433H344.881L345.962 106.146ZM370.334 106.146C370.585 106.522 371.149 106.882 372.026 107.227C372.935 107.54 373.843 107.697 374.752 107.697C376.225 107.697 377.321 107.399 378.042 106.804C378.794 106.177 379.17 105.363 379.17 104.36C379.17 103.326 378.716 102.496 377.807 101.869C376.898 101.211 375.363 100.412 373.201 99.472L371.885 98.908C369.723 97.9993 368.109 96.9027 367.044 95.618C365.979 94.3333 365.446 92.6727 365.446 90.636C365.446 89.226 365.869 87.9727 366.715 86.876C367.561 85.748 368.752 84.8707 370.287 84.244C371.822 83.6173 373.593 83.304 375.598 83.304C377.071 83.304 378.324 83.398 379.358 83.586C380.423 83.774 381.536 84.0247 382.695 84.338C383.322 84.5573 383.792 84.6827 384.105 84.714V90.871H380.392L379.311 87.299C379.123 86.9857 378.7 86.7037 378.042 86.453C377.384 86.2023 376.632 86.077 375.786 86.077C374.501 86.077 373.467 86.359 372.684 86.923C371.932 87.4557 371.556 88.2077 371.556 89.179C371.556 90.0563 371.822 90.7927 372.355 91.388C372.888 91.952 373.467 92.3907 374.094 92.704C374.721 93.0173 375.88 93.5343 377.572 94.255C379.264 94.9757 380.658 95.665 381.755 96.323C382.883 96.981 383.807 97.8427 384.528 98.908C385.28 99.942 385.656 101.211 385.656 102.715C385.656 105.034 384.747 106.914 382.93 108.355C381.113 109.796 378.496 110.517 375.081 110.517C373.483 110.517 372.042 110.376 370.757 110.094C369.504 109.812 368.047 109.436 366.386 108.966L365.352 108.637V102.433H369.253L370.334 106.146ZM410.686 110.47C409.652 110.47 408.9 110.251 408.43 109.812C407.96 109.373 407.725 108.715 407.725 107.838V106.569C406.879 107.603 405.688 108.527 404.153 109.342C402.618 110.125 401.082 110.517 399.547 110.517C396.539 110.517 394.393 109.749 393.108 108.214C391.823 106.647 391.181 104.078 391.181 100.506V87.252L388.831 86.594V83.915L396.821 83.304H396.868L397.808 83.962V100.506C397.808 102.793 398.09 104.391 398.654 105.3C399.218 106.209 400.268 106.663 401.803 106.663C403.652 106.663 405.375 105.942 406.973 104.501V87.252L403.824 86.547V83.915L412.331 83.304H412.425L413.553 83.962V107.086H416.185L416.138 109.765C416.013 109.796 415.433 109.922 414.399 110.141C413.365 110.36 412.127 110.47 410.686 110.47ZM431.351 110.517C427.215 110.517 424.128 109.311 422.092 106.898C420.086 104.454 419.084 101.133 419.084 96.934C419.084 94.114 419.601 91.67 420.635 89.602C421.7 87.534 423.188 85.9517 425.1 84.855C427.011 83.7583 429.22 83.21 431.727 83.21C434.86 83.21 437.273 84.0403 438.965 85.701C440.657 87.3303 441.534 89.6647 441.597 92.704C441.597 94.772 441.471 96.3073 441.221 97.31H425.946C426.071 100.161 426.745 102.386 427.967 103.984C429.189 105.551 430.928 106.334 433.184 106.334C434.406 106.334 435.659 106.13 436.944 105.723C438.26 105.316 439.294 104.83 440.046 104.266L441.221 106.851C440.375 107.76 438.996 108.606 437.085 109.389C435.205 110.141 433.293 110.517 431.351 110.517ZM435.017 94.49C435.079 93.6127 435.111 92.939 435.111 92.469C435.111 88.3017 433.716 86.218 430.928 86.218C429.392 86.218 428.202 86.829 427.356 88.051C426.51 89.273 426.04 91.4193 425.946 94.49H435.017ZM450.564 106.146C450.815 106.522 451.379 106.882 452.256 107.227C453.165 107.54 454.074 107.697 454.982 107.697C456.455 107.697 457.552 107.399 458.272 106.804C459.024 106.177 459.4 105.363 459.4 104.36C459.4 103.326 458.946 102.496 458.037 101.869C457.129 101.211 455.593 100.412 453.431 99.472L452.115 98.908C449.953 97.9993 448.34 96.9027 447.274 95.618C446.209 94.3333 445.676 92.6727 445.676 90.636C445.676 89.226 446.099 87.9727 446.945 86.876C447.791 85.748 448.982 84.8707 450.517 84.244C452.053 83.6173 453.823 83.304 455.828 83.304C457.301 83.304 458.554 83.398 459.588 83.586C460.654 83.774 461.766 84.0247 462.925 84.338C463.552 84.5573 464.022 84.6827 464.335 84.714V90.871H460.622L459.541 87.299C459.353 86.9857 458.93 86.7037 458.272 86.453C457.614 86.2023 456.862 86.077 456.016 86.077C454.732 86.077 453.698 86.359 452.914 86.923C452.162 87.4557 451.786 88.2077 451.786 89.179C451.786 90.0563 452.053 90.7927 452.585 91.388C453.118 91.952 453.698 92.3907 454.324 92.704C454.951 93.0173 456.11 93.5343 457.802 94.255C459.494 94.9757 460.889 95.665 461.985 96.323C463.113 96.981 464.038 97.8427 464.758 98.908C465.51 99.942 465.886 101.211 465.886 102.715C465.886 105.034 464.978 106.914 463.16 108.355C461.343 109.796 458.727 110.517 455.311 110.517C453.713 110.517 452.272 110.376 450.987 110.094C449.734 109.812 448.277 109.436 446.616 108.966L445.582 108.637V102.433H449.483L450.564 106.146Z" fill="#0FA958"/>
<g clip-path="url(#clip0_0_1)">
<path d="M62.0303 -8.00754e-06C64.0444 -8.00754e-06 66.0278 0.13068 67.8728 0.43818C69.6899 0.676282 71.4827 1.07241 73.231 1.62205C74.9837 2.15249 76.698 2.81362 78.4123 3.64387C80.0805 4.43568 81.7948 5.4043 83.5092 6.45749C86.4073 8.30249 89.2594 9.79387 92.1653 10.9854C97.8859 13.275 103.935 14.6375 110.085 15.0214C113.206 15.2443 116.412 15.375 119.748 15.375V46.125C119.748 51.9675 119.002 57.5025 117.511 62.7761C116.078 67.9745 114.043 72.9875 111.446 77.7129C108.859 82.4318 105.799 86.875 102.313 90.9739C98.7728 95.1659 94.94 99.1015 90.843 102.751C86.6919 106.411 82.3197 109.813 77.7512 112.937C73.1848 116.104 68.5723 119.049 63.9598 121.724L62.1148 122.823L60.2698 121.724C55.5282 118.979 50.8967 116.047 46.3862 112.937C41.7921 109.848 37.4177 106.445 33.2944 102.751C29.1999 99.1014 25.3696 95.1658 21.8323 90.9739C18.3552 86.8576 15.2815 82.4169 12.6535 77.7129C10.1007 72.9665 8.06712 67.9586 6.58803 62.7761C5.08719 57.3544 4.34724 51.7504 4.3894 46.125V15.375C7.73346 15.375 10.9392 15.2443 14.0603 15.0214C17.1327 14.808 20.1852 14.3686 23.193 13.7068C26.1373 13.0457 29.0816 12.1693 31.9798 10.9854C34.9872 9.77169 37.8706 8.2708 40.5898 6.50362C43.9723 4.30499 47.401 2.68293 50.7835 1.61437C54.4263 0.497616 58.2204 -0.0469902 62.0303 -8.00754e-06V-8.00754e-06ZM112.014 22.9318C106.195 22.6494 100.43 21.6766 94.8405 20.0336C89.2805 18.3751 83.9846 15.9342 79.1119 12.7843C76.5845 11.1253 73.8396 9.82403 70.9555 8.91749C68.0744 8.04677 65.0783 7.61653 62.0687 7.64137C59.0367 7.62176 56.0186 8.05181 53.1128 8.91749C50.2244 9.79457 47.483 11.0979 44.9794 12.7843C40.0983 15.9514 34.7887 18.403 29.2123 20.0644C23.7619 21.648 18.0578 22.6166 12.0769 22.9702V46.1634C12.0769 51.2602 12.738 56.1341 14.0603 60.8312C15.4073 65.4874 17.2635 69.981 19.5953 74.2305C21.9549 78.5242 24.7362 82.5725 27.8978 86.3152C31.1035 90.0898 34.5244 93.603 38.2144 96.9394C41.9044 100.283 45.7712 103.358 49.8148 106.21C53.8969 109.07 57.9867 111.661 62.0687 114.029C66.2485 111.595 70.324 108.987 74.2842 106.21C78.3545 103.367 82.2418 100.271 85.923 96.9394C89.613 93.603 93.0417 90.0898 96.2473 86.3152C99.4093 82.5727 102.191 78.5245 104.55 74.2305C106.871 69.9863 108.7 65.4907 110 60.8312C111.363 56.0619 112.041 51.1234 112.014 46.1634V22.9318V22.9318Z" fill="#0FA958"/>
<path fill-rule="evenodd" clip-rule="evenodd" d="M90.6887 36.2004L87.3062 33.2946L84.1851 33.5636L50.6676 73.1389L39.2517 56.8414L36.1767 56.3186L32.6174 58.8632L32.0869 61.9382L46.7624 82.8943L48.4305 83.8168L51.9437 84.0321L53.7426 83.2479L90.9117 39.3139L90.6887 36.2004V36.2004Z" fill="#0FA958"/>
</g>
<defs>
<clipPath id="clip0_0_1">
<rect width="123" height="123" fill="white"/>
</clipPath>
</defs>
</svg>
