<svg width="619" height="162" viewBox="0 0 619 162" fill="none" xmlns="http://www.w3.org/2000/svg">
<path d="M207.495 48.545L197.009 30.268L194.216 29.631V26.593H208.622V29.631L205.143 30.268L211.268 42.273L212.64 45.654L214.061 42.273L219.696 30.268L215.874 29.631V26.593H227.83V29.631L224.792 30.219L215.041 48.496V59.57L220.382 60.06V63H202.301V60.06L207.495 59.57V48.545ZM229.122 49.427C229.122 46.3563 229.726 43.743 230.935 41.587C232.176 39.431 233.826 37.814 235.884 36.736C237.942 35.6253 240.18 35.07 242.597 35.07C246.713 35.07 249.882 36.344 252.103 38.892C254.357 41.4073 255.484 44.8373 255.484 49.182C255.484 52.2853 254.863 54.9313 253.622 57.12C252.413 59.276 250.78 60.893 248.722 61.971C246.697 63.0163 244.459 63.539 242.009 63.539C237.926 63.539 234.757 62.2813 232.503 59.766C230.249 57.218 229.122 53.7717 229.122 49.427ZM242.401 60.354C246.092 60.354 247.938 56.7933 247.938 49.672C247.938 45.948 247.497 43.1223 246.615 41.195C245.733 39.235 244.296 38.255 242.303 38.255C238.514 38.255 236.619 41.8157 236.619 48.937C236.619 52.661 237.076 55.503 237.991 57.463C238.938 59.3903 240.408 60.354 242.401 60.354ZM282.037 63.49C280.959 63.49 280.175 63.2613 279.685 62.804C279.195 62.3467 278.95 61.6607 278.95 60.746V59.423C278.068 60.501 276.827 61.4647 275.226 62.314C273.626 63.1307 272.025 63.539 270.424 63.539C267.288 63.539 265.051 62.7387 263.711 61.138C262.372 59.5047 261.702 56.826 261.702 53.102V39.284L259.252 38.598V35.805L267.582 35.168H267.631L268.611 35.854V53.102C268.611 55.4867 268.905 57.1527 269.493 58.1C270.081 59.0473 271.176 59.521 272.776 59.521C274.704 59.521 276.5 58.7697 278.166 57.267V39.284L274.883 38.549V35.805L283.752 35.168H283.85L285.026 35.854V59.962H287.77L287.721 62.755C287.591 62.7877 286.986 62.9183 285.908 63.147C284.83 63.3757 283.54 63.49 282.037 63.49ZM291.233 60.109L294.467 59.717V40.411L291.331 39.529V36.148L298.926 35.119H299.073L300.298 36.099V37.177L300.151 41.146H300.298C300.527 40.4927 301.066 39.6923 301.915 38.745C302.765 37.765 303.826 36.9157 305.1 36.197C306.407 35.4457 307.812 35.07 309.314 35.07C310.033 35.07 310.654 35.168 311.176 35.364V42.714C310.196 42.028 309.004 41.685 307.599 41.685C305.215 41.685 303.14 42.322 301.376 43.596V59.668L307.06 60.109V63H291.233V60.109ZM329.503 30.268L325.681 29.631V26.593H332.982C334.092 26.593 335.53 26.5277 337.294 26.397C337.718 26.3643 338.225 26.3317 338.813 26.299C339.401 26.2663 340.087 26.25 340.871 26.25C345.803 26.25 349.25 26.9523 351.21 28.357C353.202 29.729 354.199 31.787 354.199 34.531C354.199 36.9483 353.464 38.9737 351.994 40.607C350.556 42.2077 348.662 43.1877 346.31 43.547C349.544 43.5143 352.075 44.2493 353.905 45.752C355.767 47.2547 356.698 49.3453 356.698 52.024C356.698 55.4213 355.505 58.149 353.121 60.207C350.736 62.265 346.751 63.294 341.165 63.294C339.695 63.294 338.339 63.245 337.098 63.147C336.771 63.147 336.216 63.1143 335.432 63.049C334.648 63.0163 333.847 63 333.031 63H325.632V60.06L329.503 59.57V30.268ZM336.608 42.469C336.967 42.5017 337.702 42.518 338.813 42.518H341.116C343.108 42.518 344.595 41.8973 345.575 40.656C346.555 39.4147 347.045 37.667 347.045 35.413C347.045 33.257 346.538 31.689 345.526 30.709C344.513 29.729 342.831 29.239 340.479 29.239C339.858 29.239 338.568 29.3043 336.608 29.435V42.469ZM336.608 59.766C337.359 60.06 338.796 60.207 340.92 60.207C343.696 60.207 345.705 59.5537 346.947 58.247C348.188 56.9403 348.809 55.0457 348.809 52.563C348.809 50.1783 348.237 48.4797 347.094 47.467C345.983 46.4217 344.203 45.899 341.753 45.899C339.009 45.899 337.294 45.9317 336.608 45.997V59.766ZM359.936 55.356C359.936 52.3833 361.422 50.1457 364.395 48.643C367.4 47.1403 371.271 46.3727 376.008 46.34V45.213C376.008 43.8737 375.861 42.8283 375.567 42.077C375.305 41.3257 374.799 40.7703 374.048 40.411C373.329 40.019 372.267 39.823 370.863 39.823C369.262 39.823 367.825 40.0353 366.551 40.46C365.277 40.852 363.954 41.3747 362.582 42.028L361.063 38.892C361.553 38.4673 362.369 37.961 363.513 37.373C364.689 36.785 366.077 36.2787 367.678 35.854C369.278 35.3967 370.928 35.168 372.627 35.168C375.142 35.168 377.102 35.4947 378.507 36.148C379.944 36.8013 380.973 37.8467 381.594 39.284C382.214 40.7213 382.525 42.6487 382.525 45.066V60.06H385.171V62.804C384.517 62.9673 383.586 63.1307 382.378 63.294C381.169 63.4573 380.107 63.539 379.193 63.539C378.082 63.539 377.331 63.3757 376.939 63.049C376.579 62.7223 376.4 62.0527 376.4 61.04V59.717C375.518 60.697 374.374 61.579 372.97 62.363C371.565 63.147 369.981 63.539 368.217 63.539C366.714 63.539 365.326 63.2287 364.052 62.608C362.81 61.9547 361.814 61.0237 361.063 59.815C360.311 58.5737 359.936 57.0873 359.936 55.356ZM371.353 59.472C372.039 59.472 372.823 59.276 373.705 58.884C374.587 58.4593 375.354 57.953 376.008 57.365V49.329C373.068 49.329 370.863 49.8353 369.393 50.848C367.955 51.828 367.237 53.102 367.237 54.67C367.237 56.238 367.596 57.4303 368.315 58.247C369.066 59.0637 370.079 59.472 371.353 59.472ZM396.46 63.441C394.402 63.441 392.883 62.9673 391.903 62.02C390.923 61.0727 390.433 59.57 390.433 57.512V39.529H387.248V36.981C387.51 36.883 387.983 36.7197 388.669 36.491C389.355 36.2297 389.878 36.0173 390.237 35.854C390.793 35.4293 391.266 34.6943 391.658 33.649C391.952 32.963 392.491 31.2643 393.275 28.553H397.195L397.391 35.756H404.888V39.529H397.44V53.298C397.44 55.1273 397.489 56.4177 397.587 57.169C397.685 57.9203 397.898 58.4103 398.224 58.639C398.551 58.835 399.123 58.933 399.939 58.933C400.756 58.933 401.605 58.8513 402.487 58.688C403.369 58.492 404.104 58.2633 404.692 58.002L405.623 60.746C404.709 61.432 403.369 62.0527 401.605 62.608C399.841 63.1633 398.126 63.441 396.46 63.441ZM416.462 63.441C414.404 63.441 412.885 62.9673 411.905 62.02C410.925 61.0727 410.435 59.57 410.435 57.512V39.529H407.25V36.981C407.512 36.883 407.985 36.7197 408.671 36.491C409.357 36.2297 409.88 36.0173 410.239 35.854C410.795 35.4293 411.268 34.6943 411.66 33.649C411.954 32.963 412.493 31.2643 413.277 28.553H417.197L417.393 35.756H424.89V39.529H417.442V53.298C417.442 55.1273 417.491 56.4177 417.589 57.169C417.687 57.9203 417.9 58.4103 418.226 58.639C418.553 58.835 419.125 58.933 419.941 58.933C420.758 58.933 421.607 58.8513 422.489 58.688C423.371 58.492 424.106 58.2633 424.694 58.002L425.625 60.746C424.711 61.432 423.371 62.0527 421.607 62.608C419.843 63.1633 418.128 63.441 416.462 63.441ZM440.58 63.539C436.268 63.539 433.051 62.2813 430.927 59.766C428.837 57.218 427.791 53.7553 427.791 49.378C427.791 46.438 428.33 43.89 429.408 41.734C430.519 39.578 432.071 37.9283 434.063 36.785C436.056 35.6417 438.359 35.07 440.972 35.07C444.239 35.07 446.754 35.9357 448.518 37.667C450.282 39.3657 451.197 41.7993 451.262 44.968C451.262 47.124 451.132 48.7247 450.87 49.77H434.945C435.076 52.7427 435.778 55.062 437.052 56.728C438.326 58.3613 440.139 59.178 442.491 59.178C443.765 59.178 445.072 58.9657 446.411 58.541C447.783 58.1163 448.861 57.61 449.645 57.022L450.87 59.717C449.988 60.6643 448.551 61.5463 446.558 62.363C444.598 63.147 442.606 63.539 440.58 63.539ZM444.402 46.83C444.468 45.9153 444.5 45.213 444.5 44.723C444.5 40.3783 443.047 38.206 440.139 38.206C438.539 38.206 437.297 38.843 436.415 40.117C435.533 41.391 435.043 43.6287 434.945 46.83H444.402ZM455.173 60.109L458.407 59.717V40.411L455.271 39.529V36.148L462.866 35.119H463.013L464.238 36.099V37.177L464.091 41.146H464.238C464.466 40.4927 465.005 39.6923 465.855 38.745C466.704 37.765 467.766 36.9157 469.04 36.197C470.346 35.4457 471.751 35.07 473.254 35.07C473.972 35.07 474.593 35.168 475.116 35.364V42.714C474.136 42.028 472.943 41.685 471.539 41.685C469.154 41.685 467.08 42.322 465.316 43.596V59.668L471 60.109V63H455.173V60.109ZM482.598 75.201C482.01 75.201 481.373 75.152 480.687 75.054C480.034 74.956 479.56 74.8417 479.266 74.711V69.468C479.495 69.5987 479.952 69.7293 480.638 69.86C481.324 69.9907 481.945 70.056 482.5 70.056C484.134 70.056 485.473 69.517 486.518 68.439C487.596 67.361 488.593 65.548 489.507 63H486.861L477.649 39.235L475.444 38.598V35.756H488.919V38.598L485.342 39.186L489.703 52.759L491.467 58.541L492.986 52.759L497.004 39.186L493.917 38.598V35.756H504.55V38.598L502.149 39.186C500.353 44.674 498.572 49.966 496.808 55.062C495.044 60.158 494.015 63.0163 493.721 63.637C492.676 66.381 491.68 68.5697 490.732 70.203C489.785 71.8363 488.658 73.0777 487.351 73.927C486.045 74.7763 484.46 75.201 482.598 75.201ZM523.785 31.297C522.609 31.297 521.678 30.954 520.992 30.268C520.306 29.582 519.963 28.7 519.963 27.622C519.963 26.3807 520.355 25.3517 521.139 24.535C521.923 23.7183 522.968 23.31 524.275 23.31C525.582 23.31 526.578 23.6693 527.264 24.388C527.95 25.074 528.293 25.9397 528.293 26.985C528.293 28.2917 527.901 29.337 527.117 30.121C526.333 30.905 525.239 31.297 523.834 31.297H523.785ZM521.188 40.411L517.709 39.48V36.197L526.676 35.119H526.774L528.146 36.099V59.668L531.429 60.06V63H517.758V60.06L521.188 59.619V40.411ZM540.38 58.982C540.642 59.374 541.23 59.7497 542.144 60.109C543.092 60.4357 544.039 60.599 544.986 60.599C546.522 60.599 547.665 60.2887 548.416 59.668C549.2 59.0147 549.592 58.1653 549.592 57.12C549.592 56.042 549.119 55.1763 548.171 54.523C547.224 53.837 545.623 53.004 543.369 52.024L541.997 51.436C539.743 50.4887 538.061 49.3453 536.95 48.006C535.84 46.6667 535.284 44.9353 535.284 42.812C535.284 41.342 535.725 40.0353 536.607 38.892C537.489 37.716 538.731 36.8013 540.331 36.148C541.932 35.4947 543.778 35.168 545.868 35.168C547.404 35.168 548.71 35.266 549.788 35.462C550.899 35.658 552.059 35.9193 553.267 36.246C553.921 36.4747 554.411 36.6053 554.737 36.638V43.057H550.866L549.739 39.333C549.543 39.0063 549.102 38.7123 548.416 38.451C547.73 38.1897 546.946 38.059 546.064 38.059C544.725 38.059 543.647 38.353 542.83 38.941C542.046 39.4963 541.654 40.2803 541.654 41.293C541.654 42.2077 541.932 42.9753 542.487 43.596C543.043 44.184 543.647 44.6413 544.3 44.968C544.954 45.2947 546.162 45.8337 547.926 46.585C549.69 47.3363 551.144 48.055 552.287 48.741C553.463 49.427 554.427 50.3253 555.178 51.436C555.962 52.514 556.354 53.837 556.354 55.405C556.354 57.8223 555.407 59.7823 553.512 61.285C551.618 62.7877 548.89 63.539 545.329 63.539C543.663 63.539 542.161 63.392 540.821 63.098C539.515 62.804 537.996 62.412 536.264 61.922L535.186 61.579V55.111H539.253L540.38 58.982ZM577.809 31.297C576.633 31.297 575.702 30.954 575.016 30.268C574.33 29.582 573.987 28.7 573.987 27.622C573.987 26.3807 574.379 25.3517 575.163 24.535C575.947 23.7183 576.993 23.31 578.299 23.31C579.606 23.31 580.602 23.6693 581.288 24.388C581.974 25.074 582.317 25.9397 582.317 26.985C582.317 28.2917 581.925 29.337 581.141 30.121C580.357 30.905 579.263 31.297 577.858 31.297H577.809ZM575.212 40.411L571.733 39.48V36.197L580.7 35.119H580.798L582.17 36.099V59.668L585.453 60.06V63H571.782V60.06L575.212 59.619V40.411ZM591.71 40.411L588.574 39.529V36.148L596.708 35.119H596.855L598.08 36.099V38.01L598.031 39.186C599.174 38.108 600.66 37.177 602.49 36.393C604.319 35.609 606.165 35.217 608.027 35.217C610.019 35.217 611.571 35.5927 612.682 36.344C613.825 37.0627 614.642 38.206 615.132 39.774C615.622 41.342 615.867 43.4653 615.867 46.144V59.668L618.856 60.06V63H606.214V60.06L608.86 59.668V46.144C608.86 44.4453 608.745 43.1223 608.517 42.175C608.288 41.195 607.863 40.4927 607.243 40.068C606.655 39.6107 605.805 39.382 604.695 39.382C602.833 39.382 600.84 40.1823 598.717 41.783V59.619L601.657 60.06V63H588.868V60.06L591.71 59.619V40.411ZM224.302 110.496C224.302 113.24 223.73 115.755 222.587 118.042C221.476 120.329 219.827 122.158 217.638 123.53C215.482 124.869 212.901 125.539 209.896 125.539C209.243 125.539 208.557 125.474 207.838 125.343C207.152 125.245 206.597 125.114 206.172 124.951L206.319 129.018V133.477L210.876 134.065V136.858H196.323V134.065L199.508 133.477V102.411L196.323 101.529V98.148L204.408 97.119H204.506L205.731 98.099V100.843C206.548 99.8303 207.658 98.9483 209.063 98.197C210.468 97.4457 212.003 97.07 213.669 97.07C216.772 97.07 219.32 98.1807 221.313 100.402C223.306 102.591 224.302 105.955 224.302 110.496ZM211.121 101.137C210.141 101.137 209.21 101.349 208.328 101.774C207.446 102.199 206.776 102.672 206.319 103.195V121.374C206.548 121.701 207.005 121.978 207.691 122.207C208.41 122.436 209.194 122.55 210.043 122.55C212.166 122.55 213.849 121.635 215.09 119.806C216.364 117.944 217.001 115.037 217.001 111.084C217.001 107.752 216.462 105.269 215.384 103.636C214.306 101.97 212.885 101.137 211.121 101.137ZM240.657 125.539C236.345 125.539 233.127 124.281 231.004 121.766C228.913 119.218 227.868 115.755 227.868 111.378C227.868 108.438 228.407 105.89 229.485 103.734C230.595 101.578 232.147 99.9283 234.14 98.785C236.132 97.6417 238.435 97.07 241.049 97.07C244.315 97.07 246.831 97.9357 248.595 99.667C250.359 101.366 251.273 103.799 251.339 106.968C251.339 109.124 251.208 110.725 250.947 111.77H235.022C235.152 114.743 235.855 117.062 237.129 118.728C238.403 120.361 240.216 121.178 242.568 121.178C243.842 121.178 245.148 120.966 246.488 120.541C247.86 120.116 248.938 119.61 249.722 119.022L250.947 121.717C250.065 122.664 248.627 123.546 246.635 124.363C244.675 125.147 242.682 125.539 240.657 125.539ZM244.479 108.83C244.544 107.915 244.577 107.213 244.577 106.723C244.577 102.378 243.123 100.206 240.216 100.206C238.615 100.206 237.374 100.843 236.492 102.117C235.61 103.391 235.12 105.629 235.022 108.83H244.479ZM255.249 122.109L258.483 121.717V102.411L255.347 101.529V98.148L262.942 97.119H263.089L264.314 98.099V99.177L264.167 103.146H264.314C264.543 102.493 265.082 101.692 265.931 100.745C266.78 99.765 267.842 98.9157 269.116 98.197C270.423 97.4457 271.827 97.07 273.33 97.07C274.049 97.07 274.669 97.168 275.192 97.364V104.714C274.212 104.028 273.02 103.685 271.615 103.685C269.23 103.685 267.156 104.322 265.392 105.596V121.668L271.076 122.109V125H255.249V122.109ZM281.694 101.578H277.578V98.834L281.694 97.854V95.698C281.694 93.5747 282.25 91.631 283.36 89.867C284.504 88.103 286.023 86.7147 287.917 85.702C289.812 84.6567 291.821 84.134 293.944 84.134C295.055 84.134 296.1 84.2973 297.08 84.624V90.896C296.754 90.5693 296.1 90.2427 295.12 89.916C294.173 89.5893 293.177 89.426 292.131 89.426C290.857 89.426 289.943 89.7527 289.387 90.406C288.865 91.0267 288.603 92.1047 288.603 93.64V97.805H294.826V101.578H288.603V121.668L293.748 122.06V125H277.823V122.06L281.694 121.619V101.578ZM310.663 125.539C306.351 125.539 303.134 124.281 301.01 121.766C298.92 119.218 297.874 115.755 297.874 111.378C297.874 108.438 298.413 105.89 299.491 103.734C300.602 101.578 302.154 99.9283 304.146 98.785C306.139 97.6417 308.442 97.07 311.055 97.07C314.322 97.07 316.837 97.9357 318.601 99.667C320.365 101.366 321.28 103.799 321.345 106.968C321.345 109.124 321.215 110.725 320.953 111.77H305.028C305.159 114.743 305.861 117.062 307.135 118.728C308.409 120.361 310.222 121.178 312.574 121.178C313.848 121.178 315.155 120.966 316.494 120.541C317.866 120.116 318.944 119.61 319.728 119.022L320.953 121.717C320.071 122.664 318.634 123.546 316.641 124.363C314.681 125.147 312.689 125.539 310.663 125.539ZM314.485 108.83C314.551 107.915 314.583 107.213 314.583 106.723C314.583 102.378 313.13 100.206 310.222 100.206C308.622 100.206 307.38 100.843 306.498 102.117C305.616 103.391 305.126 105.629 305.028 108.83H314.485ZM324.619 111.525C324.619 108.716 325.174 106.217 326.285 104.028C327.428 101.839 329.045 100.141 331.136 98.932C333.259 97.6907 335.725 97.07 338.535 97.07C339.841 97.07 340.968 97.168 341.916 97.364C342.863 97.56 343.925 97.8213 345.101 98.148L346.522 98.54L346.228 106.919H341.965L340.74 101.529C340.544 100.68 339.58 100.255 337.849 100.255C336.019 100.255 334.582 101.055 333.537 102.656C332.524 104.257 332.001 106.756 331.969 110.153C331.969 113.746 332.589 116.507 333.831 118.434C335.072 120.329 336.722 121.276 338.78 121.276C341.262 121.276 343.549 120.606 345.64 119.267L346.767 121.815C345.917 122.73 344.611 123.579 342.847 124.363C341.115 125.147 339.237 125.539 337.212 125.539C333.03 125.539 329.878 124.249 327.755 121.668C325.664 119.087 324.619 115.706 324.619 111.525ZM358.897 125.441C356.839 125.441 355.32 124.967 354.34 124.02C353.36 123.073 352.87 121.57 352.87 119.512V101.529H349.685V98.981C349.946 98.883 350.42 98.7197 351.106 98.491C351.792 98.2297 352.315 98.0173 352.674 97.854C353.229 97.4293 353.703 96.6943 354.095 95.649C354.389 94.963 354.928 93.2643 355.712 90.553H359.632L359.828 97.756H367.325V101.529H359.877V115.298C359.877 117.127 359.926 118.418 360.024 119.169C360.122 119.92 360.334 120.41 360.661 120.639C360.988 120.835 361.559 120.933 362.376 120.933C363.193 120.933 364.042 120.851 364.924 120.688C365.806 120.492 366.541 120.263 367.129 120.002L368.06 122.746C367.145 123.432 365.806 124.053 364.042 124.608C362.278 125.163 360.563 125.441 358.897 125.441ZM381.658 111.525C381.658 108.716 382.213 106.217 383.324 104.028C384.467 101.839 386.084 100.141 388.175 98.932C390.298 97.6907 392.765 97.07 395.574 97.07C396.881 97.07 398.008 97.168 398.955 97.364C399.902 97.56 400.964 97.8213 402.14 98.148L403.561 98.54L403.267 106.919H399.004L397.779 101.529C397.583 100.68 396.619 100.255 394.888 100.255C393.059 100.255 391.621 101.055 390.576 102.656C389.563 104.257 389.041 106.756 389.008 110.153C389.008 113.746 389.629 116.507 390.87 118.434C392.111 120.329 393.761 121.276 395.819 121.276C398.302 121.276 400.588 120.606 402.679 119.267L403.806 121.815C402.957 122.73 401.65 123.579 399.886 124.363C398.155 125.147 396.276 125.539 394.251 125.539C390.07 125.539 386.917 124.249 384.794 121.668C382.703 119.087 381.658 115.706 381.658 111.525ZM407.704 111.427C407.704 108.356 408.308 105.743 409.517 103.587C410.758 101.431 412.408 99.814 414.466 98.736C416.524 97.6253 418.762 97.07 421.179 97.07C425.295 97.07 428.464 98.344 430.685 100.892C432.939 103.407 434.066 106.837 434.066 111.182C434.066 114.285 433.445 116.931 432.204 119.12C430.995 121.276 429.362 122.893 427.304 123.971C425.279 125.016 423.041 125.539 420.591 125.539C416.508 125.539 413.339 124.281 411.085 121.766C408.831 119.218 407.704 115.772 407.704 111.427ZM420.983 122.354C424.674 122.354 426.52 118.793 426.52 111.672C426.52 107.948 426.079 105.122 425.197 103.195C424.315 101.235 422.878 100.255 420.885 100.255C417.096 100.255 415.201 103.816 415.201 110.937C415.201 114.661 415.658 117.503 416.573 119.463C417.52 121.39 418.99 122.354 420.983 122.354ZM441.264 102.411L438.128 101.529V98.148L446.262 97.119H446.409L447.634 98.099V100.01L447.585 101.186C448.729 100.108 450.215 99.177 452.044 98.393C453.874 97.609 455.719 97.217 457.581 97.217C459.574 97.217 461.126 97.5927 462.236 98.344C463.38 99.0627 464.196 100.206 464.686 101.774C465.176 103.342 465.421 105.465 465.421 108.144V121.668L468.41 122.06V125H455.768V122.06L458.414 121.668V108.144C458.414 106.445 458.3 105.122 458.071 104.175C457.843 103.195 457.418 102.493 456.797 102.068C456.209 101.611 455.36 101.382 454.249 101.382C452.387 101.382 450.395 102.182 448.271 103.783V121.619L451.211 122.06V125H438.422V122.06L441.264 121.619V102.411ZM482.114 125.539C480.089 125.539 478.276 125.065 476.675 124.118C475.074 123.138 473.8 121.635 472.853 119.61C471.906 117.585 471.432 115.053 471.432 112.015C471.432 109.271 471.987 106.772 473.098 104.518C474.241 102.231 475.907 100.418 478.096 99.079C480.285 97.7397 482.914 97.07 485.985 97.07C487.226 97.07 488.402 97.2007 489.513 97.462V89.181L484.711 88.495V85.8L494.805 84.82H494.952L496.324 85.849V122.011H498.97V124.804C496.618 125.294 494.674 125.539 493.139 125.539C492.094 125.539 491.342 125.359 490.885 125C490.46 124.673 490.248 124.004 490.248 122.991V121.619C489.399 122.762 488.239 123.71 486.769 124.461C485.299 125.18 483.747 125.539 482.114 125.539ZM484.662 121.472C485.74 121.472 486.687 121.26 487.504 120.835C488.353 120.378 489.023 119.839 489.513 119.218V101.382C489.284 101.055 488.794 100.778 488.043 100.549C487.324 100.32 486.54 100.206 485.691 100.206C483.6 100.206 481.918 101.121 480.644 102.95C479.403 104.747 478.782 107.638 478.782 111.623C478.782 114.955 479.321 117.438 480.399 119.071C481.477 120.672 482.898 121.472 484.662 121.472ZM508.377 93.297C507.201 93.297 506.27 92.954 505.584 92.268C504.898 91.582 504.555 90.7 504.555 89.622C504.555 88.3807 504.947 87.3517 505.731 86.535C506.515 85.7183 507.56 85.31 508.867 85.31C510.173 85.31 511.17 85.6693 511.856 86.388C512.542 87.074 512.885 87.9397 512.885 88.985C512.885 90.2917 512.493 91.337 511.709 92.121C510.925 92.905 509.83 93.297 508.426 93.297H508.377ZM505.78 102.411L502.301 101.48V98.197L511.268 97.119H511.366L512.738 98.099V121.668L516.021 122.06V125H502.35V122.06L505.78 121.619V102.411ZM527.765 125.441C525.707 125.441 524.188 124.967 523.208 124.02C522.228 123.073 521.738 121.57 521.738 119.512V101.529H518.553V98.981C518.814 98.883 519.288 98.7197 519.974 98.491C520.66 98.2297 521.183 98.0173 521.542 97.854C522.097 97.4293 522.571 96.6943 522.963 95.649C523.257 94.963 523.796 93.2643 524.58 90.553H528.5L528.696 97.756H536.193V101.529H528.745V115.298C528.745 117.127 528.794 118.418 528.892 119.169C528.99 119.92 529.202 120.41 529.529 120.639C529.856 120.835 530.427 120.933 531.244 120.933C532.061 120.933 532.91 120.851 533.792 120.688C534.674 120.492 535.409 120.263 535.997 120.002L536.928 122.746C536.013 123.432 534.674 124.053 532.91 124.608C531.146 125.163 529.431 125.441 527.765 125.441ZM545.366 93.297C544.19 93.297 543.259 92.954 542.573 92.268C541.887 91.582 541.544 90.7 541.544 89.622C541.544 88.3807 541.936 87.3517 542.72 86.535C543.504 85.7183 544.549 85.31 545.856 85.31C547.163 85.31 548.159 85.6693 548.845 86.388C549.531 87.074 549.874 87.9397 549.874 88.985C549.874 90.2917 549.482 91.337 548.698 92.121C547.914 92.905 546.82 93.297 545.415 93.297H545.366ZM542.769 102.411L539.29 101.48V98.197L548.257 97.119H548.355L549.727 98.099V121.668L553.01 122.06V125H539.339V122.06L542.769 121.619V102.411ZM556.522 111.427C556.522 108.356 557.127 105.743 558.335 103.587C559.577 101.431 561.226 99.814 563.284 98.736C565.342 97.6253 567.58 97.07 569.997 97.07C574.113 97.07 577.282 98.344 579.503 100.892C581.757 103.407 582.884 106.837 582.884 111.182C582.884 114.285 582.264 116.931 581.022 119.12C579.814 121.276 578.18 122.893 576.122 123.971C574.097 125.016 571.859 125.539 569.409 125.539C565.326 125.539 562.157 124.281 559.903 121.766C557.649 119.218 556.522 115.772 556.522 111.427ZM569.801 122.354C573.493 122.354 575.338 118.793 575.338 111.672C575.338 107.948 574.897 105.122 574.015 103.195C573.133 101.235 571.696 100.255 569.703 100.255C565.914 100.255 564.019 103.816 564.019 110.937C564.019 114.661 564.477 117.503 565.391 119.463C566.339 121.39 567.809 122.354 569.801 122.354ZM590.083 102.411L586.947 101.529V98.148L595.081 97.119H595.228L596.453 98.099V100.01L596.404 101.186C597.547 100.108 599.033 99.177 600.863 98.393C602.692 97.609 604.538 97.217 606.4 97.217C608.392 97.217 609.944 97.5927 611.055 98.344C612.198 99.0627 613.015 100.206 613.505 101.774C613.995 103.342 614.24 105.465 614.24 108.144V121.668L617.229 122.06V125H604.587V122.06L607.233 121.668V108.144C607.233 106.445 607.118 105.122 606.89 104.175C606.661 103.195 606.236 102.493 605.616 102.068C605.028 101.611 604.178 101.382 603.068 101.382C601.206 101.382 599.213 102.182 597.09 103.783V121.619L600.03 122.06V125H587.241V122.06L590.083 121.619V102.411Z" fill="#0FA958"/>
<g clip-path="url(#clip0_0_1)">
<path d="M81.6988 2.51815e-05C84.3515 2.51815e-05 86.9638 0.17215 89.3938 0.57715C91.787 0.890748 94.1483 1.41247 96.4509 2.1364C98.7594 2.83503 101.017 3.70578 103.275 4.79928C105.472 5.84215 107.73 7.1179 109.988 8.50503C113.805 10.935 117.562 12.8993 121.389 14.4687C128.923 17.4842 136.89 19.2786 144.99 19.7843C149.101 20.0779 153.323 20.25 157.717 20.25V60.75C157.717 68.445 156.735 75.735 154.771 82.6808C152.884 89.5274 150.203 96.1299 146.782 102.354C143.376 108.569 139.346 114.421 134.754 119.819C130.091 125.341 125.043 130.524 119.647 135.331C114.18 140.152 108.421 144.632 102.404 148.746C96.3902 152.918 90.3152 156.796 84.2402 160.319L81.8102 161.767L79.3802 160.319C73.1351 156.704 67.0351 152.843 61.0944 148.746C55.0437 144.678 49.2822 140.196 43.8515 135.331C38.4588 130.524 33.4141 125.34 28.7552 119.819C24.1756 114.398 20.1272 108.549 16.6659 102.354C13.3037 96.1022 10.6254 89.5065 8.67729 82.6808C6.70059 75.54 5.72601 68.1591 5.78154 60.75V20.25C10.1859 20.25 14.408 20.0779 18.5188 19.7843C22.5654 19.5032 26.5857 18.9245 30.5473 18.0529C34.4252 17.1822 38.303 16.0279 42.1202 14.4687C46.0811 12.8701 49.8787 10.8933 53.4602 8.56578C57.9152 5.67003 62.4309 3.53365 66.8859 2.12628C71.6838 0.655433 76.6809 -0.0618538 81.6988 2.51815e-05V2.51815e-05ZM147.532 30.2029C139.867 29.831 132.274 28.5497 124.912 26.3858C117.589 24.2014 110.614 20.9865 104.197 16.8379C100.868 14.6529 97.2526 12.939 93.4539 11.745C89.6594 10.5982 85.7133 10.0316 81.7494 10.0643C77.7561 10.0384 73.781 10.6049 69.9538 11.745C66.1495 12.9002 62.539 14.6167 59.2415 16.8379C52.8127 21.0092 45.8196 24.2381 38.4752 26.4263C31.2965 28.512 23.7838 29.7878 15.9065 30.2535V60.8007C15.9065 67.5135 16.7773 73.9328 18.5188 80.1192C20.293 86.2518 22.7377 92.1701 25.8088 97.767C28.9167 103.422 32.5797 108.754 36.7438 113.684C40.9659 118.655 45.4715 123.282 50.3315 127.676C55.1915 132.081 60.2844 136.131 65.6102 139.887C70.9865 143.654 76.373 147.066 81.7494 150.184C87.2545 146.979 92.6222 143.544 97.838 139.887C103.199 136.142 108.319 132.064 113.167 127.676C118.027 123.282 122.543 118.655 126.765 113.684C130.93 108.754 134.593 103.423 137.7 97.767C140.758 92.1771 143.166 86.2561 144.879 80.1192C146.673 73.8377 147.566 67.3333 147.532 60.8007V30.2029V30.2029Z" fill="#0FA958"/>
<path fill-rule="evenodd" clip-rule="evenodd" d="M119.445 47.6787L114.99 43.8514L110.879 44.2058L66.7338 96.3293L51.6982 74.8643L47.6482 74.1758L42.9603 77.5272L42.2617 81.5772L61.5903 109.178L63.7875 110.393L68.4146 110.676L70.7838 109.644L119.738 51.7793L119.445 47.6787V47.6787Z" fill="#0FA958"/>
</g>
<defs>
<clipPath id="clip0_0_1">
<rect width="162" height="162" fill="white"/>
</clipPath>
</defs>
</svg>
