<svg width="153" height="153" viewBox="0 0 153 153" fill="none" xmlns="http://www.w3.org/2000/svg">
<g clip-path="url(#clip0_365_2)">
<path d="M73.1149 46.4166C73.559 46.8618 74.0866 47.2151 74.6675 47.4561C75.2484 47.6972 75.8711 47.8212 76.5 47.8212C77.1289 47.8212 77.7516 47.6972 78.3325 47.4561C78.9134 47.2151 79.441 46.8618 79.8851 46.4166L94.2289 32.0728C94.6734 31.6283 95.026 31.1005 95.2666 30.5197C95.5072 29.9389 95.631 29.3164 95.631 28.6877C95.631 28.059 95.5072 27.4365 95.2666 26.8557C95.026 26.2748 94.6734 25.7471 94.2289 25.3026C93.7843 24.858 93.2566 24.5054 92.6758 24.2648C92.0949 24.0242 91.4724 23.9004 90.8438 23.9004C90.2151 23.9004 89.5926 24.0242 89.0117 24.2648C88.4309 24.5054 87.9032 24.858 87.4586 25.3026L81.2812 31.4895V14.3439C81.2812 13.0759 80.7775 11.8597 79.8809 10.9631C78.9842 10.0664 77.7681 9.56268 76.5 9.56268C75.2319 9.56268 74.0158 10.0664 73.1191 10.9631C72.2225 11.8597 71.7188 13.0759 71.7188 14.3439V31.4895L65.5414 25.3026C65.0968 24.858 64.5691 24.5054 63.9883 24.2648C63.4074 24.0242 62.7849 23.9004 62.1562 23.9004C61.5276 23.9004 60.9051 24.0242 60.3242 24.2648C59.7434 24.5054 59.2157 24.858 58.7711 25.3026C58.3266 25.7471 57.974 26.2748 57.7334 26.8557C57.4928 27.4365 57.369 28.059 57.369 28.6877C57.369 29.3164 57.4928 29.9389 57.7334 30.5197C57.974 31.1005 58.3266 31.6283 58.7711 32.0728L73.1149 46.4166V46.4166ZM22.4049 41.5397C23.3016 40.6433 24.5175 40.1398 25.7853 40.1398C27.0531 40.1398 28.269 40.6433 29.1656 41.5397L42.687 55.0515C43.5579 55.9532 44.0399 57.161 44.029 58.4146C44.0181 59.6683 43.5152 60.8675 42.6288 61.7539C41.7423 62.6404 40.5431 63.1433 39.2895 63.1542C38.0358 63.1651 36.8281 62.6831 35.9263 61.8122L22.4049 48.2908C21.5086 47.3942 21.0051 46.1783 21.0051 44.9105C21.0051 43.6426 21.5086 42.4267 22.4049 41.5301V41.5397ZM130.595 41.5397C131.488 42.4359 131.99 43.6498 131.99 44.9152C131.99 46.1807 131.488 47.3946 130.595 48.2908L117.074 61.8122C116.633 62.2688 116.105 62.6331 115.522 62.8837C114.938 63.1342 114.311 63.2661 113.676 63.2717C113.041 63.2772 112.412 63.1562 111.824 62.9158C111.236 62.6754 110.703 62.3204 110.254 61.8714C109.805 61.4225 109.45 60.8887 109.209 60.3011C108.969 59.7135 108.848 59.0839 108.854 58.449C108.859 57.8142 108.991 57.1868 109.242 56.6035C109.492 56.0201 109.856 55.4926 110.313 55.0515L123.834 41.5301C124.731 40.6338 125.947 40.1302 127.215 40.1302C128.483 40.1302 129.698 40.6338 130.595 41.5301V41.5397ZM111.967 109.969C114.312 104.163 115.195 97.8703 114.54 91.6432C113.885 85.4162 111.711 79.4452 108.209 74.2546C104.707 69.0639 99.9845 64.8123 94.4558 61.873C88.9271 58.9336 82.7614 57.3965 76.5 57.3965C70.2386 57.3965 64.0729 58.9336 58.5442 61.873C53.0155 64.8123 48.293 69.0639 44.7912 74.2546C41.2894 79.4452 39.1154 85.4162 38.4601 91.6432C37.8047 97.8703 38.6881 104.163 41.0327 109.969H4.78125C3.51318 109.969 2.29705 110.473 1.4004 111.369C0.503737 112.266 0 113.482 0 114.75C0 116.018 0.503737 117.234 1.4004 118.131C2.29705 119.028 3.51318 119.531 4.78125 119.531H148.219C149.487 119.531 150.703 119.028 151.6 118.131C152.496 117.234 153 116.018 153 114.75C153 113.482 152.496 112.266 151.6 111.369C150.703 110.473 149.487 109.969 148.219 109.969H111.977H111.967ZM0 95.6252C0 94.3571 0.503737 93.141 1.4004 92.2443C2.29705 91.3477 3.51318 90.8439 4.78125 90.8439H23.9062C25.1743 90.8439 26.3904 91.3477 27.2871 92.2443C28.1838 93.141 28.6875 94.3571 28.6875 95.6252C28.6875 96.8932 28.1838 98.1094 27.2871 99.006C26.3904 99.9027 25.1743 100.406 23.9062 100.406H4.78125C3.51318 100.406 2.29705 99.9027 1.4004 99.006C0.503737 98.1094 0 96.8932 0 95.6252ZM124.312 95.6252C124.312 94.3571 124.816 93.141 125.713 92.2443C126.61 91.3477 127.826 90.8439 129.094 90.8439H148.219C149.487 90.8439 150.703 91.3477 151.6 92.2443C152.496 93.141 153 94.3571 153 95.6252C153 96.8932 152.496 98.1094 151.6 99.006C150.703 99.9027 149.487 100.406 148.219 100.406H129.094C127.826 100.406 126.61 99.9027 125.713 99.006C124.816 98.1094 124.312 96.8932 124.312 95.6252Z" fill="#10BAB9"/>
</g>
<defs>
<clipPath id="clip0_365_2">
<rect width="153" height="153" fill="white" transform="translate(0 0.000183105)"/>
</clipPath>
</defs>
</svg>
