<svg width="182" height="593" viewBox="0 0 182 593" fill="none" xmlns="http://www.w3.org/2000/svg">
<path d="M35.5 483L48.5 469.5H130.5L145 483L157.5 512.5L153 548L138 570.5L115.5 586.5L87 590.5L57.5 582.5L38 564.5L24.5 540V509L35.5 483Z" fill="#2673AB"/>
<path d="M49.5 58V469L43 474L35.5 482L0 478L7 0H182L177 497.5L152 495.5L138.5 475.5L130 469V65.5L128.5 53.5L122 42.5L113 33L99 26.5H88L75 29L64 35L54.5 45L49.5 58Z" fill="white"/>
<path d="M49.0865 61.8493V468.747C25.1194 487.923 23.1234 514.225 23.123 526.876C23.1225 546.5 43.0962 590 90.8307 590C130.377 590 155.341 559.837 156.939 523.88C158.217 495.115 139.097 475.139 129.377 468.747V426.298V61.8493C128.378 49.2645 123.538 43.9294 117.593 37.6785C109.804 29.4884 97.6204 26.0925 90.6296 26.0925C84.6378 25.4932 70.9457 27.6301 60.6707 37.6785C51.6831 46.4679 49.0865 57.6544 49.0865 61.8493Z" stroke="#333333" stroke-width="5"/>
</svg>
