<svg width="686" height="160" viewBox="0 0 686 160" fill="none" xmlns="http://www.w3.org/2000/svg">
<path d="M192.13 21.62L189.4 21.165V18.995H194.615C195.408 18.995 196.435 18.9483 197.695 18.855C197.998 18.8317 198.36 18.8083 198.78 18.785C199.2 18.7617 199.69 18.75 200.25 18.75C203.773 18.75 206.235 19.2517 207.635 20.255C209.058 21.235 209.77 22.705 209.77 24.665C209.77 26.3917 209.245 27.8383 208.195 29.005C207.168 30.1483 205.815 30.8483 204.135 31.105C206.445 31.0817 208.253 31.6067 209.56 32.68C210.89 33.7533 211.555 35.2467 211.555 37.16C211.555 39.5867 210.703 41.535 209 43.005C207.297 44.475 204.45 45.21 200.46 45.21C199.41 45.21 198.442 45.175 197.555 45.105C197.322 45.105 196.925 45.0817 196.365 45.035C195.805 45.0117 195.233 45 194.65 45H189.365V42.9L192.13 42.55V21.62ZM197.205 30.335C197.462 30.3583 197.987 30.37 198.78 30.37H200.425C201.848 30.37 202.91 29.9267 203.61 29.04C204.31 28.1533 204.66 26.905 204.66 25.295C204.66 23.755 204.298 22.635 203.575 21.935C202.852 21.235 201.65 20.885 199.97 20.885C199.527 20.885 198.605 20.9317 197.205 21.025V30.335ZM197.205 42.69C197.742 42.9 198.768 43.005 200.285 43.005C202.268 43.005 203.703 42.5383 204.59 41.605C205.477 40.6717 205.92 39.3183 205.92 37.545C205.92 35.8417 205.512 34.6283 204.695 33.905C203.902 33.1583 202.63 32.785 200.88 32.785C198.92 32.785 197.695 32.8083 197.205 32.855V42.69ZM213.868 39.54C213.868 37.4167 214.929 35.8183 217.053 34.745C219.199 33.6717 221.964 33.1233 225.348 33.1V32.295C225.348 31.3383 225.243 30.5917 225.033 30.055C224.846 29.5183 224.484 29.1217 223.948 28.865C223.434 28.585 222.676 28.445 221.673 28.445C220.529 28.445 219.503 28.5967 218.593 28.9C217.683 29.18 216.738 29.5533 215.758 30.02L214.673 27.78C215.023 27.4767 215.606 27.115 216.423 26.695C217.263 26.275 218.254 25.9133 219.398 25.61C220.541 25.2833 221.719 25.12 222.933 25.12C224.729 25.12 226.129 25.3533 227.133 25.82C228.159 26.2867 228.894 27.0333 229.338 28.06C229.781 29.0867 230.003 30.4633 230.003 32.19V42.9H231.893V44.86C231.426 44.9767 230.761 45.0933 229.898 45.21C229.034 45.3267 228.276 45.385 227.623 45.385C226.829 45.385 226.293 45.2683 226.013 45.035C225.756 44.8017 225.628 44.3233 225.628 43.6V42.655C224.998 43.355 224.181 43.985 223.178 44.545C222.174 45.105 221.043 45.385 219.783 45.385C218.709 45.385 217.718 45.1633 216.808 44.72C215.921 44.2533 215.209 43.5883 214.673 42.725C214.136 41.8383 213.868 40.7767 213.868 39.54ZM222.023 42.48C222.513 42.48 223.073 42.34 223.703 42.06C224.333 41.7567 224.881 41.395 225.348 40.975V35.235C223.248 35.235 221.673 35.5967 220.623 36.32C219.596 37.02 219.083 37.93 219.083 39.05C219.083 40.17 219.339 41.0217 219.853 41.605C220.389 42.1883 221.113 42.48 222.023 42.48ZM239.957 45.315C238.487 45.315 237.402 44.9767 236.702 44.3C236.002 43.6233 235.652 42.55 235.652 41.08V28.235H233.377V26.415C233.564 26.345 233.902 26.2283 234.392 26.065C234.882 25.8783 235.255 25.7267 235.512 25.61C235.909 25.3067 236.247 24.7817 236.527 24.035C236.737 23.545 237.122 22.3317 237.682 20.395H240.482L240.622 25.54H245.977V28.235H240.657V38.07C240.657 39.3767 240.692 40.2983 240.762 40.835C240.832 41.3717 240.984 41.7217 241.217 41.885C241.45 42.025 241.859 42.095 242.442 42.095C243.025 42.095 243.632 42.0367 244.262 41.92C244.892 41.78 245.417 41.6167 245.837 41.43L246.502 43.39C245.849 43.88 244.892 44.3233 243.632 44.72C242.372 45.1167 241.147 45.315 239.957 45.315ZM254.244 45.315C252.774 45.315 251.689 44.9767 250.989 44.3C250.289 43.6233 249.939 42.55 249.939 41.08V28.235H247.664V26.415C247.851 26.345 248.189 26.2283 248.679 26.065C249.169 25.8783 249.542 25.7267 249.799 25.61C250.196 25.3067 250.534 24.7817 250.814 24.035C251.024 23.545 251.409 22.3317 251.969 20.395H254.769L254.909 25.54H260.264V28.235H254.944V38.07C254.944 39.3767 254.979 40.2983 255.049 40.835C255.119 41.3717 255.271 41.7217 255.504 41.885C255.737 42.025 256.146 42.095 256.729 42.095C257.312 42.095 257.919 42.0367 258.549 41.92C259.179 41.78 259.704 41.6167 260.124 41.43L260.789 43.39C260.136 43.88 259.179 44.3233 257.919 44.72C256.659 45.1167 255.434 45.315 254.244 45.315ZM271.471 45.385C268.391 45.385 266.093 44.4867 264.576 42.69C263.083 40.87 262.336 38.3967 262.336 35.27C262.336 33.17 262.721 31.35 263.491 29.81C264.285 28.27 265.393 27.0917 266.816 26.275C268.24 25.4583 269.885 25.05 271.751 25.05C274.085 25.05 275.881 25.6683 277.141 26.905C278.401 28.1183 279.055 29.8567 279.101 32.12C279.101 33.66 279.008 34.8033 278.821 35.55H267.446C267.54 37.6733 268.041 39.33 268.951 40.52C269.861 41.6867 271.156 42.27 272.836 42.27C273.746 42.27 274.68 42.1183 275.636 41.815C276.616 41.5117 277.386 41.15 277.946 40.73L278.821 42.655C278.191 43.3317 277.165 43.9617 275.741 44.545C274.341 45.105 272.918 45.385 271.471 45.385ZM274.201 33.45C274.248 32.7967 274.271 32.295 274.271 31.945C274.271 28.8417 273.233 27.29 271.156 27.29C270.013 27.29 269.126 27.745 268.496 28.655C267.866 29.565 267.516 31.1633 267.446 33.45H274.201ZM281.894 42.935L284.204 42.655V28.865L281.964 28.235V25.82L287.389 25.085H287.494L288.369 25.785V26.555L288.264 29.39H288.369C288.533 28.9233 288.918 28.3517 289.524 27.675C290.131 26.975 290.889 26.3683 291.799 25.855C292.733 25.3183 293.736 25.05 294.809 25.05C295.323 25.05 295.766 25.12 296.139 25.26V30.51C295.439 30.02 294.588 29.775 293.584 29.775C291.881 29.775 290.399 30.23 289.139 31.14V42.62L293.199 42.935V45H281.894V42.935ZM301.484 53.715C301.064 53.715 300.609 53.68 300.119 53.61C299.652 53.54 299.314 53.4583 299.104 53.365V49.62C299.267 49.7133 299.594 49.8067 300.084 49.9C300.574 49.9933 301.017 50.04 301.414 50.04C302.581 50.04 303.537 49.655 304.284 48.885C305.054 48.115 305.766 46.82 306.419 45H304.529L297.949 28.025L296.374 27.57V25.54H305.999V27.57L303.444 27.99L306.559 37.685L307.819 41.815L308.904 37.685L311.774 27.99L309.569 27.57V25.54H317.164V27.57L315.449 27.99C314.166 31.91 312.894 35.69 311.634 39.33C310.374 42.97 309.639 45.0117 309.429 45.455C308.682 47.415 307.971 48.9783 307.294 50.145C306.617 51.3117 305.812 52.1983 304.879 52.805C303.946 53.4117 302.814 53.715 301.484 53.715ZM329.293 21.62L326.668 21.165V18.995H331.778C332.548 18.995 333.586 18.9483 334.893 18.855C335.196 18.8317 335.651 18.8083 336.258 18.785C336.888 18.7617 337.448 18.75 337.938 18.75C342.231 18.75 345.44 19.8233 347.563 21.97C349.71 24.1167 350.783 27.1617 350.783 31.105C350.783 33.8583 350.246 36.3083 349.173 38.455C348.123 40.6017 346.618 42.2817 344.658 43.495C342.698 44.685 340.411 45.28 337.798 45.28C337.121 45.28 336.06 45.2333 334.613 45.14C333.26 45.0467 332.338 45 331.848 45H326.528V42.9L329.293 42.55V21.62ZM334.368 42.655C335.161 42.865 336.27 42.97 337.693 42.97C340.026 42.9233 341.858 41.99 343.188 40.17C344.518 38.3267 345.183 35.5733 345.183 31.91C345.183 28.4333 344.53 25.75 343.223 23.86C341.916 21.9467 339.886 20.99 337.133 20.99C336.55 20.99 335.99 21.025 335.453 21.095C334.94 21.165 334.578 21.2117 334.368 21.235V42.655ZM357.529 22.355C356.689 22.355 356.024 22.11 355.534 21.62C355.044 21.13 354.799 20.5 354.799 19.73C354.799 18.8433 355.079 18.1083 355.639 17.525C356.199 16.9417 356.946 16.65 357.879 16.65C358.812 16.65 359.524 16.9067 360.014 17.42C360.504 17.91 360.749 18.5283 360.749 19.275C360.749 20.2083 360.469 20.955 359.909 21.515C359.349 22.075 358.567 22.355 357.564 22.355H357.529ZM355.674 28.865L353.189 28.2V25.855L359.594 25.085H359.664L360.644 25.785V42.62L362.989 42.9V45H353.224V42.9L355.674 42.585V28.865ZM369.383 42.13C369.57 42.41 369.99 42.6783 370.643 42.935C371.32 43.1683 371.996 43.285 372.673 43.285C373.77 43.285 374.586 43.0633 375.123 42.62C375.683 42.1533 375.963 41.5467 375.963 40.8C375.963 40.03 375.625 39.4117 374.948 38.945C374.271 38.455 373.128 37.86 371.518 37.16L370.538 36.74C368.928 36.0633 367.726 35.2467 366.933 34.29C366.14 33.3333 365.743 32.0967 365.743 30.58C365.743 29.53 366.058 28.5967 366.688 27.78C367.318 26.94 368.205 26.2867 369.348 25.82C370.491 25.3533 371.81 25.12 373.303 25.12C374.4 25.12 375.333 25.19 376.103 25.33C376.896 25.47 377.725 25.6567 378.588 25.89C379.055 26.0533 379.405 26.1467 379.638 26.17V30.755H376.873L376.068 28.095C375.928 27.8617 375.613 27.6517 375.123 27.465C374.633 27.2783 374.073 27.185 373.443 27.185C372.486 27.185 371.716 27.395 371.133 27.815C370.573 28.2117 370.293 28.7717 370.293 29.495C370.293 30.1483 370.491 30.6967 370.888 31.14C371.285 31.56 371.716 31.8867 372.183 32.12C372.65 32.3533 373.513 32.7383 374.773 33.275C376.033 33.8117 377.071 34.325 377.888 34.815C378.728 35.305 379.416 35.9467 379.953 36.74C380.513 37.51 380.793 38.455 380.793 39.575C380.793 41.3017 380.116 42.7017 378.763 43.775C377.41 44.8483 375.461 45.385 372.918 45.385C371.728 45.385 370.655 45.28 369.698 45.07C368.765 44.86 367.68 44.58 366.443 44.23L365.673 43.985V39.365H368.578L369.383 42.13ZM383.192 35.375C383.192 33.3683 383.589 31.5833 384.382 30.02C385.199 28.4567 386.354 27.2433 387.847 26.38C389.364 25.4933 391.126 25.05 393.132 25.05C394.066 25.05 394.871 25.12 395.547 25.26C396.224 25.4 396.982 25.5867 397.822 25.82L398.837 26.1L398.627 32.085H395.582L394.707 28.235C394.567 27.6283 393.879 27.325 392.642 27.325C391.336 27.325 390.309 27.8967 389.562 29.04C388.839 30.1833 388.466 31.9683 388.442 34.395C388.442 36.9617 388.886 38.9333 389.772 40.31C390.659 41.6633 391.837 42.34 393.307 42.34C395.081 42.34 396.714 41.8617 398.207 40.905L399.012 42.725C398.406 43.3783 397.472 43.985 396.212 44.545C394.976 45.105 393.634 45.385 392.187 45.385C389.201 45.385 386.949 44.4633 385.432 42.62C383.939 40.7767 383.192 38.3617 383.192 35.375ZM403.442 19.415L400.782 18.96V17.07L407.292 16.3H407.397L408.307 16.965L408.342 24.77L408.097 27.815C408.82 27.1617 409.8 26.555 411.037 25.995C412.297 25.435 413.615 25.155 414.992 25.155C416.462 25.155 417.605 25.435 418.422 25.995C419.238 26.5317 419.81 27.36 420.137 28.48C420.463 29.6 420.627 31.0933 420.627 32.96V42.585L422.867 42.9V45H413.662V42.9L415.692 42.585V32.96C415.692 31.7467 415.61 30.8017 415.447 30.125C415.283 29.4483 414.98 28.9467 414.537 28.62C414.117 28.2933 413.487 28.13 412.647 28.13C411.923 28.13 411.177 28.305 410.407 28.655C409.66 28.9817 408.995 29.3783 408.412 29.845V42.585L410.547 42.9V45H401.482V42.9L403.442 42.62V19.415ZM424.859 39.54C424.859 37.4167 425.921 35.8183 428.044 34.745C430.191 33.6717 432.956 33.1233 436.339 33.1V32.295C436.339 31.3383 436.234 30.5917 436.024 30.055C435.837 29.5183 435.476 29.1217 434.939 28.865C434.426 28.585 433.667 28.445 432.664 28.445C431.521 28.445 430.494 28.5967 429.584 28.9C428.674 29.18 427.729 29.5533 426.749 30.02L425.664 27.78C426.014 27.4767 426.597 27.115 427.414 26.695C428.254 26.275 429.246 25.9133 430.389 25.61C431.532 25.2833 432.711 25.12 433.924 25.12C435.721 25.12 437.121 25.3533 438.124 25.82C439.151 26.2867 439.886 27.0333 440.329 28.06C440.772 29.0867 440.994 30.4633 440.994 32.19V42.9H442.884V44.86C442.417 44.9767 441.752 45.0933 440.889 45.21C440.026 45.3267 439.267 45.385 438.614 45.385C437.821 45.385 437.284 45.2683 437.004 45.035C436.747 44.8017 436.619 44.3233 436.619 43.6V42.655C435.989 43.355 435.172 43.985 434.169 44.545C433.166 45.105 432.034 45.385 430.774 45.385C429.701 45.385 428.709 45.1633 427.799 44.72C426.912 44.2533 426.201 43.5883 425.664 42.725C425.127 41.8383 424.859 40.7767 424.859 39.54ZM433.014 42.48C433.504 42.48 434.064 42.34 434.694 42.06C435.324 41.7567 435.872 41.395 436.339 40.975V35.235C434.239 35.235 432.664 35.5967 431.614 36.32C430.587 37.02 430.074 37.93 430.074 39.05C430.074 40.17 430.331 41.0217 430.844 41.605C431.381 42.1883 432.104 42.48 433.014 42.48ZM445.068 42.935L447.378 42.655V28.865L445.138 28.235V25.82L450.563 25.085H450.668L451.543 25.785V26.555L451.438 29.39H451.543C451.706 28.9233 452.091 28.3517 452.698 27.675C453.305 26.975 454.063 26.3683 454.973 25.855C455.906 25.3183 456.91 25.05 457.983 25.05C458.496 25.05 458.94 25.12 459.313 25.26V30.51C458.613 30.02 457.761 29.775 456.758 29.775C455.055 29.775 453.573 30.23 452.313 31.14V42.62L456.373 42.935V45H445.068V42.935ZM470.013 54.45C466.886 54.45 464.623 53.96 463.223 52.98C461.823 52 461.123 50.67 461.123 48.99C461.123 48.0333 461.438 47.1233 462.068 46.26C462.721 45.42 463.503 44.79 464.413 44.37C463.339 43.74 462.803 42.7367 462.803 41.36C462.803 40.5667 463.059 39.82 463.573 39.12C464.086 38.3967 464.751 37.8367 465.568 37.44C464.284 36.95 463.328 36.2033 462.698 35.2C462.068 34.1967 461.753 33.0067 461.753 31.63C461.753 30.3 462.138 29.145 462.908 28.165C463.701 27.1617 464.751 26.3917 466.058 25.855C467.388 25.3183 468.823 25.05 470.363 25.05C473.093 25.05 475.123 25.575 476.453 26.625C476.756 26.2283 477.269 25.855 477.993 25.505C478.716 25.155 479.463 24.98 480.233 24.98H481.458V28.795H477.853C478.203 29.5417 478.378 30.335 478.378 31.175C478.401 33.2983 477.654 35.0017 476.138 36.285C474.621 37.545 472.544 38.175 469.908 38.175C468.811 38.175 467.889 38.0933 467.143 37.93C466.909 38.2333 466.723 38.56 466.583 38.91C466.466 39.2367 466.408 39.5283 466.408 39.785C466.408 40.555 466.676 41.08 467.213 41.36C467.773 41.64 468.764 41.78 470.188 41.78H473.933C478.693 41.78 481.073 43.5067 481.073 46.96C481.073 48.4067 480.559 49.7017 479.533 50.845C478.506 51.9883 477.141 52.875 475.438 53.505C473.734 54.135 471.926 54.45 470.013 54.45ZM470.258 36.005C472.428 36.005 473.513 34.5233 473.513 31.56C473.513 30.0433 473.233 28.935 472.673 28.235C472.136 27.5117 471.308 27.15 470.188 27.15C469.091 27.15 468.239 27.5117 467.633 28.235C467.049 28.935 466.758 29.9967 466.758 31.42C466.758 34.4767 467.924 36.005 470.258 36.005ZM470.538 52.035C472.008 52.035 473.279 51.6733 474.353 50.95C475.426 50.25 475.963 49.27 475.963 48.01C475.963 47.0067 475.694 46.2833 475.158 45.84C474.644 45.3967 473.711 45.175 472.358 45.175H468.543C467.959 45.175 467.423 45.14 466.933 45.07C466.303 45.91 465.988 46.9133 465.988 48.08C465.988 49.3633 466.338 50.3433 467.038 51.02C467.738 51.6967 468.904 52.035 470.538 52.035ZM492.135 45.385C489.055 45.385 486.757 44.4867 485.24 42.69C483.747 40.87 483 38.3967 483 35.27C483 33.17 483.385 31.35 484.155 29.81C484.949 28.27 486.057 27.0917 487.48 26.275C488.904 25.4583 490.549 25.05 492.415 25.05C494.749 25.05 496.545 25.6683 497.805 26.905C499.065 28.1183 499.719 29.8567 499.765 32.12C499.765 33.66 499.672 34.8033 499.485 35.55H488.11C488.204 37.6733 488.705 39.33 489.615 40.52C490.525 41.6867 491.82 42.27 493.5 42.27C494.41 42.27 495.344 42.1183 496.3 41.815C497.28 41.5117 498.05 41.15 498.61 40.73L499.485 42.655C498.855 43.3317 497.829 43.9617 496.405 44.545C495.005 45.105 493.582 45.385 492.135 45.385ZM494.865 33.45C494.912 32.7967 494.935 32.295 494.935 31.945C494.935 28.8417 493.897 27.29 491.82 27.29C490.677 27.29 489.79 27.745 489.16 28.655C488.53 29.565 488.18 31.1633 488.11 33.45H494.865ZM192.165 65.62L189.47 65.165V62.995H200.67V65.165L197.31 65.62V86.515L204.8 86.2L207.005 79.655L209.84 80.04L208.755 89H189.4V86.9L192.165 86.55V65.62ZM216.059 66.355C215.219 66.355 214.554 66.11 214.064 65.62C213.574 65.13 213.329 64.5 213.329 63.73C213.329 62.8433 213.609 62.1083 214.169 61.525C214.729 60.9417 215.476 60.65 216.409 60.65C217.343 60.65 218.054 60.9067 218.544 61.42C219.034 61.91 219.279 62.5283 219.279 63.275C219.279 64.2083 218.999 64.955 218.439 65.515C217.879 66.075 217.098 66.355 216.094 66.355H216.059ZM214.204 72.865L211.719 72.2V69.855L218.124 69.085H218.194L219.174 69.785V86.62L221.519 86.9V89H211.754V86.9L214.204 86.585V72.865ZM224.028 86.9L225.988 86.585V72.865L223.748 72.235V69.82L229.558 69.085L229.978 69.365L230.503 70.52V71.99C231.273 71.2433 232.37 70.59 233.793 70.03C235.24 69.4467 236.488 69.155 237.538 69.155C238.798 69.155 239.813 69.365 240.583 69.785C241.376 70.205 241.971 70.8583 242.368 71.745C243.138 71.045 244.153 70.4383 245.413 69.925C246.673 69.4117 247.91 69.155 249.123 69.155C251.2 69.155 252.67 69.7617 253.533 70.975C254.396 72.1883 254.828 74.1717 254.828 76.925V86.585L257.103 86.9V89H248.038V86.9L249.858 86.585V77.065C249.858 75.245 249.636 73.9733 249.193 73.25C248.773 72.5033 247.956 72.13 246.743 72.13C246.09 72.13 245.413 72.2817 244.713 72.585C244.036 72.865 243.43 73.215 242.893 73.635C243.056 74.5217 243.138 75.63 243.138 76.96V86.585L245.308 86.9V89H236.173V86.9L238.098 86.585V76.96C238.098 75.7467 238.016 74.8017 237.853 74.125C237.713 73.425 237.433 72.9233 237.013 72.62C236.593 72.2933 235.986 72.13 235.193 72.13C234.446 72.13 233.7 72.305 232.953 72.655C232.23 72.9817 231.576 73.3783 230.993 73.845V86.585L233.058 86.9V89H224.028V86.9ZM263.637 66.355C262.797 66.355 262.132 66.11 261.642 65.62C261.152 65.13 260.907 64.5 260.907 63.73C260.907 62.8433 261.187 62.1083 261.747 61.525C262.307 60.9417 263.054 60.65 263.987 60.65C264.921 60.65 265.632 60.9067 266.122 61.42C266.612 61.91 266.857 62.5283 266.857 63.275C266.857 64.2083 266.577 64.955 266.017 65.515C265.457 66.075 264.676 66.355 263.672 66.355H263.637ZM261.782 72.865L259.297 72.2V69.855L265.702 69.085H265.772L266.752 69.785V86.62L269.097 86.9V89H259.332V86.9L261.782 86.585V72.865ZM277.486 89.315C276.016 89.315 274.931 88.9767 274.231 88.3C273.531 87.6233 273.181 86.55 273.181 85.08V72.235H270.906V70.415C271.093 70.345 271.431 70.2283 271.921 70.065C272.411 69.8783 272.785 69.7267 273.041 69.61C273.438 69.3067 273.776 68.7817 274.056 68.035C274.266 67.545 274.651 66.3317 275.211 64.395H278.011L278.151 69.54H283.506V72.235H278.186V82.07C278.186 83.3767 278.221 84.2983 278.291 84.835C278.361 85.3717 278.513 85.7217 278.746 85.885C278.98 86.025 279.388 86.095 279.971 86.095C280.555 86.095 281.161 86.0367 281.791 85.92C282.421 85.78 282.946 85.6167 283.366 85.43L284.031 87.39C283.378 87.88 282.421 88.3233 281.161 88.72C279.901 89.1167 278.676 89.315 277.486 89.315ZM293.989 86.9L296.754 86.55V65.62L294.129 65.13V62.995H299.204C299.647 62.995 300.137 62.9833 300.674 62.96C301.211 62.9367 301.619 62.9133 301.899 62.89C303.112 62.7967 304.116 62.75 304.909 62.75C307.312 62.75 309.237 62.995 310.684 63.485C312.131 63.975 313.181 64.7217 313.834 65.725C314.487 66.7283 314.814 68.0467 314.814 69.68C314.814 71.29 314.382 72.7833 313.519 74.16C312.656 75.5367 311.407 76.4817 309.774 76.995C310.707 77.3917 311.536 78.115 312.259 79.165C312.982 80.215 313.752 81.58 314.569 83.26C315.152 84.4033 315.596 85.2317 315.899 85.745C316.226 86.235 316.541 86.515 316.844 86.585L317.999 86.935V89H312.049C311.676 89 311.279 88.6267 310.859 87.88C310.462 87.11 309.937 85.9083 309.284 84.275C308.514 82.3617 307.849 80.8683 307.289 79.795C306.729 78.7217 306.134 78.0567 305.504 77.8H301.899V86.55L305.119 86.9V89H293.989V86.9ZM305.119 75.665C306.449 75.665 307.487 75.1867 308.234 74.23C308.981 73.2733 309.354 71.8383 309.354 69.925C309.354 68.2217 308.981 66.9617 308.234 66.145C307.511 65.3283 306.251 64.92 304.454 64.92C303.801 64.92 303.241 64.955 302.774 65.025C302.331 65.0717 302.039 65.095 301.899 65.095V75.595C302.179 75.6417 302.856 75.665 303.929 75.665H305.119ZM328.244 89.385C325.164 89.385 322.865 88.4867 321.349 86.69C319.855 84.87 319.109 82.3967 319.109 79.27C319.109 77.17 319.494 75.35 320.264 73.81C321.057 72.27 322.165 71.0917 323.589 70.275C325.012 69.4583 326.657 69.05 328.524 69.05C330.857 69.05 332.654 69.6683 333.914 70.905C335.174 72.1183 335.827 73.8567 335.874 76.12C335.874 77.66 335.78 78.8033 335.594 79.55H324.219C324.312 81.6733 324.814 83.33 325.724 84.52C326.634 85.6867 327.929 86.27 329.609 86.27C330.519 86.27 331.452 86.1183 332.409 85.815C333.389 85.5117 334.159 85.15 334.719 84.73L335.594 86.655C334.964 87.3317 333.937 87.9617 332.514 88.545C331.114 89.105 329.69 89.385 328.244 89.385ZM330.974 77.45C331.02 76.7967 331.044 76.295 331.044 75.945C331.044 72.8417 330.005 71.29 327.929 71.29C326.785 71.29 325.899 71.745 325.269 72.655C324.639 73.565 324.289 75.1633 324.219 77.45H330.974ZM338.282 83.54C338.282 81.4167 339.343 79.8183 341.467 78.745C343.613 77.6717 346.378 77.1233 349.762 77.1V76.295C349.762 75.3383 349.657 74.5917 349.447 74.055C349.26 73.5183 348.898 73.1217 348.362 72.865C347.848 72.585 347.09 72.445 346.087 72.445C344.943 72.445 343.917 72.5967 343.007 72.9C342.097 73.18 341.152 73.5533 340.172 74.02L339.087 71.78C339.437 71.4767 340.02 71.115 340.837 70.695C341.677 70.275 342.668 69.9133 343.812 69.61C344.955 69.2833 346.133 69.12 347.347 69.12C349.143 69.12 350.543 69.3533 351.547 69.82C352.573 70.2867 353.308 71.0333 353.752 72.06C354.195 73.0867 354.417 74.4633 354.417 76.19V86.9H356.307V88.86C355.84 88.9767 355.175 89.0933 354.312 89.21C353.448 89.3267 352.69 89.385 352.037 89.385C351.243 89.385 350.707 89.2683 350.427 89.035C350.17 88.8017 350.042 88.3233 350.042 87.6V86.655C349.412 87.355 348.595 87.985 347.592 88.545C346.588 89.105 345.457 89.385 344.197 89.385C343.123 89.385 342.132 89.1633 341.222 88.72C340.335 88.2533 339.623 87.5883 339.087 86.725C338.55 85.8383 338.282 84.7767 338.282 83.54ZM346.437 86.48C346.927 86.48 347.487 86.34 348.117 86.06C348.747 85.7567 349.295 85.395 349.762 84.975V79.235C347.662 79.235 346.087 79.5967 345.037 80.32C344.01 81.02 343.497 81.93 343.497 83.05C343.497 84.17 343.753 85.0217 344.267 85.605C344.803 86.1883 345.527 86.48 346.437 86.48ZM358.036 79.375C358.036 77.3683 358.433 75.5833 359.226 74.02C360.043 72.4567 361.198 71.2433 362.691 70.38C364.208 69.4933 365.969 69.05 367.976 69.05C368.909 69.05 369.714 69.12 370.391 69.26C371.068 69.4 371.826 69.5867 372.666 69.82L373.681 70.1L373.471 76.085H370.426L369.551 72.235C369.411 71.6283 368.723 71.325 367.486 71.325C366.179 71.325 365.153 71.8967 364.406 73.04C363.683 74.1833 363.309 75.9683 363.286 78.395C363.286 80.9617 363.729 82.9333 364.616 84.31C365.503 85.6633 366.681 86.34 368.151 86.34C369.924 86.34 371.558 85.8617 373.051 84.905L373.856 86.725C373.249 87.3783 372.316 87.985 371.056 88.545C369.819 89.105 368.478 89.385 367.031 89.385C364.044 89.385 361.793 88.4633 360.276 86.62C358.783 84.7767 358.036 82.3617 358.036 79.375ZM378.285 63.415L375.625 62.96V61.07L382.135 60.3H382.24L383.15 60.965L383.185 68.77L382.94 71.815C383.664 71.1617 384.644 70.555 385.88 69.995C387.14 69.435 388.459 69.155 389.835 69.155C391.305 69.155 392.449 69.435 393.265 69.995C394.082 70.5317 394.654 71.36 394.98 72.48C395.307 73.6 395.47 75.0933 395.47 76.96V86.585L397.71 86.9V89H388.505V86.9L390.535 86.585V76.96C390.535 75.7467 390.454 74.8017 390.29 74.125C390.127 73.4483 389.824 72.9467 389.38 72.62C388.96 72.2933 388.33 72.13 387.49 72.13C386.767 72.13 386.02 72.305 385.25 72.655C384.504 72.9817 383.839 73.3783 383.255 73.845V86.585L385.39 86.9V89H376.325V86.9L378.285 86.62V63.415ZM408.908 89.385C405.828 89.385 403.529 88.4867 402.013 86.69C400.519 84.87 399.773 82.3967 399.773 79.27C399.773 77.17 400.158 75.35 400.928 73.81C401.721 72.27 402.829 71.0917 404.253 70.275C405.676 69.4583 407.321 69.05 409.188 69.05C411.521 69.05 413.318 69.6683 414.578 70.905C415.838 72.1183 416.491 73.8567 416.538 76.12C416.538 77.66 416.444 78.8033 416.258 79.55H404.883C404.976 81.6733 405.478 83.33 406.388 84.52C407.298 85.6867 408.593 86.27 410.273 86.27C411.183 86.27 412.116 86.1183 413.073 85.815C414.053 85.5117 414.823 85.15 415.383 84.73L416.258 86.655C415.628 87.3317 414.601 87.9617 413.178 88.545C411.778 89.105 410.354 89.385 408.908 89.385ZM411.638 77.45C411.684 76.7967 411.708 76.295 411.708 75.945C411.708 72.8417 410.669 71.29 408.593 71.29C407.449 71.29 406.563 71.745 405.933 72.655C405.303 73.565 404.953 75.1633 404.883 77.45H411.638ZM426.646 89.385C425.199 89.385 423.904 89.0467 422.761 88.37C421.618 87.67 420.708 86.5967 420.031 85.15C419.354 83.7033 419.016 81.895 419.016 79.725C419.016 77.765 419.413 75.98 420.206 74.37C421.023 72.7367 422.213 71.4417 423.776 70.485C425.339 69.5283 427.218 69.05 429.411 69.05C430.298 69.05 431.138 69.1433 431.931 69.33V63.415L428.501 62.925V61L435.711 60.3H435.816L436.796 61.035V86.865H438.686V88.86C437.006 89.21 435.618 89.385 434.521 89.385C433.774 89.385 433.238 89.2567 432.911 89C432.608 88.7667 432.456 88.2883 432.456 87.565V86.585C431.849 87.4017 431.021 88.0783 429.971 88.615C428.921 89.1283 427.813 89.385 426.646 89.385ZM428.466 86.48C429.236 86.48 429.913 86.3283 430.496 86.025C431.103 85.6983 431.581 85.3133 431.931 84.87V72.13C431.768 71.8967 431.418 71.6983 430.881 71.535C430.368 71.3717 429.808 71.29 429.201 71.29C427.708 71.29 426.506 71.9433 425.596 73.25C424.709 74.5333 424.266 76.5983 424.266 79.445C424.266 81.825 424.651 83.5983 425.421 84.765C426.191 85.9083 427.206 86.48 428.466 86.48ZM444.53 89.315C443.807 89.315 443.177 89.07 442.64 88.58C442.103 88.0667 441.835 87.425 441.835 86.655C441.835 85.7917 442.138 85.0917 442.745 84.555C443.375 83.995 444.133 83.715 445.02 83.715C445.86 83.715 446.525 83.9833 447.015 84.52C447.505 85.0333 447.75 85.6517 447.75 86.375C447.75 87.285 447.447 88.0083 446.84 88.545C446.257 89.0583 445.487 89.315 444.53 89.315ZM462.39 65.62L459.695 65.165V62.995H470.895V65.165L467.535 65.62V86.515L475.025 86.2L477.23 79.655L480.065 80.04L478.98 89H459.625V86.9L462.39 86.55V65.62ZM482.119 79.305C482.119 77.1117 482.551 75.245 483.414 73.705C484.301 72.165 485.479 71.01 486.949 70.24C488.419 69.4467 490.017 69.05 491.744 69.05C494.684 69.05 496.947 69.96 498.534 71.78C500.144 73.5767 500.949 76.0267 500.949 79.13C500.949 81.3467 500.506 83.2367 499.619 84.8C498.756 86.34 497.589 87.495 496.119 88.265C494.672 89.0117 493.074 89.385 491.324 89.385C488.407 89.385 486.144 88.4867 484.534 86.69C482.924 84.87 482.119 82.4083 482.119 79.305ZM491.604 87.11C494.241 87.11 495.559 84.5667 495.559 79.48C495.559 76.82 495.244 74.8017 494.614 73.425C493.984 72.025 492.957 71.325 491.534 71.325C488.827 71.325 487.474 73.8683 487.474 78.955C487.474 81.615 487.801 83.645 488.454 85.045C489.131 86.4217 490.181 87.11 491.604 87.11ZM503.746 83.54C503.746 81.4167 504.807 79.8183 506.931 78.745C509.077 77.6717 511.842 77.1233 515.226 77.1V76.295C515.226 75.3383 515.121 74.5917 514.911 74.055C514.724 73.5183 514.362 73.1217 513.826 72.865C513.312 72.585 512.554 72.445 511.551 72.445C510.407 72.445 509.381 72.5967 508.471 72.9C507.561 73.18 506.616 73.5533 505.636 74.02L504.551 71.78C504.901 71.4767 505.484 71.115 506.301 70.695C507.141 70.275 508.132 69.9133 509.276 69.61C510.419 69.2833 511.597 69.12 512.811 69.12C514.607 69.12 516.007 69.3533 517.011 69.82C518.037 70.2867 518.772 71.0333 519.216 72.06C519.659 73.0867 519.881 74.4633 519.881 76.19V86.9H521.771V88.86C521.304 88.9767 520.639 89.0933 519.776 89.21C518.912 89.3267 518.154 89.385 517.501 89.385C516.707 89.385 516.171 89.2683 515.891 89.035C515.634 88.8017 515.506 88.3233 515.506 87.6V86.655C514.876 87.355 514.059 87.985 513.056 88.545C512.052 89.105 510.921 89.385 509.661 89.385C508.587 89.385 507.596 89.1633 506.686 88.72C505.799 88.2533 505.087 87.5883 504.551 86.725C504.014 85.8383 503.746 84.7767 503.746 83.54ZM511.901 86.48C512.391 86.48 512.951 86.34 513.581 86.06C514.211 85.7567 514.759 85.395 515.226 84.975V79.235C513.126 79.235 511.551 79.5967 510.501 80.32C509.474 81.02 508.961 81.93 508.961 83.05C508.961 84.17 509.217 85.0217 509.731 85.605C510.267 86.1883 510.991 86.48 511.901 86.48ZM531.27 89.385C529.823 89.385 528.528 89.0467 527.385 88.37C526.242 87.67 525.332 86.5967 524.655 85.15C523.978 83.7033 523.64 81.895 523.64 79.725C523.64 77.765 524.037 75.98 524.83 74.37C525.647 72.7367 526.837 71.4417 528.4 70.485C529.963 69.5283 531.842 69.05 534.035 69.05C534.922 69.05 535.762 69.1433 536.555 69.33V63.415L533.125 62.925V61L540.335 60.3H540.44L541.42 61.035V86.865H543.31V88.86C541.63 89.21 540.242 89.385 539.145 89.385C538.398 89.385 537.862 89.2567 537.535 89C537.232 88.7667 537.08 88.2883 537.08 87.565V86.585C536.473 87.4017 535.645 88.0783 534.595 88.615C533.545 89.1283 532.437 89.385 531.27 89.385ZM533.09 86.48C533.86 86.48 534.537 86.3283 535.12 86.025C535.727 85.6983 536.205 85.3133 536.555 84.87V72.13C536.392 71.8967 536.042 71.6983 535.505 71.535C534.992 71.3717 534.432 71.29 533.825 71.29C532.332 71.29 531.13 71.9433 530.22 73.25C529.333 74.5333 528.89 76.5983 528.89 79.445C528.89 81.825 529.275 83.5983 530.045 84.765C530.815 85.9083 531.83 86.48 533.09 86.48ZM558.335 66.355C557.495 66.355 556.83 66.11 556.34 65.62C555.85 65.13 555.605 64.5 555.605 63.73C555.605 62.8433 555.885 62.1083 556.445 61.525C557.005 60.9417 557.751 60.65 558.685 60.65C559.618 60.65 560.33 60.9067 560.82 61.42C561.31 61.91 561.555 62.5283 561.555 63.275C561.555 64.2083 561.275 64.955 560.715 65.515C560.155 66.075 559.373 66.355 558.37 66.355H558.335ZM556.48 72.865L553.995 72.2V69.855L560.4 69.085H560.47L561.45 69.785V86.62L563.795 86.9V89H554.03V86.9L556.48 86.585V72.865ZM570.189 86.13C570.375 86.41 570.795 86.6783 571.449 86.935C572.125 87.1683 572.802 87.285 573.479 87.285C574.575 87.285 575.392 87.0633 575.929 86.62C576.489 86.1533 576.769 85.5467 576.769 84.8C576.769 84.03 576.43 83.4117 575.754 82.945C575.077 82.455 573.934 81.86 572.324 81.16L571.344 80.74C569.734 80.0633 568.532 79.2467 567.739 78.29C566.945 77.3333 566.549 76.0967 566.549 74.58C566.549 73.53 566.864 72.5967 567.494 71.78C568.124 70.94 569.01 70.2867 570.154 69.82C571.297 69.3533 572.615 69.12 574.109 69.12C575.205 69.12 576.139 69.19 576.909 69.33C577.702 69.47 578.53 69.6567 579.394 69.89C579.86 70.0533 580.21 70.1467 580.444 70.17V74.755H577.679L576.874 72.095C576.734 71.8617 576.419 71.6517 575.929 71.465C575.439 71.2783 574.879 71.185 574.249 71.185C573.292 71.185 572.522 71.395 571.939 71.815C571.379 72.2117 571.099 72.7717 571.099 73.495C571.099 74.1483 571.297 74.6967 571.694 75.14C572.09 75.56 572.522 75.8867 572.989 76.12C573.455 76.3533 574.319 76.7383 575.579 77.275C576.839 77.8117 577.877 78.325 578.694 78.815C579.534 79.305 580.222 79.9467 580.759 80.74C581.319 81.51 581.599 82.455 581.599 83.575C581.599 85.3017 580.922 86.7017 579.569 87.775C578.215 88.8483 576.267 89.385 573.724 89.385C572.534 89.385 571.46 89.28 570.504 89.07C569.57 88.86 568.485 88.58 567.249 88.23L566.479 87.985V83.365H569.384L570.189 86.13ZM192.13 109.62L189.505 109.165V106.995H194.615C195.385 106.995 196.423 106.948 197.73 106.855C198.033 106.832 198.488 106.808 199.095 106.785C199.725 106.762 200.285 106.75 200.775 106.75C205.068 106.75 208.277 107.823 210.4 109.97C212.547 112.117 213.62 115.162 213.62 119.105C213.62 121.858 213.083 124.308 212.01 126.455C210.96 128.602 209.455 130.282 207.495 131.495C205.535 132.685 203.248 133.28 200.635 133.28C199.958 133.28 198.897 133.233 197.45 133.14C196.097 133.047 195.175 133 194.685 133H189.365V130.9L192.13 130.55V109.62ZM197.205 130.655C197.998 130.865 199.107 130.97 200.53 130.97C202.863 130.923 204.695 129.99 206.025 128.17C207.355 126.327 208.02 123.573 208.02 119.91C208.02 116.433 207.367 113.75 206.06 111.86C204.753 109.947 202.723 108.99 199.97 108.99C199.387 108.99 198.827 109.025 198.29 109.095C197.777 109.165 197.415 109.212 197.205 109.235V130.655ZM220.366 110.355C219.526 110.355 218.861 110.11 218.371 109.62C217.881 109.13 217.636 108.5 217.636 107.73C217.636 106.843 217.916 106.108 218.476 105.525C219.036 104.942 219.783 104.65 220.716 104.65C221.649 104.65 222.361 104.907 222.851 105.42C223.341 105.91 223.586 106.528 223.586 107.275C223.586 108.208 223.306 108.955 222.746 109.515C222.186 110.075 221.404 110.355 220.401 110.355H220.366ZM218.511 116.865L216.026 116.2V113.855L222.431 113.085H222.501L223.481 113.785V130.62L225.826 130.9V133H216.061V130.9L218.511 130.585V116.865ZM232.22 130.13C232.406 130.41 232.826 130.678 233.48 130.935C234.156 131.168 234.833 131.285 235.51 131.285C236.606 131.285 237.423 131.063 237.96 130.62C238.52 130.153 238.8 129.547 238.8 128.8C238.8 128.03 238.461 127.412 237.785 126.945C237.108 126.455 235.965 125.86 234.355 125.16L233.375 124.74C231.765 124.063 230.563 123.247 229.77 122.29C228.976 121.333 228.58 120.097 228.58 118.58C228.58 117.53 228.895 116.597 229.525 115.78C230.155 114.94 231.041 114.287 232.185 113.82C233.328 113.353 234.646 113.12 236.14 113.12C237.236 113.12 238.17 113.19 238.94 113.33C239.733 113.47 240.561 113.657 241.425 113.89C241.891 114.053 242.241 114.147 242.475 114.17V118.755H239.71L238.905 116.095C238.765 115.862 238.45 115.652 237.96 115.465C237.47 115.278 236.91 115.185 236.28 115.185C235.323 115.185 234.553 115.395 233.97 115.815C233.41 116.212 233.13 116.772 233.13 117.495C233.13 118.148 233.328 118.697 233.725 119.14C234.121 119.56 234.553 119.887 235.02 120.12C235.486 120.353 236.35 120.738 237.61 121.275C238.87 121.812 239.908 122.325 240.725 122.815C241.565 123.305 242.253 123.947 242.79 124.74C243.35 125.51 243.63 126.455 243.63 127.575C243.63 129.302 242.953 130.702 241.6 131.775C240.246 132.848 238.298 133.385 235.755 133.385C234.565 133.385 233.491 133.28 232.535 133.07C231.601 132.86 230.516 132.58 229.28 132.23L228.51 131.985V127.365H231.415L232.22 130.13ZM246.029 123.375C246.029 121.368 246.426 119.583 247.219 118.02C248.036 116.457 249.191 115.243 250.684 114.38C252.201 113.493 253.963 113.05 255.969 113.05C256.903 113.05 257.708 113.12 258.384 113.26C259.061 113.4 259.819 113.587 260.659 113.82L261.674 114.1L261.464 120.085H258.419L257.544 116.235C257.404 115.628 256.716 115.325 255.479 115.325C254.173 115.325 253.146 115.897 252.399 117.04C251.676 118.183 251.303 119.968 251.279 122.395C251.279 124.962 251.723 126.933 252.609 128.31C253.496 129.663 254.674 130.34 256.144 130.34C257.918 130.34 259.551 129.862 261.044 128.905L261.849 130.725C261.243 131.378 260.309 131.985 259.049 132.545C257.813 133.105 256.471 133.385 255.024 133.385C252.038 133.385 249.786 132.463 248.269 130.62C246.776 128.777 246.029 126.362 246.029 123.375ZM264.634 123.305C264.634 121.112 265.065 119.245 265.929 117.705C266.815 116.165 267.994 115.01 269.464 114.24C270.934 113.447 272.532 113.05 274.259 113.05C277.199 113.05 279.462 113.96 281.049 115.78C282.659 117.577 283.464 120.027 283.464 123.13C283.464 125.347 283.02 127.237 282.134 128.8C281.27 130.34 280.104 131.495 278.634 132.265C277.187 133.012 275.589 133.385 273.839 133.385C270.922 133.385 268.659 132.487 267.049 130.69C265.439 128.87 264.634 126.408 264.634 123.305ZM274.119 131.11C276.755 131.11 278.074 128.567 278.074 123.48C278.074 120.82 277.759 118.802 277.129 117.425C276.499 116.025 275.472 115.325 274.049 115.325C271.342 115.325 269.989 117.868 269.989 122.955C269.989 125.615 270.315 127.645 270.969 129.045C271.645 130.422 272.695 131.11 274.119 131.11ZM288.605 116.865L286.365 116.235V113.82L292.175 113.085H292.28L293.155 113.785V115.15L293.12 115.99C293.937 115.22 294.999 114.555 296.305 113.995C297.612 113.435 298.93 113.155 300.26 113.155C301.684 113.155 302.792 113.423 303.585 113.96C304.402 114.473 304.985 115.29 305.335 116.41C305.685 117.53 305.86 119.047 305.86 120.96V130.62L307.995 130.9V133H298.965V130.9L300.855 130.62V120.96C300.855 119.747 300.774 118.802 300.61 118.125C300.447 117.425 300.144 116.923 299.7 116.62C299.28 116.293 298.674 116.13 297.88 116.13C296.55 116.13 295.127 116.702 293.61 117.845V130.585L295.71 130.9V133H286.575V130.9L288.605 130.585V116.865ZM312.429 116.865L310.189 116.235V113.82L315.999 113.085H316.104L316.979 113.785V115.15L316.944 115.99C317.76 115.22 318.822 114.555 320.129 113.995C321.435 113.435 322.754 113.155 324.084 113.155C325.507 113.155 326.615 113.423 327.409 113.96C328.225 114.473 328.809 115.29 329.159 116.41C329.509 117.53 329.684 119.047 329.684 120.96V130.62L331.819 130.9V133H322.789V130.9L324.679 130.62V120.96C324.679 119.747 324.597 118.802 324.434 118.125C324.27 117.425 323.967 116.923 323.524 116.62C323.104 116.293 322.497 116.13 321.704 116.13C320.374 116.13 318.95 116.702 317.434 117.845V130.585L319.534 130.9V133H310.399V130.9L312.429 130.585V116.865ZM343.112 133.385C340.032 133.385 337.733 132.487 336.217 130.69C334.723 128.87 333.977 126.397 333.977 123.27C333.977 121.17 334.362 119.35 335.132 117.81C335.925 116.27 337.033 115.092 338.457 114.275C339.88 113.458 341.525 113.05 343.392 113.05C345.725 113.05 347.522 113.668 348.782 114.905C350.042 116.118 350.695 117.857 350.742 120.12C350.742 121.66 350.648 122.803 350.462 123.55H339.087C339.18 125.673 339.682 127.33 340.592 128.52C341.502 129.687 342.797 130.27 344.477 130.27C345.387 130.27 346.32 130.118 347.277 129.815C348.257 129.512 349.027 129.15 349.587 128.73L350.462 130.655C349.832 131.332 348.805 131.962 347.382 132.545C345.982 133.105 344.558 133.385 343.112 133.385ZM345.842 121.45C345.888 120.797 345.912 120.295 345.912 119.945C345.912 116.842 344.873 115.29 342.797 115.29C341.653 115.29 340.767 115.745 340.137 116.655C339.507 117.565 339.157 119.163 339.087 121.45H345.842ZM353.08 123.375C353.08 121.368 353.477 119.583 354.27 118.02C355.087 116.457 356.242 115.243 357.735 114.38C359.252 113.493 361.013 113.05 363.02 113.05C363.953 113.05 364.758 113.12 365.435 113.26C366.112 113.4 366.87 113.587 367.71 113.82L368.725 114.1L368.515 120.085H365.47L364.595 116.235C364.455 115.628 363.767 115.325 362.53 115.325C361.223 115.325 360.197 115.897 359.45 117.04C358.727 118.183 358.353 119.968 358.33 122.395C358.33 124.962 358.773 126.933 359.66 128.31C360.547 129.663 361.725 130.34 363.195 130.34C364.968 130.34 366.602 129.862 368.095 128.905L368.9 130.725C368.293 131.378 367.36 131.985 366.1 132.545C364.863 133.105 363.522 133.385 362.075 133.385C359.088 133.385 356.837 132.463 355.32 130.62C353.827 128.777 353.08 126.362 353.08 123.375ZM377.564 133.315C376.094 133.315 375.009 132.977 374.309 132.3C373.609 131.623 373.259 130.55 373.259 129.08V116.235H370.984V114.415C371.171 114.345 371.509 114.228 371.999 114.065C372.489 113.878 372.863 113.727 373.119 113.61C373.516 113.307 373.854 112.782 374.134 112.035C374.344 111.545 374.729 110.332 375.289 108.395H378.089L378.229 113.54H383.584V116.235H378.264V126.07C378.264 127.377 378.299 128.298 378.369 128.835C378.439 129.372 378.591 129.722 378.824 129.885C379.058 130.025 379.466 130.095 380.049 130.095C380.633 130.095 381.239 130.037 381.869 129.92C382.499 129.78 383.024 129.617 383.444 129.43L384.109 131.39C383.456 131.88 382.499 132.323 381.239 132.72C379.979 133.117 378.754 133.315 377.564 133.315ZM394.791 133.385C391.711 133.385 389.413 132.487 387.896 130.69C386.403 128.87 385.656 126.397 385.656 123.27C385.656 121.17 386.041 119.35 386.811 117.81C387.605 116.27 388.713 115.092 390.136 114.275C391.56 113.458 393.205 113.05 395.071 113.05C397.405 113.05 399.201 113.668 400.461 114.905C401.721 116.118 402.375 117.857 402.421 120.12C402.421 121.66 402.328 122.803 402.141 123.55H390.766C390.86 125.673 391.361 127.33 392.271 128.52C393.181 129.687 394.476 130.27 396.156 130.27C397.066 130.27 398 130.118 398.956 129.815C399.936 129.512 400.706 129.15 401.266 128.73L402.141 130.655C401.511 131.332 400.485 131.962 399.061 132.545C397.661 133.105 396.238 133.385 394.791 133.385ZM397.521 121.45C397.568 120.797 397.591 120.295 397.591 119.945C397.591 116.842 396.553 115.29 394.476 115.29C393.333 115.29 392.446 115.745 391.816 116.655C391.186 117.565 390.836 119.163 390.766 121.45H397.521ZM412.53 133.385C411.083 133.385 409.788 133.047 408.645 132.37C407.501 131.67 406.591 130.597 405.915 129.15C405.238 127.703 404.9 125.895 404.9 123.725C404.9 121.765 405.296 119.98 406.09 118.37C406.906 116.737 408.096 115.442 409.66 114.485C411.223 113.528 413.101 113.05 415.295 113.05C416.181 113.05 417.021 113.143 417.815 113.33V107.415L414.385 106.925V105L421.595 104.3H421.7L422.68 105.035V130.865H424.57V132.86C422.89 133.21 421.501 133.385 420.405 133.385C419.658 133.385 419.121 133.257 418.795 133C418.491 132.767 418.34 132.288 418.34 131.565V130.585C417.733 131.402 416.905 132.078 415.855 132.615C414.805 133.128 413.696 133.385 412.53 133.385ZM414.35 130.48C415.12 130.48 415.796 130.328 416.38 130.025C416.986 129.698 417.465 129.313 417.815 128.87V116.13C417.651 115.897 417.301 115.698 416.765 115.535C416.251 115.372 415.691 115.29 415.085 115.29C413.591 115.29 412.39 115.943 411.48 117.25C410.593 118.533 410.15 120.598 410.15 123.445C410.15 125.825 410.535 127.598 411.305 128.765C412.075 129.908 413.09 130.48 414.35 130.48ZM430.414 133.315C429.69 133.315 429.06 133.07 428.524 132.58C427.987 132.067 427.719 131.425 427.719 130.655C427.719 129.792 428.022 129.092 428.629 128.555C429.259 127.995 430.017 127.715 430.904 127.715C431.744 127.715 432.409 127.983 432.899 128.52C433.389 129.033 433.634 129.652 433.634 130.375C433.634 131.285 433.33 132.008 432.724 132.545C432.14 133.058 431.37 133.315 430.414 133.315ZM457.373 133.385C453.407 133.385 450.373 132.207 448.273 129.85C446.173 127.47 445.123 124.227 445.123 120.12C445.123 117.413 445.672 115.057 446.768 113.05C447.888 111.02 449.417 109.457 451.353 108.36C453.29 107.263 455.483 106.715 457.933 106.715C458.96 106.715 459.952 106.785 460.908 106.925C461.865 107.042 462.997 107.205 464.303 107.415C465.283 107.578 465.82 107.66 465.913 107.66L465.528 114.87H462.308L461.223 109.865C460.967 109.608 460.523 109.398 459.893 109.235C459.263 109.072 458.458 108.99 457.478 108.99C455.495 108.99 453.897 109.912 452.683 111.755C451.493 113.575 450.898 116.223 450.898 119.7C450.898 123.06 451.47 125.802 452.613 127.925C453.757 130.048 455.425 131.11 457.618 131.11C458.668 131.11 459.473 131.017 460.033 130.83C460.617 130.62 461.107 130.328 461.503 129.955L463.043 126.35L465.983 126.63L465.283 132.055C464.793 132.102 464.303 132.195 463.813 132.335C463.347 132.452 463.055 132.522 462.938 132.545C462.005 132.802 461.13 133 460.313 133.14C459.52 133.303 458.54 133.385 457.373 133.385ZM470.366 107.415L467.706 106.96V105.07L474.216 104.3H474.321L475.231 104.965L475.266 112.77L475.021 115.815C475.744 115.162 476.724 114.555 477.961 113.995C479.221 113.435 480.539 113.155 481.916 113.155C483.386 113.155 484.529 113.435 485.346 113.995C486.162 114.532 486.734 115.36 487.061 116.48C487.387 117.6 487.551 119.093 487.551 120.96V130.585L489.791 130.9V133H480.586V130.9L482.616 130.585V120.96C482.616 119.747 482.534 118.802 482.371 118.125C482.207 117.448 481.904 116.947 481.461 116.62C481.041 116.293 480.411 116.13 479.571 116.13C478.847 116.13 478.101 116.305 477.331 116.655C476.584 116.982 475.919 117.378 475.336 117.845V130.585L477.471 130.9V133H468.406V130.9L470.366 130.62V107.415ZM500.988 133.385C497.908 133.385 495.609 132.487 494.093 130.69C492.599 128.87 491.853 126.397 491.853 123.27C491.853 121.17 492.238 119.35 493.008 117.81C493.801 116.27 494.909 115.092 496.333 114.275C497.756 113.458 499.401 113.05 501.268 113.05C503.601 113.05 505.398 113.668 506.658 114.905C507.918 116.118 508.571 117.857 508.618 120.12C508.618 121.66 508.524 122.803 508.338 123.55H496.963C497.056 125.673 497.558 127.33 498.468 128.52C499.378 129.687 500.673 130.27 502.353 130.27C503.263 130.27 504.196 130.118 505.153 129.815C506.133 129.512 506.903 129.15 507.463 128.73L508.338 130.655C507.708 131.332 506.681 131.962 505.258 132.545C503.858 133.105 502.434 133.385 500.988 133.385ZM503.718 121.45C503.764 120.797 503.788 120.295 503.788 119.945C503.788 116.842 502.749 115.29 500.673 115.29C499.529 115.29 498.643 115.745 498.013 116.655C497.383 117.565 497.033 119.163 496.963 121.45H503.718ZM510.956 123.375C510.956 121.368 511.353 119.583 512.146 118.02C512.963 116.457 514.118 115.243 515.611 114.38C517.128 113.493 518.889 113.05 520.896 113.05C521.829 113.05 522.634 113.12 523.311 113.26C523.988 113.4 524.746 113.587 525.586 113.82L526.601 114.1L526.391 120.085H523.346L522.471 116.235C522.331 115.628 521.643 115.325 520.406 115.325C519.099 115.325 518.073 115.897 517.326 117.04C516.603 118.183 516.229 119.968 516.206 122.395C516.206 124.962 516.649 126.933 517.536 128.31C518.423 129.663 519.601 130.34 521.071 130.34C522.844 130.34 524.478 129.862 525.971 128.905L526.776 130.725C526.169 131.378 525.236 131.985 523.976 132.545C522.739 133.105 521.398 133.385 519.951 133.385C516.964 133.385 514.713 132.463 513.196 130.62C511.703 128.777 510.956 126.362 510.956 123.375ZM531.17 107.415L528.65 106.96V105.07L535.09 104.3H535.16L536.105 104.965V121.59L536 123.445L543.14 115.955L540.55 115.57V113.575H549.685V115.57L546.85 116.025L542.545 120.155L548.67 130.62L550.595 130.9V133H541.355V130.9L543.14 130.585L539.15 123.2L536 126.385L536.07 128.17V130.585L538.275 130.9V133H529.14V130.9L531.17 130.585V107.415ZM568.698 133.385C567.438 133.385 566.306 133.28 565.303 133.07C564.299 132.86 563.179 132.58 561.943 132.23C561.126 131.997 560.578 131.868 560.298 131.845L560.613 125.37H563.448L564.218 129.885C564.521 130.212 565.058 130.503 565.828 130.76C566.621 131.017 567.519 131.145 568.523 131.145C570.086 131.145 571.253 130.807 572.023 130.13C572.816 129.43 573.213 128.462 573.213 127.225C573.213 126.408 572.979 125.708 572.513 125.125C572.046 124.518 571.404 123.982 570.588 123.515C569.771 123.025 568.651 122.465 567.228 121.835C565.291 120.948 563.681 119.898 562.398 118.685C561.138 117.448 560.508 115.78 560.508 113.68C560.508 112.373 560.846 111.195 561.523 110.145C562.199 109.072 563.203 108.232 564.533 107.625C565.886 106.995 567.531 106.68 569.468 106.68C570.611 106.68 571.614 106.762 572.478 106.925C573.364 107.088 574.321 107.31 575.348 107.59C575.954 107.753 576.409 107.858 576.713 107.905L576.503 114.03H573.703L572.968 109.725C572.758 109.515 572.338 109.317 571.708 109.13C571.078 108.92 570.378 108.815 569.608 108.815C568.208 108.815 567.146 109.142 566.423 109.795C565.723 110.425 565.373 111.277 565.373 112.35C565.373 113.213 565.629 113.96 566.143 114.59C566.679 115.22 567.321 115.757 568.068 116.2C568.814 116.62 569.993 117.227 571.603 118.02C572.909 118.65 574.029 119.268 574.963 119.875C575.896 120.482 576.701 121.275 577.378 122.255C578.054 123.212 578.393 124.343 578.393 125.65C578.393 126.933 578.066 128.158 577.413 129.325C576.783 130.492 575.733 131.46 574.263 132.23C572.816 133 570.961 133.385 568.698 133.385ZM584.082 141.715C583.662 141.715 583.207 141.68 582.717 141.61C582.25 141.54 581.912 141.458 581.702 141.365V137.62C581.865 137.713 582.192 137.807 582.682 137.9C583.172 137.993 583.615 138.04 584.012 138.04C585.178 138.04 586.135 137.655 586.882 136.885C587.652 136.115 588.363 134.82 589.017 133H587.127L580.547 116.025L578.972 115.57V113.54H588.597V115.57L586.042 115.99L589.157 125.685L590.417 129.815L591.502 125.685L594.372 115.99L592.167 115.57V113.54H599.762V115.57L598.047 115.99C596.763 119.91 595.492 123.69 594.232 127.33C592.972 130.97 592.237 133.012 592.027 133.455C591.28 135.415 590.568 136.978 589.892 138.145C589.215 139.312 588.41 140.198 587.477 140.805C586.543 141.412 585.412 141.715 584.082 141.715ZM604.915 130.13C605.102 130.41 605.522 130.678 606.175 130.935C606.852 131.168 607.528 131.285 608.205 131.285C609.302 131.285 610.118 131.063 610.655 130.62C611.215 130.153 611.495 129.547 611.495 128.8C611.495 128.03 611.157 127.412 610.48 126.945C609.803 126.455 608.66 125.86 607.05 125.16L606.07 124.74C604.46 124.063 603.258 123.247 602.465 122.29C601.672 121.333 601.275 120.097 601.275 118.58C601.275 117.53 601.59 116.597 602.22 115.78C602.85 114.94 603.737 114.287 604.88 113.82C606.023 113.353 607.342 113.12 608.835 113.12C609.932 113.12 610.865 113.19 611.635 113.33C612.428 113.47 613.257 113.657 614.12 113.89C614.587 114.053 614.937 114.147 615.17 114.17V118.755H612.405L611.6 116.095C611.46 115.862 611.145 115.652 610.655 115.465C610.165 115.278 609.605 115.185 608.975 115.185C608.018 115.185 607.248 115.395 606.665 115.815C606.105 116.212 605.825 116.772 605.825 117.495C605.825 118.148 606.023 118.697 606.42 119.14C606.817 119.56 607.248 119.887 607.715 120.12C608.182 120.353 609.045 120.738 610.305 121.275C611.565 121.812 612.603 122.325 613.42 122.815C614.26 123.305 614.948 123.947 615.485 124.74C616.045 125.51 616.325 126.455 616.325 127.575C616.325 129.302 615.648 130.702 614.295 131.775C612.942 132.848 610.993 133.385 608.45 133.385C607.26 133.385 606.187 133.28 605.23 133.07C604.297 132.86 603.212 132.58 601.975 132.23L601.205 131.985V127.365H604.11L604.915 130.13ZM625.059 133.315C623.589 133.315 622.504 132.977 621.804 132.3C621.104 131.623 620.754 130.55 620.754 129.08V116.235H618.479V114.415C618.666 114.345 619.004 114.228 619.494 114.065C619.984 113.878 620.358 113.727 620.614 113.61C621.011 113.307 621.349 112.782 621.629 112.035C621.839 111.545 622.224 110.332 622.784 108.395H625.584L625.724 113.54H631.079V116.235H625.759V126.07C625.759 127.377 625.794 128.298 625.864 128.835C625.934 129.372 626.086 129.722 626.319 129.885C626.553 130.025 626.961 130.095 627.544 130.095C628.128 130.095 628.734 130.037 629.364 129.92C629.994 129.78 630.519 129.617 630.939 129.43L631.604 131.39C630.951 131.88 629.994 132.323 628.734 132.72C627.474 133.117 626.249 133.315 625.059 133.315ZM642.287 133.385C639.207 133.385 636.908 132.487 635.392 130.69C633.898 128.87 633.152 126.397 633.152 123.27C633.152 121.17 633.537 119.35 634.307 117.81C635.1 116.27 636.208 115.092 637.632 114.275C639.055 113.458 640.7 113.05 642.567 113.05C644.9 113.05 646.697 113.668 647.957 114.905C649.217 116.118 649.87 117.857 649.917 120.12C649.917 121.66 649.823 122.803 649.637 123.55H638.262C638.355 125.673 638.857 127.33 639.767 128.52C640.677 129.687 641.972 130.27 643.652 130.27C644.562 130.27 645.495 130.118 646.452 129.815C647.432 129.512 648.202 129.15 648.762 128.73L649.637 130.655C649.007 131.332 647.98 131.962 646.557 132.545C645.157 133.105 643.733 133.385 642.287 133.385ZM645.017 121.45C645.063 120.797 645.087 120.295 645.087 119.945C645.087 116.842 644.048 115.29 641.972 115.29C640.828 115.29 639.942 115.745 639.312 116.655C638.682 117.565 638.332 119.163 638.262 121.45H645.017ZM652.71 130.9L654.67 130.585V116.865L652.43 116.235V113.82L658.24 113.085L658.66 113.365L659.185 114.52V115.99C659.955 115.243 661.051 114.59 662.475 114.03C663.921 113.447 665.17 113.155 666.22 113.155C667.48 113.155 668.495 113.365 669.265 113.785C670.058 114.205 670.653 114.858 671.05 115.745C671.82 115.045 672.835 114.438 674.095 113.925C675.355 113.412 676.591 113.155 677.805 113.155C679.881 113.155 681.351 113.762 682.215 114.975C683.078 116.188 683.51 118.172 683.51 120.925V130.585L685.785 130.9V133H676.72V130.9L678.54 130.585V121.065C678.54 119.245 678.318 117.973 677.875 117.25C677.455 116.503 676.638 116.13 675.425 116.13C674.771 116.13 674.095 116.282 673.395 116.585C672.718 116.865 672.111 117.215 671.575 117.635C671.738 118.522 671.82 119.63 671.82 120.96V130.585L673.99 130.9V133H664.855V130.9L666.78 130.585V120.96C666.78 119.747 666.698 118.802 666.535 118.125C666.395 117.425 666.115 116.923 665.695 116.62C665.275 116.293 664.668 116.13 663.875 116.13C663.128 116.13 662.381 116.305 661.635 116.655C660.911 116.982 660.258 117.378 659.675 117.845V130.585L661.74 130.9V133H652.71V130.9Z" fill="#F2901E"/>
<path d="M150.399 108.667L99.266 23.8666C97.1984 20.6321 94.3497 17.9701 90.9826 16.1262C87.6155 14.2823 83.8383 13.3158 79.9994 13.3158C76.1604 13.3158 72.3833 14.2823 69.0161 16.1262C65.649 17.9701 62.8003 20.6321 60.7327 23.8666L9.59937 108.667C7.79306 111.678 6.81129 115.111 6.75278 118.622C6.69426 122.133 7.56107 125.597 9.26603 128.667C11.2372 132.122 14.0904 134.992 17.534 136.983C20.9777 138.974 24.8882 140.015 28.866 140H131.133C135.084 140.042 138.977 139.041 142.419 137.098C145.86 135.155 148.728 132.339 150.733 128.933C152.488 125.832 153.382 122.318 153.324 118.755C153.265 115.191 152.255 111.709 150.399 108.667ZM139.066 122.333C138.265 123.711 137.102 124.842 135.704 125.606C134.305 126.37 132.725 126.737 131.133 126.667H28.866C27.2742 126.737 25.6935 126.37 24.2951 125.606C22.8967 124.842 21.7339 123.711 20.9327 122.333C20.3476 121.32 20.0395 120.17 20.0395 119C20.0395 117.83 20.3476 116.68 20.9327 115.667L72.1327 30.8C73.0527 29.5847 74.2418 28.5991 75.6067 27.9204C76.9716 27.2418 78.4751 26.8887 79.9994 26.8887C81.5236 26.8887 83.0272 27.2418 84.3921 27.9204C85.7569 28.5991 86.946 29.5847 87.866 30.8L138.999 115.6C139.607 116.615 139.934 117.774 139.945 118.958C139.957 120.141 139.654 121.306 139.066 122.333Z" fill="#F2901E"/>
<path d="M79.9997 113.333C83.6816 113.333 86.6663 110.349 86.6663 106.667C86.6663 102.985 83.6816 100 79.9997 100C76.3178 100 73.333 102.985 73.333 106.667C73.333 110.349 76.3178 113.333 79.9997 113.333Z" fill="#F2901E"/>
<path d="M79.9997 53.3334C78.2316 53.3334 76.5359 54.0358 75.2856 55.286C74.0354 56.5362 73.333 58.2319 73.333 60V86.6667C73.333 88.4348 74.0354 90.1305 75.2856 91.3808C76.5359 92.631 78.2316 93.3334 79.9997 93.3334C81.7678 93.3334 83.4635 92.631 84.7137 91.3808C85.964 90.1305 86.6663 88.4348 86.6663 86.6667V60C86.6663 58.2319 85.964 56.5362 84.7137 55.286C83.4635 54.0358 81.7678 53.3334 79.9997 53.3334Z" fill="#F2901E"/>
</svg>
