<svg width="60" height="45" viewBox="0 0 60 45" fill="none" xmlns="http://www.w3.org/2000/svg">
<path d="M32.9221 9.44292C42.1621 9.44292 47.4062 15.5592 48.1675 22.9471H48.4008C49.8133 22.9452 51.2123 23.2215 52.5179 23.7604C53.8235 24.2992 55.0102 25.09 56.0102 26.0875C57.0101 27.085 57.8038 28.2698 58.3458 29.5741C58.8879 30.8784 59.1676 32.2767 59.1692 33.6892C59.1672 35.1014 58.8872 36.4994 58.345 37.8033C57.8028 39.1073 57.0091 40.2917 56.0091 41.289C55.0092 42.2862 53.8227 43.0767 52.5172 43.6153C51.2118 44.154 49.813 44.4303 48.4008 44.4283H17.4404C16.0282 44.4303 14.6295 44.154 13.324 43.6153C12.0186 43.0767 10.832 42.2862 9.83209 41.289C8.83215 40.2917 8.03843 39.1073 7.49623 37.8033C6.95404 36.4994 6.67399 35.1014 6.67207 33.6892C6.67361 32.2767 6.95337 30.8784 7.4954 29.5741C8.03742 28.2698 8.83108 27.085 9.83106 26.0875C10.831 25.09 12.0177 24.2992 13.3233 23.7604C14.629 23.2215 16.028 22.9452 17.4404 22.9471H17.6737C18.4408 15.5096 23.6821 9.44292 32.9221 9.44292V9.44292ZM24.1662 0.666672C28.8825 0.666672 33.0621 3.04375 35.5412 6.68084C34.6721 6.57692 33.7974 6.5253 32.9221 6.52625C24.1896 6.52625 17.84 11.4175 15.6058 18.8142L15.4075 19.5142L15.2383 20.2083L14.6375 20.3221C12.338 20.8111 10.2037 21.8856 8.44127 23.4415C6.67889 24.9975 5.34814 26.9821 4.57791 29.2033C3.02732 28.0141 1.87784 26.3788 1.28391 24.5171C0.689974 22.6554 0.680039 20.6565 1.25544 18.789C1.83084 16.9215 2.964 15.2748 4.50269 14.0702C6.04139 12.8656 7.91189 12.1608 9.86291 12.0504L10.6125 12.0329C11.1765 8.84796 12.8439 5.96328 15.3223 3.88489C17.8007 1.80651 20.9317 0.667148 24.1662 0.666672V0.666672Z" fill="white"/>
</svg>
