<svg width="35" height="28" viewBox="0 0 35 28" fill="none" xmlns="http://www.w3.org/2000/svg">
<path d="M27.5 10H30V12.5H27.5V10Z" fill="white"/>
<path d="M5.5 19.9286H8V22.4286H5.5V19.9286Z" fill="white"/>
<path d="M10.6426 19.9286H13.1426V22.4286H10.6426V19.9286Z" fill="white"/>
<path d="M15.7861 19.9286H18.2861V22.4286H15.7861V19.9286Z" fill="white"/>
<path d="M20.9287 19.9286H30.0716V22.2143H20.9287V19.9286Z" fill="white"/>
<path d="M5.5 5.07143H30.0714V18.2143H5.5V5.07143Z" fill="white"/>
<path d="M32.5 2.42774e-06H15L14.267 4.16479e-06C14.4099 3.91882e-06 14.0305 -1.36993e-06 13.5 3.51765e-06C12.7468 4.16479e-06 13.1628 0.000662366 12.5 5.20387e-07H7.5C6.83716 0.000662366 6.92857 5.20387e-07 6.35714 5.20387e-07C5.78571 -1.71053e-06 5 4.18182e-06 5.73296 5.20387e-07L5 2.42774e-06H2.5C1.83716 0.000664274 1.20166 0.264269 0.732964 0.732967C0.264266 1.20166 0.000661846 1.83717 0 2.5V25C0.000661846 25.6628 0.264266 26.2983 0.732964 26.767C1.20166 27.2357 1.83716 27.4993 2.5 27.5H32.5C33.1628 27.4993 33.7983 27.2357 34.267 26.767C34.7357 26.2983 34.9993 25.6628 35 25V2.5C34.9993 1.83717 34.7357 1.20166 34.267 0.732967C33.7983 0.264269 33.1628 0.000664274 32.5 2.42774e-06ZM32.5 25H2.5V2.5H5H5.73296C6.35714 2.5 5.5 2.5 6.35714 2.5C7.21429 2.5 6.83716 2.49934 7.5 2.5H12.5C13.1628 2.49934 12.6429 2.5 13.5 2.5C14.0714 2.5 14.9286 2.5 14.267 2.5H15H32.5V25Z" fill="white"/>
<path d="M7.21387 6.78571H28.3567V16.5H7.21387V6.78571Z" fill="#10BAB9"/>
</svg>
