<svg width="35" height="28" viewBox="0 0 35 28" fill="none" xmlns="http://www.w3.org/2000/svg">
<path d="M23.6239 24.5004L21.0006 24.5031V22.7499H14.0006V24.5113L11.3767 24.5141C10.8944 24.5146 10.5034 24.9056 10.5028 25.3885L10.5001 27.1237C10.4996 27.6077 10.8922 28.0004 11.3762 27.9998L23.6239 27.9856C24.1063 27.9851 24.4973 27.594 24.4978 27.1117L24.5 25.3765C24.5006 24.8925 24.1079 24.4998 23.6239 24.5004V24.5004ZM32.0031 1.46233C31.8598 0.618512 31.1166 0 30.2455 0H4.75414C3.88297 0 3.13977 0.618512 2.99649 1.46233C-0.18138 20.1883 0.00236892 19.0355 0.00182205 19.2499C0.000181431 20.1971 0.783302 20.9999 1.78462 20.9999H33.2155C34.2125 20.9999 34.9934 20.2036 34.9978 19.2614C34.9989 19.0382 35.181 20.1883 32.0031 1.46233V1.46233ZM14.2095 3.49998H20.79L21.3243 8.74994H13.6752L14.2095 3.49998ZM10.0987 17.4999H3.88789L4.92749 11.3749H10.7227L10.0987 17.4999V17.4999ZM10.9896 8.74994H5.37265L6.2635 3.49998H11.5239L10.9896 8.74994V8.74994ZM12.7844 17.4999L13.4078 11.3749H21.5918L22.2152 17.4999H12.7844V17.4999ZM23.4757 3.49998H28.7361L29.6269 8.74994H24.01L23.4757 3.49998V3.49998ZM24.9009 17.4999L24.2774 11.3749H30.0726L31.1122 17.4999H24.9009Z" fill="white"/>
</svg>
